<svg width="306" height="238" viewBox="0 0 306 238" fill="none" xmlns="http://www.w3.org/2000/svg">
<path d="M20.4418 210.426H303.253C312.467 210.426 295.976 215.239 290.568 220.638C285.16 226.037 285.48 228.287 272.038 232.374C243.12 241.164 230.748 223.959 184.84 230.733C165.278 233.616 140.339 239.132 120.66 236.202C104.091 233.733 100.066 222.435 87.5455 221.521C68.3194 220.115 58.7299 221.497 41.1919 220.638C26.1628 219.904 -3.59856 210.426 20.4418 210.426Z" fill="url(#paint0_linear_86_2129)"/>
<path d="M236.383 210.426C235.477 179.306 242.519 141.536 267.036 120.104C270.975 116.666 275.781 112.228 281.369 112.635C283.972 112.822 285.254 115.799 285.644 118.003C286.34 121.94 285.66 125.988 284.699 129.871C279.392 151.303 261.885 188.814 257.407 210.434" fill="url(#paint1_linear_86_2129)"/>
<path d="M277.688 120.909C272.999 126.941 268.927 133.418 265.465 140.223C262.229 146.568 259.509 153.17 257.258 159.936C255.187 166.164 253.523 172.524 252.249 178.954C251.162 184.431 250.373 189.979 249.889 195.549C249.513 199.878 249.295 204.253 249.513 208.598C249.537 209.035 249.568 209.465 249.592 209.902C249.607 210.176 250.029 210.176 250.021 209.902C249.842 205.769 250.068 201.574 250.373 197.456C250.772 192.033 251.475 186.642 252.46 181.298C253.616 174.985 255.133 168.742 257.04 162.609C259.134 155.873 261.69 149.271 264.746 142.911C268.02 136.098 271.858 129.55 276.258 123.394C276.805 122.62 277.368 121.862 277.938 121.104C278.04 120.964 277.805 120.776 277.696 120.917L277.688 120.909Z" fill="#92D0FF"/>
<path d="M257.415 210.426C260.697 190.283 264.144 173.836 275.687 157.014C280.439 150.092 289.583 141.536 296.867 142.239C304.675 142.997 299.134 154.795 294.499 163.601C288.317 175.352 283.815 188.127 281.682 201.23C282.323 197.284 285.066 186.041 293.163 181.048C295.539 179.579 301.385 178.727 301.385 183.587C301.385 192.135 293.077 202.402 290.998 210.418" fill="url(#paint2_linear_86_2129)"/>
<path d="M294.359 148.326C292.397 150.795 290.771 153.53 289.224 156.272C287.075 160.077 285.136 164.007 283.308 167.976C281.244 172.446 279.33 176.985 277.579 181.587C275.828 186.189 274.21 190.916 272.866 195.69C271.694 199.862 270.686 204.113 270.209 208.426C270.154 208.895 270.115 209.363 270.084 209.832C270.068 210.035 270.373 210.028 270.396 209.832C270.904 205.629 271.819 201.472 272.921 197.386C274.187 192.706 275.719 188.096 277.391 183.548C279.064 179.001 280.986 174.305 283.018 169.789C284.839 165.742 286.785 161.749 288.888 157.835C290.451 154.92 292.1 152.022 294.046 149.342C294.234 149.084 294.421 148.834 294.617 148.584C294.757 148.404 294.507 148.146 294.359 148.326Z" fill="#92D0FF"/>
<path d="M296.758 184.197C294.273 186.642 292.428 189.643 290.928 192.768C289.232 196.3 287.958 200.019 286.918 203.793C286.317 205.965 285.809 208.16 285.402 210.379C285.355 210.621 285.715 210.723 285.769 210.481C287.45 203.066 289.443 195.464 293.507 188.955C294.515 187.338 295.648 185.798 296.977 184.431C297.125 184.283 296.899 184.056 296.75 184.205L296.758 184.197Z" fill="#92D0FF"/>
<path d="M72.7664 210.426C68.0146 171.164 71.4691 154.053 75.9395 143.177C78.0263 138.106 81.0196 133.09 85.2556 129.511C102.215 115.205 101.699 143.021 100.902 151.451C99.089 170.656 94.2746 191.19 93.837 210.426" fill="url(#paint3_linear_86_2129)"/>
<path d="M57.4872 210.426C56.9479 198.073 51.438 186.025 44.4119 176.055C37.3467 166.031 27.6321 158.03 21.2703 147.506C17.8627 141.864 12.4701 132.996 20.4419 128.371C29.2812 123.237 42.2705 128.621 49.3826 134.481C57.1121 140.856 62.1999 149.896 66.4359 158.819C73.931 174.579 75.4315 192.979 75.5488 210.434" fill="url(#paint4_linear_86_2129)"/>
<path d="M59.1674 210.426C59.1987 197.854 52.7978 184.58 42.6768 174.758C36.0649 168.344 28.1556 162.327 19.1366 159.679C14.4551 158.303 1.37202 156.131 0.0590185 163.906C-0.441172 166.851 2.22391 172.391 8.59352 177.438C17.4563 184.455 41.9343 195.362 44.8886 210.418" fill="url(#paint5_linear_86_2129)"/>
<path d="M6.0614 164.429C9.66433 165.421 13.1657 166.773 16.5341 168.383C20.3012 170.187 23.9119 172.32 27.3117 174.743C30.9459 177.337 34.3456 180.282 37.3858 183.556C40.426 186.83 43.3021 190.705 45.5295 194.768C47.757 198.831 49.5701 203.605 50.6487 208.324C50.7894 208.934 50.9144 209.551 51.0316 210.168C51.0707 210.379 51.3911 210.285 51.3521 210.082C50.5627 205.222 49.0152 200.534 46.7878 196.143C44.6777 191.979 41.9969 188.111 38.9177 184.611C35.94 181.228 32.5871 178.18 28.9842 175.477C25.3813 172.774 21.8565 170.641 18.0034 168.719C14.5881 167.015 11.032 165.578 7.3744 164.499C6.96018 164.374 6.54596 164.257 6.13174 164.148C5.95198 164.101 5.87383 164.374 6.05358 164.421L6.0614 164.429Z" fill="#92D0FF"/>
<path d="M24.6623 133.379C28.3668 135.356 31.7353 137.926 34.8146 140.778C38.5348 144.216 41.8642 148.076 44.834 152.178C48.2494 156.897 51.1958 161.96 53.6968 167.218C56.526 173.172 58.8003 179.392 60.5197 185.752C62.4267 192.815 63.5677 200.011 64.2711 207.285C64.3649 208.23 64.4431 209.176 64.5134 210.121C64.5368 210.473 65.0839 210.481 65.0683 210.121C64.7479 202.683 63.6068 195.276 61.8092 188.056C60.1914 181.571 58.0187 175.219 55.2521 169.125C52.7824 163.679 49.8438 158.436 46.4206 153.522C43.4585 149.271 40.1291 145.247 36.3777 141.661C33.2593 138.676 29.8361 135.957 26.0847 133.809C25.6705 133.574 25.2485 133.34 24.8186 133.121C24.6545 133.035 24.506 133.285 24.6701 133.371L24.6623 133.379Z" fill="#92D0FF"/>
<path d="M91.5784 129.191C89.601 133.864 88.0458 138.7 86.7718 143.607C85.4041 148.881 84.3569 154.225 83.5362 159.608C82.7156 164.992 82.0826 170.578 81.6371 176.094C81.1916 181.611 80.9181 187.119 80.7774 192.635C80.6523 197.831 80.5742 203.043 80.7617 208.231C80.7852 208.863 80.8086 209.488 80.8321 210.121C80.8477 210.434 81.3166 210.434 81.3166 210.121C81.301 205.004 81.2541 199.886 81.3557 194.768C81.4651 189.299 81.6996 183.83 82.0904 178.376C82.4812 172.922 83.0439 167.289 83.8254 161.773C84.607 156.256 85.5526 151.068 86.8031 145.794C88.0536 140.52 89.4447 135.832 91.2657 131.019C91.4768 130.457 91.6956 129.894 91.9222 129.332C92.0004 129.144 91.6643 128.996 91.5862 129.191H91.5784Z" fill="#92D0FF"/>
<path d="M47.1864 210.426C45.6702 203.644 44.3337 196.573 40.2931 190.729C37.6515 186.908 32.2588 181.579 27.4523 181.665C23.8806 181.728 23.0756 185.158 23.4899 188.252C24.5762 196.346 29.0701 198.823 30.813 207.574C29.9454 204.261 24.5918 192.776 19.8869 197.167C14.7209 201.995 22.427 210.426 22.427 210.426" fill="url(#paint6_linear_86_2129)"/>
<path d="M21.8018 199.401C23.1461 201.011 24.4512 202.66 25.6001 204.418C26.8506 206.34 27.7963 208.34 28.6247 210.465C28.7029 210.668 28.9999 210.59 28.953 210.371C28.4684 208.16 27.2336 206.051 25.9753 204.191C24.717 202.331 23.4274 200.777 21.9972 199.19C21.8721 199.058 21.6846 199.253 21.8018 199.386V199.401Z" fill="#92D0FF"/>
<path d="M29.2343 186.744C32.0244 189.603 34.0721 193.166 35.8306 196.721C37.464 200.026 38.8473 203.441 40.1134 206.902C40.5511 208.09 40.9575 209.285 41.403 210.473C41.4812 210.676 41.7938 210.598 41.7312 210.379C40.9497 207.707 39.9728 205.089 38.9177 202.519C37.3858 198.761 35.643 195.065 33.4547 191.643C32.2902 189.814 30.9693 188.064 29.4219 186.533C29.2968 186.408 29.0936 186.603 29.2265 186.728L29.2343 186.744Z" fill="#92D0FF"/>
<path d="M184.997 146.412H186.56" stroke="#B3D3F4" stroke-miterlimit="10"/>
<path d="M189.678 146.412H273.366C287.035 146.412 298.11 135.332 298.11 121.675C298.11 108.017 287.028 96.9377 273.366 96.9377H84.7007C77.4479 96.9377 71.5707 91.0621 71.5707 83.8113C71.5707 76.5606 77.4479 70.685 84.7007 70.685H243.222C249.638 70.685 254.844 65.4813 254.844 59.0666C254.844 52.6519 249.638 47.4482 243.222 47.4482H98.1667C94.6341 47.4482 91.7737 44.5885 91.7737 41.0569C91.7737 37.5253 94.6341 34.6656 98.1667 34.6656H137.221" stroke="#B3D3F4" stroke-miterlimit="10"/>
<path d="M138.776 34.658H140.339" stroke="#B3D3F4" stroke-miterlimit="10"/>
<path d="M150.327 13.9916C142.996 12.7571 136.048 17.6951 134.814 25.024C134.048 29.5401 135.642 33.9077 138.69 36.8924L136.869 40.5803L140.949 38.6739C142.402 39.588 144.051 40.2365 145.849 40.5334C153.18 41.7679 160.128 36.8299 161.363 29.501C162.598 22.1722 157.658 15.2261 150.327 13.9916Z" fill="#F3FAFF"/>
<path d="M142.082 33.5796L140.691 31.9154C140.152 31.2747 140.238 30.3137 140.886 29.7823L142.488 28.4463C143.129 27.9072 144.091 27.9931 144.622 28.6416C144.622 28.6416 145.364 29.7511 146.232 29.5558C147.217 29.3292 149.366 27.7587 150.523 26.5476C151.335 25.696 149.968 24.1802 149.968 24.1802C149.429 23.5395 149.514 22.5785 150.163 22.0472L151.765 20.7111C152.406 20.172 153.368 20.2579 153.899 20.9064L155.29 22.5707C158.424 26.3289 144.817 36.8612 142.082 33.5874V33.5796Z" fill="#B3D3F4"/>
<path d="M208.99 34.4001C210.983 32.4859 211.812 30.5169 214.563 29.9075C215.125 29.7824 215.719 29.7121 216.204 29.4074C217.54 28.5792 217.267 26.6806 217.572 25.1804C218.166 22.227 222.026 20.3518 224.863 21.6566C226.051 22.2035 227.122 23.2036 228.435 23.1177C231.061 22.938 230.741 19.7033 232.538 17.8593C234.234 16.117 237.681 15.8904 239.885 16.9921C241.385 17.75 242.737 18.8204 243.746 20.133C244.809 21.516 244.762 23.649 245.551 25.1726C246.301 26.6415 248.099 27.2822 248.88 28.7355C249.56 29.9934 249.771 31.3295 249.216 32.6577C248.099 35.3455 244.809 37.2832 241.831 37.2832H201.573C201.573 37.2832 206.778 36.541 208.998 34.4157L208.99 34.4001Z" fill="#F3FAFF"/>
<path d="M112.571 15.2809C110.883 13.6636 110.187 11.9993 107.866 11.4837C107.389 11.3743 106.889 11.3196 106.475 11.0617C105.341 10.3586 105.576 8.75682 105.318 7.49107C104.818 4.99081 101.551 3.41252 99.1593 4.5142C98.159 4.97518 97.2445 5.82683 96.1426 5.7487C93.923 5.60025 94.1887 2.86559 92.6725 1.30293C91.2423 -0.173785 88.3271 -0.361305 86.467 0.568479C85.1931 1.20917 84.0598 2.11551 83.2001 3.21719C82.3014 4.38137 82.3404 6.18625 81.6761 7.47544C81.0431 8.71776 79.5269 9.25688 78.8625 10.4836C78.292 11.5462 78.1123 12.6713 78.5812 13.7964C79.5269 16.0701 82.3092 17.7109 84.8258 17.7109H118.854C118.854 17.7109 114.454 17.0858 112.578 15.2809H112.571Z" fill="#F3FAFF"/>
<path d="M269.521 52.0191L245.871 39.3693L252.093 20.8909L280.877 35.783L269.521 52.0191Z" fill="#CFE0F5"/>
<path d="M280.877 35.783L252.093 20.8908L272.616 16.5076L280.877 35.783Z" fill="#CFE0F5"/>
<path d="M278.69 32.7995L255.648 20.8739L245.573 40.3299L268.615 52.2555L278.69 32.7995Z" fill="#FFF4E1"/>
<path d="M252.093 20.8909L242.409 39.5959L261.299 38.3536L252.093 20.8909Z" fill="#E6F1FC"/>
<path d="M280.877 35.783L271.193 54.4958L261.299 38.3535L280.877 35.783Z" fill="#E6F1FC"/>
<g style="mix-blend-mode:multiply">
<path d="M271.194 54.4959L242.409 39.5959L264.293 32.6655L271.194 54.4959Z" fill="#E6F1FC"/>
</g>
<path d="M271.194 54.4959L242.409 39.5959L262.925 35.2205L271.194 54.4959Z" fill="#E6F1FC"/>
<path d="M79.7145 59.8401L60.4493 64.6687L54.6659 51.433L77.87 45.2839L79.7145 59.8401Z" fill="#CFE0F5"/>
<path d="M77.87 45.284L54.6659 51.4331L63.7397 38.8224L77.87 45.284Z" fill="#CFE0F5"/>
<path d="M75.1849 44.7401L56.6077 49.6609L60.7652 65.3478L79.3424 60.427L75.1849 44.7401Z" fill="#FFF4E1"/>
<path d="M54.6659 51.4331L58.6674 66.5128L68.4055 56.4336L54.6659 51.4331Z" fill="#E6F1FC"/>
<path d="M77.8699 45.2839L81.8715 60.3714L68.4054 56.4335L77.8699 45.2839Z" fill="#E6F1FC"/>
<g style="mix-blend-mode:multiply">
<path d="M81.8715 60.3715L58.6674 66.5127L67.2175 51.8237L81.8715 60.3715Z" fill="#E6F1FC"/>
</g>
<path d="M81.8715 60.3715L58.6674 66.5128L67.7411 53.9021L81.8715 60.3715Z" fill="#E6F1FC"/>
<path d="M155.548 33.5015L156.267 32.3842C156.267 32.3842 156.064 31.5872 156.064 30.5793C156.064 30.1339 156.212 28.9463 156.392 28.8448C156.572 28.7432 156.65 29.8449 156.728 29.8058C156.806 29.7667 157.377 27.6024 157.705 27.6337C157.869 27.6493 157.306 29.7433 157.306 29.7433C157.306 29.7433 157.861 27.4696 158.111 27.5477C158.362 27.6259 157.76 29.798 157.76 29.798C157.76 29.798 158.291 27.7353 158.51 27.8056C158.729 27.8759 158.166 29.8761 158.166 29.8761C158.166 29.8761 158.698 28.0869 158.815 28.1884C158.995 28.3447 158.791 29.5714 158.276 31.3059C158.19 31.6107 157.752 32.603 157.728 32.6811C157.705 32.7592 157.213 34.5641 157.213 34.5641" fill="#FC8975"/>
<path d="M156.767 30.048C156.963 30.3762 157.166 30.7278 157.26 31.095C157.361 31.5091 157.252 31.8998 157.135 32.2983C157.119 32.3608 157.205 32.3999 157.244 32.3452C157.455 31.9701 157.541 31.5404 157.447 31.1107C157.353 30.6809 157.111 30.345 156.861 30.0012C156.822 29.9465 156.744 30.0012 156.775 30.0559L156.767 30.048Z" fill="#CC6658"/>
<path d="M130.961 168.062C130.961 168.062 135.142 169.586 135.165 170.82C135.181 171.531 129.1 171.508 128.725 171.039C128.116 170.289 129.171 168.211 129.171 168.211L130.961 168.054V168.062Z" fill="#352E72"/>
<path d="M130.867 164.609L130.96 168.164C130.96 168.164 130.828 168.742 130.21 168.82C129.593 168.898 129.171 168.211 129.171 168.211L128.991 163.765" fill="#FC8975"/>
<path d="M133.727 85.46C133.727 85.46 136.002 99.2661 134.86 125.753C134.079 143.841 131.633 165.71 130.742 165.734C129.843 165.757 129.046 165.648 129.046 165.648C129.046 165.648 123.348 139.434 122.957 124.675C122.364 101.946 116.361 96.7268 118.964 84.9131" fill="url(#paint7_linear_86_2129)"/>
<path d="M131.32 164.288L131.156 165.859L128.655 165.929L128.538 164.367L131.32 164.288Z" fill="#75A1E9"/>
<path d="M118.065 168.414C118.065 168.414 122.246 169.937 122.27 171.172C122.285 171.883 116.205 171.859 115.83 171.391C115.22 170.641 116.275 168.562 116.275 168.562L118.065 168.406V168.414Z" fill="#352E72"/>
<path d="M117.979 164.968L118.073 168.523C118.073 168.523 117.94 169.101 117.322 169.18C116.705 169.258 116.283 168.57 116.283 168.57L116.103 164.124" fill="#FC8975"/>
<path d="M126.349 85.6631C126.349 85.6631 125.279 103.22 123.927 123.487C123.395 131.496 118.792 164.968 118.143 166.078C117.244 166.101 115.869 166.14 115.869 166.14C115.869 166.14 112.407 137.168 112.024 122.409C111.43 99.6802 108.983 96.9299 111.578 85.1162" fill="url(#paint8_linear_86_2129)"/>
<path d="M118.495 164.64L118.323 166.21L115.83 166.281L115.713 164.718L118.495 164.64Z" fill="#75A1E9"/>
<path d="M125.802 94.5469C125.802 94.5469 124.919 116.979 123.278 130.121" stroke="#4A578E" stroke-width="0.5" stroke-miterlimit="10"/>
<path d="M128.741 38.9162C127.319 36.4003 123.45 36.7832 121.238 37.9317C118.104 39.5647 117.362 44.2136 114.431 46.206C113.133 47.0889 111.57 47.6046 110.531 48.7922C109.319 50.1752 109.085 52.277 109.687 54.0193C110.296 55.7695 111.641 57.1759 113.196 58.1213C114.751 59.0667 116.518 59.598 118.292 60.0121C121.113 60.6607 124.122 61.0123 126.865 60.059C129.608 59.1058 131.984 56.5508 131.977 53.5896C131.969 51.0815 130.32 48.7454 130.609 46.2529" fill="#081466"/>
<path d="M155.767 32.6499C155.767 32.6499 148.28 43.3854 146.568 45.8309C143.903 49.6282 132.961 50.3627 127.115 53.8318L123.059 54.2693C121.136 54.66 114.485 59.3948 113.86 61.2935C112.438 65.6455 111.008 70.0522 110.757 74.6308C110.672 76.1856 110.718 77.7405 110.773 79.2953C110.843 81.5456 110.922 83.7958 110.992 86.0382C110.992 86.1867 111.008 86.3507 111.094 86.468C111.187 86.593 111.351 86.6398 111.508 86.6711C118.854 88.3666 126.506 87.4524 133.977 86.5305C134.235 86.4992 134.517 86.4601 134.712 86.2726C134.946 86.046 134.97 85.6866 134.985 85.3663C135.025 83.9286 134.946 82.491 134.884 81.0533C134.634 74.8339 134.86 68.5911 135.54 62.403C137.854 60.9497 147.435 57.9416 150.64 53.4724C157.814 43.4635 157.814 33.1578 157.814 33.1578L155.767 32.6499Z" fill="#4042E2"/>
<path d="M127.123 53.8239L126.975 48.6906L124.7 49.0031L123.067 54.2146C123.067 54.2146 123.817 55.2928 125.498 55.0584C126.951 54.8553 127.123 53.8239 127.123 53.8239Z" fill="#FC8975"/>
<path d="M122.262 46.5887C122.145 44.5729 122.739 42.4164 123.801 41.2288C124.864 40.049 126.85 39.8771 128.311 40.0724C128.811 40.1428 129.311 40.3068 129.702 40.635C131.148 41.8383 131.054 44.6042 130.953 46.2997C130.867 47.7373 130.445 49.1906 129.546 50.3079C129.264 50.6595 128.921 50.9798 128.506 51.1517C127.123 51.7299 125.154 51.4096 123.973 50.4798C122.825 49.5656 122.34 48.0264 122.262 46.5887Z" fill="#FC8975"/>
<path d="M121.613 48.2139C121.082 48.464 120.246 48.6437 119.831 48.0577C119.495 47.5889 119.792 46.8857 119.902 46.3856C120.277 44.7604 120.754 43.1665 121.308 41.5961C121.598 40.7835 121.91 39.9709 122.418 39.2833C123.403 37.9238 126.201 37.2987 127.85 37.455C129.655 37.3378 132.539 40.2834 130.961 43.7056C130.726 42.8696 130.398 42.9399 129.78 42.2289C129.186 42.8227 128.358 43.1509 127.53 43.2212C126.435 43.3228 125.169 43.0728 124.372 43.8385C123.551 44.6198 123.723 46.0262 123.129 47.0029C122.786 47.5654 122.215 47.9405 121.629 48.2139H121.613Z" fill="#081466"/>
<path d="M123.489 46.9326C123.559 46.4638 123.262 46.1669 122.957 46.1356C122.129 46.0497 121.879 47.3545 122.199 47.9483C122.442 48.3859 123.043 48.7531 123.356 48.2218" fill="#FC8975"/>
<path d="M124.88 49.9954C124.677 49.9798 124.474 49.9486 124.27 49.8939C123.809 49.7767 123.161 49.5032 122.715 48.8781C122.551 48.6515 122.473 48.4328 122.465 48.2218C122.465 48.1671 122.504 48.1281 122.559 48.1202C122.614 48.1202 122.653 48.1593 122.653 48.214C122.653 48.3859 122.731 48.5656 122.864 48.7609C123.278 49.3469 123.88 49.597 124.317 49.7063C124.896 49.8548 125.521 49.8314 126.06 49.8001C126.115 49.8001 126.154 49.8392 126.162 49.8939C126.162 49.9486 126.123 49.9954 126.076 49.9954C125.709 50.0189 125.302 50.0345 124.896 49.9954H124.88Z" fill="#081466"/>
<path d="M126.482 49.6594C126.326 49.5734 126.123 49.5734 125.951 49.6281C125.349 49.8234 125.998 50.597 126.545 50.1985C126.592 50.1672 126.631 50.1282 126.654 50.0813C126.732 49.9328 126.638 49.7453 126.482 49.6594Z" fill="#081466"/>
<path d="M120.886 43.5495C121.027 42.2134 121.519 40.682 122.34 39.635C123.395 38.2911 124.802 37.1816 126.154 37.1816C127.287 37.1816 127.85 37.4473 127.85 37.4473C126.459 37.7833 125.263 38.463 124.161 39.6272C123.059 40.7914 122.41 42.3931 122.379 44.0105" fill="#75A1E9"/>
<path d="M124.302 45.7763C124.458 47.2921 123.473 48.6359 122.098 48.7844C120.73 48.9328 119.495 47.8234 119.339 46.3076C119.183 44.7918 120.167 43.4479 121.543 43.2995C122.91 43.151 124.145 44.2605 124.302 45.7763Z" fill="#75A1E9"/>
<path d="M123.129 46.0184C123.239 47.0576 122.598 47.9718 121.699 48.0733C120.8 48.1671 119.995 47.4014 119.886 46.37C119.777 45.3309 120.417 44.4167 121.316 44.3151C122.215 44.2214 123.02 44.9871 123.129 46.0184Z" fill="#2D4CBA"/>
<path d="M172.891 41.557L89.1165 114.893V215.747H256.672V114.893L172.891 41.557Z" fill="url(#paint9_linear_86_2129)"/>
<path d="M248.2 67.3566H97.5806V205.34H248.2V67.3566Z" fill="url(#paint10_linear_86_2129)"/>
<path d="M239.58 85.2803H106.209V97.0627H239.58V85.2803Z" fill="white"/>
<path d="M239.58 102.587H106.209V114.369H239.58V102.587Z" fill="white"/>
<path d="M239.58 119.885H106.209V189.947H239.58V119.885Z" fill="white"/>
<path d="M114.862 93.8119H113.708L111.844 90.5717H111.818C111.855 91.1439 111.874 91.5521 111.874 91.7963V93.8119H111.062V89.5287H112.208L114.068 92.7367H114.089C114.059 92.1801 114.045 91.7865 114.045 91.556V89.5287H114.862V93.8119ZM118.565 93.8119L118.255 92.7924H116.693L116.382 93.8119H115.404L116.916 89.5111H118.026L119.544 93.8119H118.565ZM118.038 92.0306C117.751 91.1068 117.589 90.5844 117.551 90.4633C117.516 90.3422 117.491 90.2465 117.475 90.1761C117.411 90.4261 117.226 91.0443 116.922 92.0306H118.038ZM121.899 93.8119L120.868 90.4515H120.841C120.879 91.1351 120.897 91.5912 120.897 91.8197V93.8119H120.086V89.5287H121.322L122.336 92.8041H122.353L123.428 89.5287H124.665V93.8119H123.818V91.7845C123.818 91.6888 123.819 91.5785 123.821 91.4535C123.825 91.3285 123.839 90.9965 123.862 90.4574H123.836L122.731 93.8119H121.899ZM113.529 101.812H111.062V97.5287H113.529V98.2728H111.97V99.2133H113.421V99.9574H111.97V101.062H113.529V101.812Z" fill="#EAC38F"/>
<path d="M113.529 111.517H111.062V107.234H113.529V107.978H111.97V108.918H113.421V109.662H111.97V110.767H113.529V111.517ZM116.239 111.517L115.208 108.156H115.181C115.218 108.84 115.237 109.296 115.237 109.525V111.517H114.425V107.234H115.662L116.675 110.509H116.693L117.768 107.234H119.005V111.517H118.158V109.49C118.158 109.394 118.159 109.283 118.161 109.158C118.165 109.033 118.178 108.701 118.202 108.162H118.175L117.071 111.517H116.239ZM122.708 111.517L122.397 110.497H120.836L120.525 111.517H119.547L121.058 107.216H122.169L123.686 111.517H122.708ZM122.18 109.736C121.893 108.812 121.731 108.289 121.694 108.168C121.659 108.047 121.633 107.951 121.618 107.881C121.553 108.131 121.369 108.749 121.064 109.736H122.18ZM111.062 119.517V115.234H111.97V119.517H111.062ZM113.048 119.517V115.234H113.957V118.767H115.694V119.517H113.048Z" fill="#EAC38F"/>
<path d="M112.876 128.808L111.844 125.447H111.818C111.855 126.131 111.874 126.587 111.874 126.815V128.808H111.062V124.524H112.298L113.312 127.8H113.33L114.405 124.524H115.641V128.808H114.795V126.78C114.795 126.685 114.796 126.574 114.797 126.449C114.801 126.324 114.815 125.992 114.839 125.453H114.812L113.708 128.808H112.876ZM119.189 128.808H116.722V124.524H119.189V125.269H117.63V126.209H119.081V126.953H117.63V128.058H119.189V128.808ZM122.614 127.618C122.614 128.005 122.474 128.31 122.195 128.532C121.918 128.755 121.531 128.866 121.035 128.866C120.578 128.866 120.173 128.78 119.822 128.608V127.765C120.111 127.894 120.355 127.984 120.554 128.037C120.755 128.09 120.939 128.116 121.105 128.116C121.304 128.116 121.457 128.078 121.562 128.002C121.67 127.926 121.723 127.812 121.723 127.662C121.723 127.578 121.7 127.504 121.653 127.439C121.606 127.373 121.537 127.31 121.445 127.249C121.355 127.188 121.171 127.092 120.891 126.959C120.63 126.836 120.433 126.718 120.302 126.604C120.172 126.491 120.067 126.359 119.989 126.209C119.911 126.059 119.872 125.883 119.872 125.682C119.872 125.303 120 125.005 120.255 124.788C120.513 124.571 120.869 124.463 121.322 124.463C121.545 124.463 121.756 124.489 121.958 124.542C122.161 124.595 122.373 124.669 122.593 124.765L122.3 125.471C122.072 125.377 121.882 125.312 121.732 125.274C121.584 125.237 121.437 125.219 121.293 125.219C121.121 125.219 120.989 125.259 120.897 125.339C120.805 125.419 120.759 125.523 120.759 125.652C120.759 125.732 120.778 125.803 120.815 125.863C120.852 125.922 120.911 125.979 120.991 126.036C121.073 126.091 121.265 126.19 121.568 126.335C121.968 126.526 122.243 126.719 122.391 126.912C122.54 127.104 122.614 127.339 122.614 127.618ZM113.684 136.808L113.374 135.788H111.812L111.502 136.808H110.523L112.035 132.507H113.145L114.663 136.808H113.684ZM113.157 135.026C112.87 134.103 112.708 133.58 112.671 133.459C112.635 133.338 112.61 133.242 112.594 133.172C112.53 133.422 112.345 134.04 112.041 135.026H113.157ZM116.831 134.402H118.53V136.623C118.255 136.713 117.995 136.775 117.751 136.811C117.508 136.848 117.26 136.866 117.006 136.866C116.36 136.866 115.866 136.677 115.524 136.298C115.184 135.917 115.014 135.371 115.014 134.66C115.014 133.969 115.212 133.43 115.606 133.043C116.003 132.656 116.551 132.463 117.253 132.463C117.692 132.463 118.116 132.551 118.524 132.727L118.222 133.453C117.91 133.297 117.585 133.219 117.247 133.219C116.854 133.219 116.54 133.351 116.303 133.614C116.067 133.878 115.949 134.232 115.949 134.678C115.949 135.143 116.044 135.498 116.233 135.744C116.424 135.988 116.702 136.11 117.065 136.11C117.255 136.11 117.447 136.091 117.642 136.052V135.158H116.831V134.402ZM122.019 136.808H119.552V132.524H122.019V133.269H120.461V134.209H121.911V134.953H120.461V136.058H122.019V136.808Z" fill="#EAC38F"/>
<path d="M154.045 76.3097C153.532 76.3097 153.135 76.5031 152.854 76.8898C152.572 77.2736 152.432 77.8097 152.432 78.4982C152.432 79.9308 152.969 80.6471 154.045 80.6471C154.496 80.6471 155.042 80.5343 155.684 80.3087V81.4513C155.156 81.671 154.568 81.7809 153.917 81.7809C152.983 81.7809 152.268 81.4982 151.773 80.9327C151.277 80.3644 151.03 79.5499 151.03 78.4894C151.03 77.8214 151.151 77.2369 151.395 76.736C151.638 76.2321 151.986 75.8468 152.441 75.5802C152.898 75.3107 153.432 75.1759 154.045 75.1759C154.669 75.1759 155.296 75.3268 155.925 75.6285L155.486 76.736C155.246 76.6217 155.004 76.5221 154.761 76.4371C154.518 76.3522 154.279 76.3097 154.045 76.3097ZM162.886 78.4718C162.886 79.5353 162.623 80.3527 162.095 80.924C161.568 81.4952 160.812 81.7809 159.828 81.7809C158.843 81.7809 158.088 81.4952 157.56 80.924C157.033 80.3527 156.769 79.5323 156.769 78.463C156.769 77.3937 157.033 76.5778 157.56 76.0153C158.09 75.4498 158.849 75.1671 159.837 75.1671C160.824 75.1671 161.578 75.4513 162.1 76.0197C162.624 76.588 162.886 77.4054 162.886 78.4718ZM158.197 78.4718C158.197 79.1896 158.334 79.7301 158.606 80.0934C158.879 80.4567 159.286 80.6383 159.828 80.6383C160.915 80.6383 161.458 79.9161 161.458 78.4718C161.458 77.0245 160.918 76.3009 159.837 76.3009C159.295 76.3009 158.886 76.484 158.61 76.8502C158.335 77.2135 158.197 77.754 158.197 78.4718ZM169.918 81.693H168.186L165.391 76.8326H165.352C165.407 77.691 165.435 78.3033 165.435 78.6696V81.693H164.218V75.2682H165.936L168.727 80.0802H168.757C168.714 79.2452 168.692 78.6549 168.692 78.3092V75.2682H169.918V81.693ZM174.018 81.693H172.655V76.402H170.911V75.2682H175.762V76.402H174.018V81.693ZM180.684 81.693L180.218 80.1637H177.876L177.41 81.693H175.943L178.21 75.2418H179.876L182.152 81.693H180.684ZM179.893 79.0211C179.463 77.6354 179.219 76.8517 179.164 76.67C179.111 76.4884 179.073 76.3448 179.049 76.2394C178.953 76.6144 178.676 77.5416 178.219 79.0211H179.893ZM185.694 76.3097C185.181 76.3097 184.784 76.5031 184.503 76.8898C184.222 77.2736 184.081 77.8097 184.081 78.4982C184.081 79.9308 184.619 80.6471 185.694 80.6471C186.145 80.6471 186.692 80.5343 187.333 80.3087V81.4513C186.806 81.671 186.217 81.7809 185.567 81.7809C184.632 81.7809 183.917 81.4982 183.422 80.9327C182.927 80.3644 182.679 79.5499 182.679 78.4894C182.679 77.8214 182.801 77.2369 183.044 76.736C183.287 76.2321 183.636 75.8468 184.09 75.5802C184.547 75.3107 185.082 75.1759 185.694 75.1759C186.318 75.1759 186.945 75.3268 187.575 75.6285L187.135 76.736C186.895 76.6217 186.653 76.5221 186.41 76.4371C186.167 76.3522 185.928 76.3097 185.694 76.3097ZM191.183 81.693H189.82V76.402H188.076V75.2682H192.927V76.402H191.183V81.693ZM156.545 87.2682V91.4254C156.545 91.9 156.438 92.316 156.224 92.6735C156.013 93.0309 155.707 93.3048 155.306 93.4952C154.904 93.6857 154.43 93.7809 153.882 93.7809C153.056 93.7809 152.414 93.5699 151.957 93.1481C151.5 92.7233 151.272 92.1432 151.272 91.4078V87.2682H152.63V91.2013C152.63 91.6964 152.729 92.0597 152.928 92.2911C153.128 92.5226 153.457 92.6383 153.917 92.6383C154.362 92.6383 154.685 92.5226 154.884 92.2911C155.086 92.0568 155.187 91.6906 155.187 91.1925V87.2682H156.545ZM161.911 91.9088C161.911 92.4889 161.701 92.9459 161.282 93.2799C160.866 93.6139 160.286 93.7809 159.542 93.7809C158.857 93.7809 158.25 93.652 157.723 93.3942V92.1285C158.156 92.3219 158.523 92.4581 158.821 92.5372C159.123 92.6163 159.399 92.6559 159.648 92.6559C159.946 92.6559 160.175 92.5988 160.333 92.4845C160.494 92.3702 160.575 92.2003 160.575 91.9747C160.575 91.8488 160.54 91.7374 160.469 91.6407C160.399 91.5411 160.295 91.4459 160.157 91.3551C160.023 91.2643 159.746 91.1193 159.327 90.92C158.934 90.7355 158.64 90.5582 158.443 90.3883C158.247 90.2184 158.09 90.0206 157.973 89.795C157.856 89.5695 157.797 89.3058 157.797 89.004C157.797 88.4357 157.989 87.9889 158.373 87.6637C158.76 87.3385 159.293 87.1759 159.973 87.1759C160.307 87.1759 160.625 87.2155 160.926 87.2946C161.231 87.3737 161.549 87.485 161.88 87.6285L161.441 88.6876C161.098 88.547 160.814 88.4489 160.588 88.3932C160.365 88.3375 160.146 88.3097 159.929 88.3097C159.671 88.3097 159.473 88.3698 159.336 88.4899C159.198 88.61 159.129 88.7667 159.129 88.9601C159.129 89.0802 159.157 89.1857 159.213 89.2765C159.268 89.3644 159.356 89.4508 159.476 89.5358C159.599 89.6178 159.888 89.7672 160.342 89.984C160.943 90.2711 161.354 90.5597 161.577 90.8497C161.799 91.1368 161.911 91.4899 161.911 91.9088Z" fill="#EAC38F"/>
<g style="mix-blend-mode:multiply" opacity="0.55">
<path d="M172.891 178.923L89.1165 114.893V205.34H256.672V114.893L172.891 178.923Z" fill="#C9D3F4"/>
</g>
<path d="M172.891 189.346L89.1165 114.893V215.747H256.672V114.893L172.891 189.346Z" fill="url(#paint11_linear_86_2129)"/>
<g style="mix-blend-mode:multiply" opacity="0.35">
<path d="M172.891 136.786L89.1165 215.747H256.672L172.891 136.786Z" fill="#C9D3F4"/>
</g>
<path d="M172.891 144.482L89.1165 215.747H256.672L172.891 144.482Z" fill="url(#paint12_linear_86_2129)"/>
<path d="M227.693 220.638C225.997 211.801 227.771 202.73 231.296 195.182C233.609 190.244 238.924 183.361 244.863 183.462C249.279 183.54 251.123 187.978 251.381 191.971C252.054 202.441 247.13 205.636 247.153 216.95C247.403 212.661 251.546 198.745 258.025 203.496C264.371 208.145 258.189 220.638 258.189 220.638" fill="url(#paint13_linear_86_2129)"/>
<path d="M256.203 206.191C254.914 208.269 253.757 210.418 252.819 212.676C251.788 215.169 250.912 217.919 250.873 220.638C250.873 220.825 251.178 220.88 251.209 220.685C251.6 217.989 252.202 215.411 253.21 212.872C254.109 210.614 255.242 208.441 256.446 206.332C256.54 206.176 256.297 206.035 256.203 206.191Z" fill="#92D0FF"/>
<path d="M244.379 189.814C241.682 193.573 240.182 198.136 239.009 202.558C237.853 206.933 237.063 211.395 236.462 215.88C236.251 217.458 236.071 219.044 235.954 220.638C235.938 220.826 236.266 220.872 236.29 220.685C236.759 217.356 237.142 214.02 237.72 210.707C238.548 205.965 239.596 201.214 241.284 196.69C242.159 194.338 243.199 192.026 244.637 189.963C244.738 189.814 244.496 189.674 244.394 189.822L244.379 189.814Z" fill="#92D0FF"/>
<path d="M116.971 78.1233C116.971 78.1233 118.034 78.8734 118.401 78.8968C118.768 78.9203 119.612 78.6468 120.66 78.7484C121.129 78.7952 122.332 79.0609 122.395 79.2484C122.465 79.4359 121.308 79.4125 121.332 79.4906C121.363 79.5688 123.497 80.3657 123.403 80.6861C123.356 80.8501 121.285 80.0688 121.285 80.0688C121.285 80.0688 123.544 80.858 123.411 81.1002C123.278 81.3424 121.144 80.5142 121.144 80.5142C121.144 80.5142 123.184 81.2564 123.075 81.4674C122.965 81.6783 120.972 81.147 120.972 81.147C120.972 81.147 122.707 81.5221 122.614 81.733C122.567 81.8424 120.66 81.6002 119.034 80.9908C117.526 80.4282 116.291 79.4906 116.291 79.4906" fill="#FC8975"/>
<path d="M117.713 62.8561C115.838 65.7158 111.484 69.0208 109.085 71.0523C110.461 72.9196 118.26 78.7406 118.26 78.7406L117.534 80.4751C117.534 80.4751 102.669 77.8108 102.192 70.4663C101.91 66.0752 107.467 59.6058 111.781 56.5664C115.83 53.7145 120.566 53.2536 123.059 54.2615" fill="#4042E2"/>
<path d="M226.552 94.8594C224.91 94.1874 222.581 92.1872 222.847 91.0543C222.964 90.5699 224.113 91.8825 224.441 91.5622C224.652 91.3512 224.48 90.3745 223.886 89.9057C223.292 89.4291 222.065 88.5619 222.37 88.2571C222.675 87.9524 225.676 88.6244 226.348 89.6401C226.77 90.2808 227.239 91.7106 227.528 93.2577L228.771 94.8594" fill="#FC8975"/>
<path d="M257.993 222.38C257.993 222.38 252.882 223.927 252.882 225.092C252.882 225.764 260.393 225.584 260.846 225.131C261.573 224.404 260.205 222.474 260.205 222.474L257.993 222.373V222.38Z" fill="#352E72"/>
<path d="M257.993 219.122V222.482C257.993 222.482 258.173 223.021 258.939 223.083C259.705 223.146 260.205 222.482 260.205 222.482L260.283 218.278" fill="#FC8975"/>
<path d="M251.897 144.497C251.897 144.497 249.537 157.585 251.803 182.548C253.359 199.597 257.087 220.177 258.196 220.177C259.306 220.177 260.291 220.052 260.291 220.052C260.291 220.052 266.481 195.167 266.481 181.22C266.481 159.749 273.718 154.678 270.123 143.591" fill="url(#paint14_linear_86_2129)"/>
<path d="M257.423 218.833L257.681 220.302H260.768L260.861 218.833H257.423Z" fill="#75A1E9"/>
<path d="M273.937 222.38C273.937 222.38 268.825 223.927 268.825 225.092C268.825 225.764 276.336 225.584 276.789 225.131C277.516 224.404 276.149 222.474 276.149 222.474L273.937 222.373V222.38Z" fill="#352E72"/>
<path d="M273.937 219.122V222.482C273.937 222.482 274.117 223.021 274.882 223.083C275.648 223.146 276.149 222.482 276.149 222.482L276.227 218.278" fill="#FC8975"/>
<path d="M261.01 144.497C261.01 144.497 262.901 161.038 265.23 180.134C266.145 187.674 272.921 219.154 273.757 220.177H276.571C276.571 220.177 279.908 192.745 279.908 178.806C279.908 157.335 282.839 154.678 279.244 143.599" fill="url(#paint15_linear_86_2129)"/>
<path d="M273.288 218.833L273.546 220.302H276.633L276.727 218.833H273.288Z" fill="#75A1E9"/>
<path d="M261.979 152.865C261.979 152.865 263.8 174.016 266.254 186.369" stroke="#4A578E" stroke-width="0.5" stroke-miterlimit="10"/>
<path d="M279.963 141.755C279.963 140.388 281.025 116.807 276.93 111.47C275.773 108.986 271.483 106.181 268.067 104.954C265.058 103.876 263.159 104.72 261.792 104.915C256.032 103.259 242.862 104.368 239.213 102.493C237.204 101.462 227.794 93.3124 227.794 93.3124L226.036 94.6797C226.036 94.6797 231.655 106.415 237.97 110.517C242.409 113.4 249.005 115.002 252.53 115.705C252.483 116.354 252.436 117.057 252.397 117.854C252.202 122.065 251.725 129.465 252.21 141.763C252.257 142.935 250.991 144.427 250.991 145.208C250.991 145.99 252.515 148.459 265.176 148.459C275.914 148.459 281.025 146.88 281.025 145.091C281.025 143.302 279.963 143.122 279.963 141.755Z" fill="#4042E2"/>
<g style="mix-blend-mode:multiply" opacity="0.75">
<path d="M252.819 110.877C252.819 110.877 252.866 111.181 252.882 111.635C252.897 112.088 252.905 112.697 252.866 113.299C252.835 113.9 252.757 114.502 252.679 114.955C252.6 115.408 252.522 115.705 252.522 115.705C252.522 115.705 252.475 115.401 252.46 114.947C252.444 114.494 252.436 113.885 252.475 113.283C252.507 112.682 252.585 112.08 252.663 111.627C252.741 111.174 252.819 110.877 252.819 110.877Z" fill="url(#paint16_linear_86_2129)"/>
</g>
<path d="M261.01 90.4684C260.533 92.3592 259.361 97.5629 260.439 99.188C261.502 100.798 263.831 101.259 265.605 100.516C267.387 99.7662 268.614 98.0473 269.185 96.2033C269.756 94.3594 269.74 92.3905 269.615 90.4684" fill="#FC8975"/>
<path d="M263.073 97.3519L262.331 103.657C262.331 103.657 262.604 105.423 263.566 106.095C265.942 106.04 267.083 103.782 267.083 103.782L266.371 95.6642" fill="#FC8975"/>
<path d="M267.231 92.2186C266.012 91.781 264.332 91.9373 262.8 91.6794C261.737 91.4997 260.596 91.4763 259.595 91.0387C257.774 90.2418 257.938 87.4837 259.423 86.4367C259.814 86.1632 260.353 85.8742 260.854 85.9835C261.385 86.1086 261.588 86.6711 262.057 86.8821C262.307 86.9993 262.596 87.0227 262.87 86.9915C263.073 86.968 263.276 86.9133 263.433 86.7805C263.691 86.5539 263.8 86.1945 264.05 85.9601C264.3 85.7257 264.605 85.5851 264.941 85.5069C265.637 85.335 266.465 85.4132 267.067 85.8273C267.278 85.9757 267.466 86.1711 267.708 86.2492C268.106 86.3742 268.552 86.3508 268.919 86.5617C269.943 87.1243 270.6 88.5697 270.686 89.6949C270.701 89.8746 270.99 90.0465 271.1 90.1715C272.116 91.3591 272.186 93.0155 271.913 94.4844C271.639 95.9533 271.131 97.3519 269.935 98.3129C269.529 98.6411 268.927 98.7895 268.38 98.9849C266.262 99.735 267.34 93.9062 267.239 92.2264" fill="#352E72"/>
<path d="M267.52 95.4532C267.536 95.0313 268.161 94.6719 268.568 94.9688C268.833 95.1641 268.974 95.3595 268.99 95.6329C269.029 96.2189 268.638 97.1018 267.911 97.2347C267.638 97.2894 267.341 96.9378 267.325 96.6721" fill="#FC8975"/>
<path d="M265.301 99.2271C265.504 99.2115 265.707 99.1802 265.91 99.1255C266.371 99.0083 267.02 98.7505 267.466 98.1333C267.63 97.9067 267.708 97.7035 267.716 97.4926C267.716 97.4379 267.677 97.3988 267.622 97.3988C267.567 97.3988 267.528 97.4379 267.528 97.4926C267.528 97.6645 267.45 97.8363 267.317 98.0239C266.903 98.5942 266.301 98.8443 265.863 98.9458C265.285 99.0865 264.66 99.0709 264.121 99.0396C264.066 99.0396 264.027 99.0787 264.019 99.1255C264.019 99.1802 264.058 99.2193 264.105 99.2271C264.472 99.2506 264.879 99.2584 265.285 99.2271H265.301Z" fill="#081466"/>
<path d="M263.699 98.8989C263.855 98.8129 264.058 98.8129 264.23 98.8676C264.832 99.0551 264.183 99.8208 263.636 99.4302C263.589 99.3989 263.55 99.3598 263.527 99.313C263.448 99.1723 263.542 98.9848 263.699 98.8989Z" fill="#081466"/>
<path d="M269.294 92.9296C269.154 91.6248 268.661 90.1246 267.841 89.1011C266.786 87.7884 265.379 86.7024 264.027 86.7024C262.894 86.7024 262.331 86.9602 262.331 86.9602C263.722 87.2884 264.918 87.9525 266.02 89.0933C267.122 90.234 267.77 91.7967 267.802 93.3828" fill="#75A1E9"/>
<path d="M265.879 95.1094C265.723 96.5861 266.707 97.9066 268.083 98.0472C269.451 98.1879 270.686 97.1018 270.842 95.6251C270.998 94.1484 270.013 92.8279 268.638 92.6873C267.27 92.5467 266.035 93.6327 265.879 95.1094Z" fill="#75A1E9"/>
<path d="M267.051 95.3439C266.942 96.3596 267.583 97.2582 268.482 97.3519C269.38 97.4457 270.185 96.6956 270.295 95.6799C270.404 94.6641 269.763 93.7656 268.865 93.6719C267.966 93.5781 267.161 94.3282 267.051 95.3439Z" fill="#A2C0ED"/>
<path d="M263.566 140.028H238.275L235.797 124.753C235.688 124.105 236.196 123.511 236.852 123.511H259.392C260.252 123.511 260.987 124.136 261.119 124.98L263.558 140.028H263.566Z" fill="#A2C0ED"/>
<path d="M262.831 140.028H237.54L235.063 124.753C234.953 124.105 235.461 123.511 236.118 123.511H258.658C259.517 123.511 260.252 124.136 260.385 124.98L262.823 140.028H262.831Z" fill="url(#paint17_linear_86_2129)"/>
<path d="M250.256 131.363C249.982 130.074 248.998 129.16 248.068 129.324C247.137 129.488 246.606 130.668 246.88 131.949C247.153 133.238 248.138 134.153 249.068 133.989C249.998 133.824 250.529 132.645 250.256 131.363Z" fill="#ABD1FF"/>
<path style="mix-blend-mode:multiply" opacity="0.75" d="M276.93 111.463C275.773 108.978 272.71 107.931 269.294 106.712L268.357 118.245C268.779 123.503 270.678 131.105 270.678 131.105L260.103 139.106L260.119 139.137C259.916 139.262 259.744 139.364 259.697 139.364C259.556 139.364 258.525 138.786 257.985 138.88C257.438 138.973 256.813 139.012 256.813 139.208C256.813 139.403 257.649 139.426 257.649 139.614C257.649 139.802 257.087 140.177 256.837 140.177C256.586 140.177 255.07 140.067 254.976 140.177C254.883 140.286 255.297 140.966 255.711 141.341C255.906 141.52 256.602 141.802 257.048 141.802C258.134 141.802 259.705 141.411 259.908 141.27C260.08 141.145 260.518 140.903 260.947 140.669L261.307 141.333C261.307 141.333 275.719 140.184 280.056 138.208C280.189 131.105 280.158 115.674 276.938 111.486L276.93 111.463Z" fill="url(#paint18_linear_86_2129)"/>
<path d="M261.01 138.544C261.01 138.544 259.838 139.247 259.697 139.247C259.556 139.247 258.525 138.747 257.985 138.833C257.438 138.911 256.813 138.942 256.813 139.114C256.813 139.286 257.649 139.301 257.649 139.458C257.649 139.614 257.087 139.934 256.837 139.934C256.586 139.934 255.07 139.841 254.976 139.934C254.883 140.028 255.297 140.614 255.711 140.927C255.906 141.075 256.602 141.317 257.048 141.317C258.134 141.317 259.705 140.981 259.908 140.864C260.291 140.63 261.94 139.903 261.94 139.903" fill="#FC8975"/>
<path d="M268.067 104.954C268.067 104.954 275.469 105.423 278.986 112.26C282.503 119.096 281.401 133.668 279.251 135.817C277.102 137.965 260.729 140.614 260.729 140.614L260.103 139.114L271.631 131.91C271.631 131.91 268.044 119.878 268.044 114.994" fill="#4042E2"/>
<path d="M263.566 106.103C264.097 106.634 264.324 107.392 264.84 108.478C267.301 107.665 268.067 104.954 268.067 104.954L267.083 103.79C267.083 103.79 265.152 105.79 263.566 106.103Z" fill="url(#paint19_linear_86_2129)"/>
<path d="M263.566 106.103C263.089 106.579 262.651 107.267 262.331 108.111C261.706 107.486 261.244 105.228 261.307 104.954C261.612 104.478 262.331 103.657 262.331 103.657C262.331 103.657 262.495 105.032 263.566 106.095V106.103Z" fill="url(#paint20_linear_86_2129)"/>
<path d="M48.2572 221.677C48.2572 221.677 43.1459 223.224 43.1459 224.388C43.1459 225.06 50.6565 224.881 51.1098 224.428C51.8367 223.701 50.5471 221.513 50.5471 221.513L48.2572 221.677Z" fill="#352E73"/>
<path d="M48.2572 218.419V221.779C48.2572 221.779 48.437 222.318 49.2029 222.38C49.9688 222.443 50.469 221.779 50.469 221.779L50.5471 217.575" fill="#FC8975"/>
<path d="M49.9532 126.113C46.5144 130.558 42.4816 143.122 42.4816 166.992C42.4816 183.861 47.9524 219.177 47.9524 219.177L51.0786 219.435C61.0746 156.303 57.6983 156.952 60.1992 145.732C61.7623 138.7 58.5893 120.964 58.5893 120.964" fill="url(#paint21_linear_86_2129)"/>
<path style="mix-blend-mode:multiply" opacity="0.35" d="M58.2297 165.757C58.2297 165.757 56.0727 153.78 56.0727 151.334C55.1426 156.233 55.1426 162.57 56.0727 167.023C56.7604 170.289 57.4716 173.485 57.4716 173.485L58.2297 165.757Z" fill="url(#paint22_linear_86_2129)"/>
<path d="M47.8195 218.302V219.638C47.8195 219.638 51.0863 220.185 51.0863 219.982C51.0863 219.779 51.2348 218.442 51.2348 218.442L47.8195 218.294V218.302Z" fill="#75A1E9"/>
<path d="M75.5332 221.677C75.5332 221.677 80.6445 223.224 80.6445 224.388C80.6445 225.06 73.1338 224.881 72.6805 224.428C71.9537 223.701 73.2432 221.513 73.2432 221.513L75.5332 221.677Z" fill="#352E73"/>
<path d="M74.9627 218.419L75.5332 221.779C75.5332 221.779 75.3534 222.318 74.5875 222.38C73.8216 222.443 73.3214 221.779 73.3214 221.779L72.6649 217.575" fill="#FC8975"/>
<path d="M66.5844 124.112C69.9685 129.808 75.9786 141.552 75.9786 165.414C75.9786 182.282 75.5332 219.161 75.5332 219.161L72.8525 219.435C64.2164 195.331 57.0261 164.617 55.338 146.724C54.6659 139.551 55.9554 120.964 55.9554 120.964" fill="url(#paint23_linear_86_2129)"/>
<path style="mix-blend-mode:multiply" opacity="0.35" d="M66.983 124.792C63.9662 123.823 59.8084 122.878 55.8772 122.159C55.8694 122.3 55.8616 122.44 55.8459 122.604L49.9531 126.12C49.2497 127.027 48.5307 128.269 47.8195 129.879C49.5701 130.582 52.0554 131.277 55.377 131.574C60.2539 132.012 66.3421 131.058 69.4683 129.597C68.593 127.683 67.7411 126.105 66.983 124.8V124.792Z" fill="url(#paint24_linear_86_2129)"/>
<path d="M75.9787 218.052V219.388C75.9787 219.388 72.5477 219.935 72.5477 219.732C72.5477 219.529 72.3914 218.193 72.3914 218.193L75.9787 218.044V218.052Z" fill="#75A1E9"/>
<path d="M93.4307 111.549L94.5405 110.947C94.5405 110.947 94.7202 110.189 95.1735 109.353C95.3767 108.978 96.0254 108.064 96.2208 108.064C96.4162 108.064 95.9941 109.017 96.0801 109.017C96.1661 109.017 97.6198 107.478 97.8777 107.658C98.0105 107.744 96.5959 109.228 96.5959 109.228C96.5959 109.228 98.0809 107.587 98.2606 107.775C98.4404 107.962 96.9554 109.486 96.9554 109.486C96.9554 109.486 98.331 108.017 98.4795 108.173C98.6358 108.33 97.2602 109.744 97.2602 109.744C97.2602 109.744 98.5107 108.501 98.5654 108.634C98.6514 108.845 97.9246 109.775 96.7132 110.986C96.5021 111.197 95.6893 111.83 95.6346 111.885C95.5799 111.939 94.3607 113.213 94.3607 113.213" fill="#FC8975"/>
<path d="M95.994 109.236C96.0097 109.603 96.0331 110.002 95.9315 110.361C95.8299 110.72 95.5642 111.002 95.2985 111.267C95.2516 111.314 95.3141 111.392 95.3688 111.361C95.7127 111.15 95.9784 110.83 96.0878 110.439C96.1973 110.049 96.1425 109.627 96.0878 109.22C96.0878 109.166 95.9862 109.181 95.9862 109.236H95.994Z" fill="#CC6658"/>
<path d="M21.0671 90.4761L20.2934 89.4839C20.2934 89.4839 20.434 88.7181 20.3481 87.7727C20.3168 87.3508 20.0823 86.2491 19.9026 86.171C19.7228 86.0929 19.7306 87.1321 19.6525 87.1008C19.5743 87.0695 18.8553 85.0772 18.5505 85.1318C18.3942 85.1553 19.0976 87.0852 19.0976 87.0852C19.0976 87.0852 18.3942 84.9912 18.1519 85.085C17.9096 85.1787 18.6599 87.1711 18.6599 87.1711C18.6599 87.1711 17.9878 85.2725 17.7846 85.3584C17.5814 85.4366 18.277 87.2805 18.277 87.2805C18.277 87.2805 17.6283 85.6397 17.5267 85.7491C17.3626 85.9054 17.6517 87.0461 18.2848 88.64C18.3942 88.9135 18.8866 89.8198 18.9178 89.8902C18.9491 89.9605 19.5509 91.6169 19.5509 91.6169" fill="#FC8975"/>
<path d="M19.5431 87.2806C19.3321 87.6322 19.1211 87.9838 19.0585 88.3979C18.996 88.812 19.1211 89.187 19.3477 89.5152C19.379 89.5621 19.4806 89.5386 19.4571 89.4683C19.3243 89.1245 19.1914 88.7729 19.2383 88.3979C19.2852 88.0229 19.4649 87.6634 19.6369 87.3275C19.6681 87.2728 19.5822 87.2181 19.5509 87.2728L19.5431 87.2806Z" fill="#CC6658"/>
<path d="M94.2122 111.08C94.2122 111.08 83.0126 115.205 80.4647 115.205C78.3624 115.205 74.7907 109.533 69.8357 105.665C66.7486 103.259 63.2629 101.946 63.2629 101.946L53.9156 101.751C52.1571 101.751 48.6479 101.993 45.4201 102.431C40.7699 103.063 36.4089 102.852 34.3769 101.946C30.4535 100.188 20.6295 89.6324 20.6295 89.6324C20.6295 89.6324 19.6994 89.437 18.8475 90.2809C18.8475 90.8044 23.9041 105.236 30.5707 109.556C35.4789 112.736 42.6222 113.26 47.077 113.229V116.198C47.077 117.666 45.3264 124.886 47.3975 126.949C49.2966 128.847 56.5572 129.09 59.3864 129.09C63.5833 129.09 67.8818 128.425 68.9604 126.949C69.4996 126.214 69.4215 122.925 69.2495 119.909C72.6102 122.026 75.6504 124.128 79.5269 124.128C86.7874 124.128 95.3298 112.775 95.3298 112.775L94.2122 111.064V111.08Z" fill="#4F52FF"/>
<path style="mix-blend-mode:multiply" opacity="0.75" d="M69.3433 122.018L69.2495 119.925L66.1077 116.745L69.3433 122.018Z" fill="url(#paint25_linear_86_2129)"/>
<path style="mix-blend-mode:multiply" opacity="0.75" d="M47.0771 113.228C47.0771 112.853 47.7101 109.259 47.7101 108.689C46.7645 110.72 45.342 113.213 45.342 113.213L47.0849 113.228H47.0771Z" fill="url(#paint26_linear_86_2129)"/>
<path d="M61.6607 85.1396C64.3023 86.7804 63.849 90.148 64.9197 92.2498C65.6934 93.7655 66.897 95.0547 67.0143 96.8596C67.1393 98.8286 64.5758 99.7505 63.2081 99.5396C60.5196 99.1255 58.214 100.493 55.5021 100.165C53.6576 99.938 54.3532 99.0161 53.1496 97.6019C52.4228 96.7502 52.0633 95.6329 51.9695 94.5156C51.8757 93.3983 52.0164 92.281 52.2118 91.1793" fill="#F42A73"/>
<path d="M56.7838 96.5549L56.2602 101.391L53.9155 101.751C53.9155 101.751 55.549 104.704 58.1593 104.704C60.7697 104.704 63.2706 101.946 63.2706 101.946L60.7228 101.157L59.7537 94.3594" fill="#FC8975"/>
<path d="M52.9309 88.6635C52.7746 90.2808 52.6261 91.9294 52.9778 93.5155C53.3295 95.1016 54.2829 96.6408 55.7679 97.2893C56.44 97.5862 57.1825 97.68 57.9171 97.7113C59.152 97.7659 60.4728 97.6253 61.4497 96.8674C62.5986 95.9923 63.0441 94.4297 62.9503 92.992C62.8565 91.5544 62.2938 90.187 61.7467 88.8588C61.2309 87.6165 60.7151 86.3742 60.2071 85.1318" fill="#FC8975"/>
<path d="M46.9051 95.1094C46.3893 95.7423 45.7718 96.3752 45.6859 97.1878C45.5999 97.9847 46.1157 98.7895 46.8504 99.1255C47.4991 99.4224 48.1165 99.3208 48.7964 99.2739C49.5467 99.2192 50.3126 99.2192 51.0551 99.3677C51.6882 99.4927 52.2899 99.7193 52.9152 99.899C53.8296 100.157 54.7987 100.305 55.7288 100.141C55.8929 100.11 56.0726 100.063 56.143 99.9146C56.2211 99.7505 56.143 99.563 56.057 99.3989C55.4787 98.1801 55.4708 96.7659 55.5803 95.422C55.635 94.7266 55.7209 94.039 55.9085 93.3671C56.0648 92.8045 56.2993 92.2732 56.5416 91.7419C57.0027 90.734 57.5732 89.7573 58.0109 88.7416C58.4329 87.7259 58.7064 86.1632 60.121 86.3663C61.0355 86.4992 61.4262 87.9759 62.0358 88.8744C62.9424 87.8431 63.9585 87.218 62.0358 84.7724C61.0745 83.5457 59.4333 83.6161 57.9796 83.8817C57.159 83.827 57.2215 83.5067 56.4009 83.452C53.728 83.2723 50.8597 85.085 49.6874 87.5305C48.3822 90.2652 48.687 92.9139 46.9051 95.1094Z" fill="#F42A73"/>
<path d="M56.0727 95.9689C55.8695 95.9533 55.6663 95.9221 55.4631 95.8674C55.002 95.7502 54.3533 95.4923 53.9078 94.8751C53.7437 94.6485 53.6655 94.4453 53.6577 94.2344C53.6577 94.1797 53.6968 94.1406 53.7515 94.1406C53.8062 94.1406 53.8453 94.1797 53.8453 94.2344C53.8453 94.4063 53.9234 94.5782 54.0563 94.7657C54.4705 95.3361 55.0723 95.5861 55.51 95.6877C56.0883 95.8283 56.7136 95.8127 57.2528 95.7814C57.3075 95.7814 57.3466 95.8205 57.3544 95.8674C57.3544 95.9221 57.3154 95.9611 57.2685 95.9689C56.9011 95.9924 56.4947 96.0002 56.0883 95.9689H56.0727Z" fill="#081466"/>
<path d="M57.6748 95.6408C57.5185 95.5549 57.3153 95.5549 57.1433 95.6095C56.5416 95.7971 57.1902 96.5628 57.7373 96.1721C57.7842 96.1408 57.8233 96.1018 57.8467 96.0549C57.9249 95.9143 57.8311 95.7267 57.6748 95.6408Z" fill="#081466"/>
<path d="M52.079 89.6714C52.2197 88.3666 52.712 86.8664 53.5327 85.8429C54.5877 84.5303 55.9945 83.4442 57.3466 83.4442C58.4799 83.4442 59.0426 83.702 59.0426 83.702C57.6514 84.0302 56.4556 84.6943 55.3537 85.8351C54.2517 86.9758 53.603 88.5385 53.5717 90.1246" fill="#081466"/>
<path d="M55.4943 91.8434C55.6506 93.3202 54.6658 94.6406 53.2903 94.7812C51.9226 94.9219 50.6878 93.8358 50.5314 92.3591C50.3751 90.8824 51.3599 89.562 52.7354 89.4213C54.1031 89.2807 55.338 90.3667 55.4943 91.8434Z" fill="#081466"/>
<path d="M54.322 92.0779C54.4314 93.0936 53.7905 93.9922 52.8918 94.0859C51.993 94.1797 51.188 93.4296 51.0786 92.4139C50.9692 91.3982 51.61 90.4996 52.5088 90.4059C53.4076 90.3121 54.2126 91.0622 54.322 92.0779Z" fill="#2D4CBA"/>
<path d="M208.787 27.6025L204.864 29.2432C204.426 29.423 204.34 30.0011 204.692 30.3137L207.505 32.7358C207.857 33.0405 208.412 32.8686 208.529 32.4233L209.639 28.3603C209.78 27.8525 209.272 27.3993 208.779 27.6103L208.787 27.6025Z" stroke="#CFE0F5" stroke-miterlimit="10"/>
<path d="M39.9961 78.8655L41.145 82.9597C41.2701 83.4129 41.8328 83.577 42.1845 83.2566L44.9355 80.7564C45.2794 80.4438 45.1778 79.8735 44.748 79.7016L40.848 78.0998C40.3557 77.8967 39.8555 78.3499 39.9961 78.8577V78.8655Z" stroke="#CFE0F5" stroke-miterlimit="10"/>
<path d="M289.771 128.035L292.788 125.034C293.124 124.698 292.991 124.136 292.545 123.98L289.028 122.8C288.583 122.651 288.137 123.011 288.192 123.48L288.692 127.66C288.755 128.183 289.396 128.41 289.771 128.035Z" stroke="#CFE0F5" stroke-miterlimit="10"/>
<path d="M275.64 81.5378L276.75 85.6476C276.875 86.1007 277.43 86.2726 277.79 85.9601L280.564 83.4911C280.916 83.1786 280.822 82.616 280.392 82.4285L276.508 80.7877C276.023 80.5845 275.508 81.0299 275.648 81.5378H275.64Z" stroke="#CFE0F5" stroke-miterlimit="10"/>
<path d="M262.663 73.1138L260.732 74.5894L262.208 76.52L264.139 75.0445L262.663 73.1138Z" fill="#CFE0F5"/>
<path d="M245.125 56.4189L242.697 56.527L242.805 58.9545L245.233 58.8464L245.125 56.4189Z" fill="#CFE0F5"/>
<path d="M88.8783 87.9258L86.6135 88.8081L87.4961 91.0722L89.7608 90.1899L88.8783 87.9258Z" fill="#CFE0F5"/>
<path d="M113.051 29.5341L110.781 28.6644L109.912 30.9334L112.181 31.803L113.051 29.5341Z" fill="#CFE0F5"/>
<path d="M17.3907 150.066L14.9625 150.174L15.0707 152.601L17.4989 152.493L17.3907 150.066Z" fill="#CFE0F5"/>
<defs>
<linearGradient id="paint0_linear_86_2129" x1="158.698" y1="237.03" x2="158.698" y2="210.426" gradientUnits="userSpaceOnUse">
<stop stop-color="#FCF5F1"/>
<stop offset="0.48" stop-color="#FCEEEC"/>
<stop offset="1" stop-color="#FCE1E3"/>
</linearGradient>
<linearGradient id="paint1_linear_86_2129" x1="261.119" y1="210.426" x2="261.119" y2="112.604" gradientUnits="userSpaceOnUse">
<stop stop-color="#466DE5"/>
<stop offset="1" stop-color="#78BFFF"/>
</linearGradient>
<linearGradient id="paint2_linear_86_2129" x1="279.408" y1="-0.0019481" x2="279.408" y2="142.2" gradientUnits="userSpaceOnUse">
<stop stop-color="#466DE5"/>
<stop offset="1" stop-color="#78BFFF"/>
</linearGradient>
<linearGradient id="paint3_linear_86_2129" x1="110.234" y1="194.034" x2="65.4245" y2="149.212" gradientUnits="userSpaceOnUse">
<stop stop-color="#466DE5"/>
<stop offset="1" stop-color="#78BFFF"/>
</linearGradient>
<linearGradient id="paint4_linear_86_2129" x1="45.9203" y1="-0.00184412" x2="45.9203" y2="126.308" gradientUnits="userSpaceOnUse">
<stop stop-color="#466DE5"/>
<stop offset="1" stop-color="#78BFFF"/>
</linearGradient>
<linearGradient id="paint5_linear_86_2129" x1="28.1476" y1="209.301" x2="31.4583" y2="159.703" gradientUnits="userSpaceOnUse">
<stop stop-color="#466DE5"/>
<stop offset="1" stop-color="#78BFFF"/>
</linearGradient>
<linearGradient id="paint6_linear_86_2129" x1="26.5223" y1="212.793" x2="40.8108" y2="188.037" gradientUnits="userSpaceOnUse">
<stop stop-color="#466DE5"/>
<stop offset="1" stop-color="#78BFFF"/>
</linearGradient>
<linearGradient id="paint7_linear_86_2129" x1="127.9" y1="165.823" x2="125.721" y2="84.7425" gradientUnits="userSpaceOnUse">
<stop stop-color="#29225E"/>
<stop offset="1" stop-color="#3F368C"/>
</linearGradient>
<linearGradient id="paint8_linear_86_2129" x1="119.746" y1="166.05" x2="117.567" y2="84.9617" gradientUnits="userSpaceOnUse">
<stop stop-color="#29225E"/>
<stop offset="1" stop-color="#3F368C"/>
</linearGradient>
<linearGradient id="paint9_linear_86_2129" x1="215.68" y1="239.406" x2="119.324" y2="72.4745" gradientUnits="userSpaceOnUse">
<stop stop-color="#B3D3F4"/>
<stop offset="1" stop-color="#D3DCED"/>
</linearGradient>
<linearGradient id="paint10_linear_86_2129" x1="172.89" y1="205.34" x2="172.89" y2="67.3566" gradientUnits="userSpaceOnUse">
<stop stop-color="#FFD5A7"/>
<stop offset="0.37" stop-color="#FFD7AA"/>
<stop offset="0.65" stop-color="#FFDDB3"/>
<stop offset="0.91" stop-color="#FFE8C3"/>
<stop offset="1" stop-color="#FFEECC"/>
</linearGradient>
<linearGradient id="paint11_linear_86_2129" x1="215.68" y1="239.406" x2="130.144" y2="91.2136" gradientUnits="userSpaceOnUse">
<stop stop-color="#CDE8FF"/>
<stop offset="1" stop-color="#EEE7E9"/>
</linearGradient>
<linearGradient id="paint12_linear_86_2129" x1="214.781" y1="257.618" x2="131.031" y2="173.844" gradientUnits="userSpaceOnUse">
<stop stop-color="#CDE8FF"/>
<stop offset="1" stop-color="#EEE7E9"/>
</linearGradient>
<linearGradient id="paint13_linear_86_2129" x1="206.849" y1="223.193" x2="188.701" y2="191.756" gradientUnits="userSpaceOnUse">
<stop stop-color="#466DE5"/>
<stop offset="1" stop-color="#78BFFF"/>
</linearGradient>
<linearGradient id="paint14_linear_86_2129" x1="260.971" y1="220.177" x2="260.971" y2="143.599" gradientUnits="userSpaceOnUse">
<stop stop-color="#29225E"/>
<stop offset="1" stop-color="#3F368C"/>
</linearGradient>
<linearGradient id="paint15_linear_86_2129" x1="271.022" y1="220.177" x2="271.022" y2="143.599" gradientUnits="userSpaceOnUse">
<stop stop-color="#29225E"/>
<stop offset="1" stop-color="#3F368C"/>
</linearGradient>
<linearGradient id="paint16_linear_86_2129" x1="252.335" y1="113.291" x2="253.015" y2="113.291" gradientUnits="userSpaceOnUse">
<stop stop-color="#FCC73C"/>
<stop offset="1" stop-color="#FC7A3C"/>
</linearGradient>
<linearGradient id="paint17_linear_86_2129" x1="259.783" y1="143.075" x2="237.953" y2="121.239" gradientUnits="userSpaceOnUse">
<stop stop-color="#5789EE"/>
<stop offset="1" stop-color="#78BFFF"/>
</linearGradient>
<linearGradient id="paint18_linear_86_2129" x1="254.961" y1="124.253" x2="280.088" y2="124.253" gradientUnits="userSpaceOnUse">
<stop stop-color="#FCC73C"/>
<stop offset="1" stop-color="#FC7A3C"/>
</linearGradient>
<linearGradient id="paint19_linear_86_2129" x1="265.817" y1="108.478" x2="265.817" y2="103.79" gradientUnits="userSpaceOnUse">
<stop stop-color="#FCAE3C"/>
<stop offset="1" stop-color="#FC7A3C"/>
</linearGradient>
<linearGradient id="paint20_linear_86_2129" x1="262.432" y1="108.111" x2="262.432" y2="103.657" gradientUnits="userSpaceOnUse">
<stop stop-color="#FCAE3C"/>
<stop offset="1" stop-color="#FC7A3C"/>
</linearGradient>
<linearGradient id="paint21_linear_86_2129" x1="51.5553" y1="219.435" x2="51.5553" y2="120.964" gradientUnits="userSpaceOnUse">
<stop stop-color="#29225E"/>
<stop offset="1" stop-color="#3F368C"/>
</linearGradient>
<linearGradient id="paint22_linear_86_2129" x1="56.8073" y1="173.485" x2="56.8073" y2="151.334" gradientUnits="userSpaceOnUse">
<stop stop-color="#29225E"/>
<stop offset="1" stop-color="#3F368C"/>
</linearGradient>
<linearGradient id="paint23_linear_86_2129" x1="65.5606" y1="219.435" x2="65.5606" y2="120.964" gradientUnits="userSpaceOnUse">
<stop stop-color="#29225E"/>
<stop offset="1" stop-color="#3F368C"/>
</linearGradient>
<linearGradient id="paint24_linear_86_2129" x1="58.6439" y1="131.668" x2="58.6439" y2="122.151" gradientUnits="userSpaceOnUse">
<stop stop-color="#29225E"/>
<stop offset="1" stop-color="#3F368C"/>
</linearGradient>
<linearGradient id="paint25_linear_86_2129" x1="67.7255" y1="118.417" x2="67.7255" y2="122.097" gradientUnits="userSpaceOnUse">
<stop stop-color="#FCC73C"/>
<stop offset="1" stop-color="#FC7A3C"/>
</linearGradient>
<linearGradient id="paint26_linear_86_2129" x1="45.3342" y1="110.963" x2="47.7023" y2="110.963" gradientUnits="userSpaceOnUse">
<stop stop-color="#FCC73C"/>
<stop offset="1" stop-color="#FC7A3C"/>
</linearGradient>
</defs>
</svg>
