<?xml version="1.0" encoding="UTF-8"?>
<!DOCTYPE svg PUBLIC "-//W3C//DTD SVG 1.1//EN" "http://www.w3.org/Graphics/SVG/1.1/DTD/svg11.dtd">
<svg xmlns="http://www.w3.org/2000/svg" version="1.1" width="594px" height="170px" style="shape-rendering:geometricPrecision; text-rendering:geometricPrecision; image-rendering:optimizeQuality; fill-rule:evenodd; clip-rule:evenodd" xmlns:xlink="http://www.w3.org/1999/xlink">
<g><path style="opacity:0.798" fill="#000000" d="M 467.5,0.5 C 468.873,0.343323 470.207,0.50999 471.5,1C 474.959,4.23658 478.959,6.73658 483.5,8.5C 483.833,9 484.167,9.5 484.5,10C 482.854,12.595 482.187,15.4284 482.5,18.5C 474.167,18.5 465.833,18.5 457.5,18.5C 457.5,16.1667 457.5,13.8333 457.5,11.5C 456.5,11.5 455.5,11.5 454.5,11.5C 454.281,10.325 454.614,9.32496 455.5,8.5C 460.255,6.80161 464.255,4.13494 467.5,0.5 Z M 462.5,8.5 C 467.752,9.28492 473.085,9.78492 478.5,10C 472.5,10.6667 466.5,10.6667 460.5,10C 461.416,9.72158 462.082,9.22158 462.5,8.5 Z"/></g>
<g><path style="opacity:0.972" fill="#7ec240" d="M 69.5,1.5 C 72.7239,1.20349 75.7239,1.87015 78.5,3.5C 79.4999,37.4935 79.8332,71.4935 79.5,105.5C 84.147,106.296 88.8137,106.963 93.5,107.5C 93.5,111.167 93.5,114.833 93.5,118.5C 73.8333,118.5 54.1667,118.5 34.5,118.5C 34.5,114.833 34.5,111.167 34.5,107.5C 39.5,106.833 44.5,106.167 49.5,105.5C 49.6666,79.8312 49.5,54.1645 49,28.5C 43.6149,27.2228 38.1149,26.5562 32.5,26.5C 32.5,22.8333 32.5,19.1667 32.5,15.5C 45.2081,11.6006 57.5414,6.93397 69.5,1.5 Z"/></g>
<g><path style="opacity:0.967" fill="#7ec240" d="M 108.5,1.5 C 131.952,-2.2153 145.785,7.45137 150,30.5C 150.5,55.4978 150.667,80.4978 150.5,105.5C 155.5,106.167 160.5,106.833 165.5,107.5C 165.5,111.167 165.5,114.833 165.5,118.5C 145.5,118.5 125.5,118.5 105.5,118.5C 105.5,114.833 105.5,111.167 105.5,107.5C 110.5,106.833 115.5,106.167 120.5,105.5C 120.667,82.8309 120.5,60.1642 120,37.5C 117.157,22.659 108.657,18.159 94.5,24C 91.5875,25.3726 88.7542,26.8726 86,28.5C 85.3333,23.5 85.3333,18.5 86,13.5C 92.7943,8.02161 100.294,4.02161 108.5,1.5 Z"/></g>
<g><path style="opacity:0.958" fill="#7ec240" d="M 179.5,1.5 C 187.903,1.13008 196.236,1.63008 204.5,3C 221.541,11.5968 226.375,24.7635 219,42.5C 213.087,51.0842 206.42,59.0842 199,66.5C 196.083,70.6661 193.416,74.9994 191,79.5C 190.667,65.8333 190.333,52.1667 190,38.5C 189.036,24.8812 181.87,19.7145 168.5,23C 164.839,23.829 161.505,25.329 158.5,27.5C 157.338,22.533 157.171,17.533 158,12.5C 164.629,7.60297 171.796,3.9363 179.5,1.5 Z"/></g>
<g><path style="opacity:0.974" fill="#0078c1" d="M 287.5,1.5 C 290.545,1.34184 293.379,2.00851 296,3.5C 296.5,37.4984 296.667,71.4984 296.5,105.5C 301.147,106.296 305.814,106.963 310.5,107.5C 310.5,111.167 310.5,114.833 310.5,118.5C 295.833,118.5 281.167,118.5 266.5,118.5C 266.667,88.4981 266.5,58.4981 266,28.5C 260.912,27.4665 255.745,26.6332 250.5,26C 249.383,22.9269 249.216,19.7603 250,16.5C 262.543,11.3798 275.043,6.3798 287.5,1.5 Z"/></g>
<g><path style="opacity:0.799" fill="#000000" d="M 360.5,1.5 C 363.932,1.24788 364.932,2.58121 363.5,5.5C 360.823,6.07418 358.157,6.74085 355.5,7.5C 359.107,8.48922 362.774,8.82256 366.5,8.5C 366.5,9.83333 366.5,11.1667 366.5,12.5C 364.801,12.3398 363.134,12.5065 361.5,13C 364.009,14.4213 366.343,16.0879 368.5,18C 367.333,21.1667 365.833,21.3333 364,18.5C 363.501,22.8206 363.334,27.1539 363.5,31.5C 356.5,31.5 349.5,31.5 342.5,31.5C 342.666,27.1539 342.499,22.8206 342,18.5C 340.989,19.3366 339.822,19.67 338.5,19.5C 339.614,16.225 341.947,14.0583 345.5,13C 343.527,12.5045 341.527,12.3379 339.5,12.5C 339.5,11.1667 339.5,9.83333 339.5,8.5C 343.182,8.6653 346.848,8.49863 350.5,8C 346.707,8.09226 343.373,7.09226 340.5,5C 341.167,4.66667 341.833,4.33333 342.5,4C 348.721,3.72912 354.721,2.89579 360.5,1.5 Z M 349.5,14.5 C 350.773,15.0768 350.773,15.7435 349.5,16.5C 348.537,16.0302 348.537,15.3635 349.5,14.5 Z M 355.5,14.5 C 356.766,15.0899 358.099,15.5899 359.5,16C 357.537,16.8442 356.204,16.3442 355.5,14.5 Z M 347.5,19.5 C 351.5,19.5 355.5,19.5 359.5,19.5C 359.5,20.5 359.5,21.5 359.5,22.5C 355.5,22.5 351.5,22.5 347.5,22.5C 347.5,21.5 347.5,20.5 347.5,19.5 Z M 347.5,25.5 C 351.555,25.1758 355.555,25.5091 359.5,26.5C 357.5,26.8333 355.5,27.1667 353.5,27.5C 351.048,27.4609 349.048,26.7943 347.5,25.5 Z"/></g>
<g><path style="opacity:0.773" fill="#000000" d="M 379.5,1.5 C 381.129,2.62529 382.629,3.95862 384,5.5C 385.011,4.66337 386.178,4.33003 387.5,4.5C 387.5,3.5 387.5,2.5 387.5,1.5C 389.167,1.5 390.833,1.5 392.5,1.5C 392.5,2.5 392.5,3.5 392.5,4.5C 393.833,4.5 395.167,4.5 396.5,4.5C 396.5,3.5 396.5,2.5 396.5,1.5C 398.167,1.5 399.833,1.5 401.5,1.5C 401.5,2.5 401.5,3.5 401.5,4.5C 402.5,4.5 403.5,4.5 404.5,4.5C 404.5,5.83333 404.5,7.16667 404.5,8.5C 403.325,8.28099 402.325,8.61432 401.5,9.5C 402.689,10.4287 404.022,10.762 405.5,10.5C 405.5,11.5 405.5,12.5 405.5,13.5C 404.325,13.281 403.325,13.6143 402.5,14.5C 403.833,16.1667 405.167,17.8333 406.5,19.5C 404.994,20.7472 403.494,20.7472 402,19.5C 401.506,21.1341 401.34,22.8008 401.5,24.5C 402.833,24.5 404.167,24.5 405.5,24.5C 405.556,27.5608 404.222,29.7275 401.5,31C 396.442,32.0104 391.609,31.5104 387,29.5C 386.667,26.1667 386.333,22.8333 386,19.5C 384.185,23.7958 381.852,27.7958 379,31.5C 378.25,30.8742 377.416,30.3742 376.5,30C 378.208,26.7073 379.208,23.2073 379.5,19.5C 381.359,19.5391 382.692,18.7058 383.5,17C 381.058,16.0602 378.725,14.8935 376.5,13.5C 378.035,9.92564 380.201,9.59231 383,12.5C 384.204,11.1414 385.704,10.1414 387.5,9.5C 383.369,9.27479 380.035,7.60812 377.5,4.5C 378.193,3.48224 378.859,2.48224 379.5,1.5 Z M 392.5,8.5 C 393.978,8.23798 395.311,8.57131 396.5,9.5C 395.833,9.83333 395.167,10.1667 394.5,10.5C 393.287,10.2528 392.62,9.58617 392.5,8.5 Z M 384.5,15.5 C 384.517,13.9719 385.184,13.4719 386.5,14C 385.956,14.7172 385.289,15.2172 384.5,15.5 Z M 392.5,13.5 C 394.429,13.2308 396.095,13.7308 397.5,15C 395.5,15.6667 393.5,15.6667 391.5,15C 392.056,14.6174 392.389,14.1174 392.5,13.5 Z M 390.5,18.5 C 392.924,18.1924 395.257,18.5258 397.5,19.5C 396.333,19.8333 395.167,20.1667 394,20.5C 392.319,20.3917 391.152,19.7251 390.5,18.5 Z M 390.5,24.5 C 393.898,24.1796 397.232,24.513 400.5,25.5C 400.291,26.086 399.957,26.586 399.5,27C 396.833,27.6667 394.167,27.6667 391.5,27C 390.748,26.3292 390.414,25.4959 390.5,24.5 Z"/></g>
<g><path style="opacity:0.822" fill="#000000" d="M 421.5,1.5 C 423.167,1.5 424.833,1.5 426.5,1.5C 426.5,2.5 426.5,3.5 426.5,4.5C 432.387,3.37574 438.721,2.70907 445.5,2.5C 445.129,6.64913 444.129,10.6491 442.5,14.5C 445.45,18.0942 446.117,22.0942 444.5,26.5C 442.591,27.3482 440.591,27.6816 438.5,27.5C 438.5,26.1667 438.5,24.8333 438.5,23.5C 439.5,23.5 440.5,23.5 441.5,23.5C 440.767,20.3773 439.767,17.3773 438.5,14.5C 438.782,11.8692 439.449,9.36917 440.5,7C 439.552,6.51722 438.552,6.35055 437.5,6.5C 437.5,14.8333 437.5,23.1667 437.5,31.5C 436.167,31.5 434.833,31.5 433.5,31.5C 433.977,22.4096 433.644,16.743 432.5,14.5C 430.473,14.3379 428.473,14.5045 426.5,15C 428.134,15.4935 429.801,15.6602 431.5,15.5C 431.5,20.8333 431.5,26.1667 431.5,31.5C 427.167,31.5 422.833,31.5 418.5,31.5C 418.5,27.8333 418.5,24.1667 418.5,20.5C 416.897,20.6882 415.563,20.1882 414.5,19C 415.984,17.4263 417.651,16.093 419.5,15C 418.207,14.51 416.873,14.3433 415.5,14.5C 415.5,13.1667 415.5,11.8333 415.5,10.5C 417.5,10.5 419.5,10.5 421.5,10.5C 421.5,9.5 421.5,8.5 421.5,7.5C 420.167,7.5 418.833,7.5 417.5,7.5C 417.5,6.5 417.5,5.5 417.5,4.5C 418.833,4.5 420.167,4.5 421.5,4.5C 421.5,3.5 421.5,2.5 421.5,1.5 Z M 422.5,18.5 C 424.167,18.5 425.833,18.5 427.5,18.5C 427.5,19.5 427.5,20.5 427.5,21.5C 425.833,21.5 424.167,21.5 422.5,21.5C 422.5,20.5 422.5,19.5 422.5,18.5 Z M 422.5,25.5 C 424.288,25.2148 425.955,25.5481 427.5,26.5C 426.667,26.8333 425.833,27.1667 425,27.5C 423.624,27.3158 422.791,26.6491 422.5,25.5 Z"/></g>
<g><path style="opacity:0.758" fill="#000000" d="M 505.5,1.5 C 507.167,1.5 508.833,1.5 510.5,1.5C 510.5,4.16667 510.5,6.83333 510.5,9.5C 514.167,9.5 517.833,9.5 521.5,9.5C 521.5,10.8333 521.5,12.1667 521.5,13.5C 518.102,13.1796 514.768,13.513 511.5,14.5C 513.672,20.3389 517.339,25.0056 522.5,28.5C 522.113,29.7199 521.28,30.3865 520,30.5C 514.679,27.846 510.679,23.846 508,18.5C 505.204,24.6511 500.704,28.4844 494.5,30C 494.167,29.6667 493.833,29.3333 493.5,29C 498.478,25.232 502.145,20.3987 504.5,14.5C 501.232,13.513 497.898,13.1796 494.5,13.5C 494.5,12.1667 494.5,10.8333 494.5,9.5C 498.167,9.5 501.833,9.5 505.5,9.5C 505.5,6.83333 505.5,4.16667 505.5,1.5 Z"/></g>
<g><path style="opacity:0.744" fill="#000000" d="M 538.5,1.5 C 544.918,1.43808 551.584,1.77141 558.5,2.5C 558.694,8.5642 559.361,14.5642 560.5,20.5C 558.833,20.5 557.167,20.5 555.5,20.5C 555.5,19.1667 555.5,17.8333 555.5,16.5C 549.167,16.5 542.833,16.5 536.5,16.5C 536.5,17.8333 536.5,19.1667 536.5,20.5C 534.833,20.5 533.167,20.5 531.5,20.5C 532.393,14.8626 533.226,9.19596 534,3.5C 535.622,2.90109 537.122,2.23442 538.5,1.5 Z M 540.5,4.5 C 542.379,4.39318 542.712,4.89318 541.5,6C 540.167,6.66667 538.833,6.66667 537.5,6C 538.737,5.76791 539.737,5.26791 540.5,4.5 Z"/></g>
<g><path style="opacity:0.742" fill="#000000" d="M 537.5,17.5 C 543.167,17.5 548.833,17.5 554.5,17.5C 554.67,18.8221 554.337,19.9887 553.5,21C 555.81,21.4966 558.143,21.6633 560.5,21.5C 560.5,22.8333 560.5,24.1667 560.5,25.5C 556.5,25.5 552.5,25.5 548.5,25.5C 548.5,27.1667 548.5,28.8333 548.5,30.5C 545.5,30.5 542.5,30.5 539.5,30.5C 539.238,29.0222 539.571,27.6888 540.5,26.5C 541.812,27.4604 543.146,27.2937 544.5,26C 540.179,25.501 535.846,25.3343 531.5,25.5C 531.5,24.1667 531.5,22.8333 531.5,21.5C 536.179,21.6658 540.845,21.4992 545.5,21C 542.854,20.5026 540.187,20.3359 537.5,20.5C 537.5,19.5 537.5,18.5 537.5,17.5 Z"/></g>
<g><path style="opacity:0.792" fill="#000000" d="M 458.5,19.5 C 465.833,19.5 473.167,19.5 480.5,19.5C 480.5,23.5 480.5,27.5 480.5,31.5C 473.167,31.5 465.833,31.5 458.5,31.5C 458.5,27.5 458.5,23.5 458.5,19.5 Z"/></g>
<g><path style="opacity:0.955" fill="#0078c1" d="M 223.5,40.5 C 224.331,55.3277 224.831,70.3277 225,85.5C 226.948,99.7708 234.781,104.604 248.5,100C 252.269,98.4034 255.936,96.57 259.5,94.5C 260.662,99.467 260.829,104.467 260,109.5C 242.757,123.715 223.924,126.215 203.5,117C 193.619,108.334 190.119,97.5007 193,84.5C 195.29,77.9191 198.624,71.9191 203,66.5C 211.191,58.8199 218.024,50.1532 223.5,40.5 Z"/></g>
<g><path style="opacity:0.803" fill="#000000" d="M 366.5,40.5 C 371.287,40.1456 375.121,41.8123 378,45.5C 381.378,59.4553 376.212,64.622 362.5,61C 358.281,56.1004 357.448,50.6004 360,44.5C 361.792,42.372 363.958,41.0387 366.5,40.5 Z M 365.5,45.5 C 373.003,44.8526 375.503,48.186 373,55.5C 370.582,57.6801 367.916,58.0135 365,56.5C 362.965,52.7186 363.132,49.0519 365.5,45.5 Z"/></g>
<g><path style="opacity:0.791" fill="#000000" d="M 409.5,40.5 C 412.249,40.2739 414.916,40.6072 417.5,41.5C 418.429,42.6888 418.762,44.0222 418.5,45.5C 409.51,43.3249 406.01,46.6582 408,55.5C 410.118,58.2024 412.618,58.8691 415.5,57.5C 415.5,56.5 415.5,55.5 415.5,54.5C 413.833,54.5 412.167,54.5 410.5,54.5C 410.5,53.1667 410.5,51.8333 410.5,50.5C 413.5,50.5 416.5,50.5 419.5,50.5C 419.5,54.1667 419.5,57.8333 419.5,61.5C 405.201,65.033 399.701,59.6997 403,45.5C 404.603,42.9649 406.769,41.2982 409.5,40.5 Z"/></g>
<g><path style="opacity:0.816" fill="#000000" d="M 455.5,40.5 C 465.988,40.1582 470.154,45.1582 468,55.5C 465.818,61.2412 461.651,63.4078 455.5,62C 452.107,61.6065 449.94,59.7732 449,56.5C 446.72,49.0828 448.887,43.7495 455.5,40.5 Z M 455.5,45.5 C 460.768,44.1391 463.434,46.1391 463.5,51.5C 463.419,57.0224 460.752,58.8557 455.5,57C 452.875,53.1681 452.875,49.3348 455.5,45.5 Z"/></g>
<g><path style="opacity:0.784" fill="#000000" d="M 499.5,40.5 C 502.249,40.2739 504.916,40.6072 507.5,41.5C 508.429,42.6888 508.762,44.0222 508.5,45.5C 498.773,43.7196 495.273,47.3863 498,56.5C 500.041,57.4231 502.208,57.7564 504.5,57.5C 504.5,56.5 504.5,55.5 504.5,54.5C 503.167,54.5 501.833,54.5 500.5,54.5C 500.5,53.1667 500.5,51.8333 500.5,50.5C 503.5,50.5 506.5,50.5 509.5,50.5C 509.789,54.1064 509.456,57.6064 508.5,61C 496.039,64.8664 490.539,60.3664 492,47.5C 493.171,43.6765 495.671,41.3432 499.5,40.5 Z"/></g>
<g><path style="opacity:0.842" fill="#000000" d="M 338.5,41.5 C 340.167,41.5 341.833,41.5 343.5,41.5C 343.5,44.1667 343.5,46.8333 343.5,49.5C 345.833,49.5 348.167,49.5 350.5,49.5C 350.5,46.8333 350.5,44.1667 350.5,41.5C 352.167,41.5 353.833,41.5 355.5,41.5C 355.5,48.1667 355.5,54.8333 355.5,61.5C 353.833,61.5 352.167,61.5 350.5,61.5C 350.5,58.8333 350.5,56.1667 350.5,53.5C 348.167,53.5 345.833,53.5 343.5,53.5C 343.5,56.1667 343.5,58.8333 343.5,61.5C 341.833,61.5 340.167,61.5 338.5,61.5C 338.5,54.8333 338.5,48.1667 338.5,41.5 Z"/></g>
<g><path style="opacity:0.8" fill="#000000" d="M 381.5,41.5 C 383.527,41.3379 385.527,41.5045 387.5,42C 389.792,45.4162 391.959,48.9162 394,52.5C 394.499,48.8484 394.665,45.1817 394.5,41.5C 396.167,41.5 397.833,41.5 399.5,41.5C 399.5,48.1667 399.5,54.8333 399.5,61.5C 397.473,61.6621 395.473,61.4955 393.5,61C 391.208,57.5838 389.041,54.0838 387,50.5C 386.501,54.1516 386.335,57.8183 386.5,61.5C 384.833,61.5 383.167,61.5 381.5,61.5C 381.5,54.8333 381.5,48.1667 381.5,41.5 Z"/></g>
<g><path style="opacity:0.819" fill="#000000" d="M 430.5,41.5 C 432.167,41.5 433.833,41.5 435.5,41.5C 435.337,43.8568 435.503,46.1902 436,48.5C 438.209,46.6266 440.042,44.46 441.5,42C 443.833,41.3333 446.167,41.3333 448.5,42C 445.808,44.5572 443.475,47.3905 441.5,50.5C 443.833,53.8333 446.167,57.1667 448.5,60.5C 446.579,61.641 444.579,61.8077 442.5,61C 441.025,58.6908 439.358,56.5241 437.5,54.5C 436.914,54.7093 436.414,55.0426 436,55.5C 435.505,57.4727 435.338,59.4727 435.5,61.5C 433.833,61.5 432.167,61.5 430.5,61.5C 430.5,54.8333 430.5,48.1667 430.5,41.5 Z"/></g>
<g><path style="opacity:0.863" fill="#000000" d="M 471.5,41.5 C 473.604,41.2011 475.604,41.5344 477.5,42.5C 479.667,46.1667 481.833,49.8333 484,53.5C 484.499,49.5138 484.666,45.5138 484.5,41.5C 485.833,41.5 487.167,41.5 488.5,41.5C 488.5,48.1667 488.5,54.8333 488.5,61.5C 486.396,61.7989 484.396,61.4656 482.5,60.5C 480.667,57.5 478.833,54.5 477,51.5C 476.502,54.8168 476.335,58.1501 476.5,61.5C 474.833,61.5 473.167,61.5 471.5,61.5C 471.5,54.8333 471.5,48.1667 471.5,41.5 Z"/></g>
<g><path style="opacity:0.824" fill="#000000" d="M 338.5,69.5 C 340.833,69.5 343.167,69.5 345.5,69.5C 346.309,74.0938 347.809,78.4271 350,82.5C 351.333,78.5 352.667,74.5 354,70.5C 356.041,69.5769 358.208,69.2436 360.5,69.5C 360.5,76.5 360.5,83.5 360.5,90.5C 358.833,90.5 357.167,90.5 355.5,90.5C 355.736,78.7382 354.736,78.7382 352.5,90.5C 350.396,90.7989 348.396,90.4656 346.5,89.5C 345.235,86.2043 344.068,82.871 343,79.5C 342.501,83.1516 342.335,86.8183 342.5,90.5C 341.167,90.5 339.833,90.5 338.5,90.5C 338.5,83.5 338.5,76.5 338.5,69.5 Z"/></g>
<g><path style="opacity:0.843" fill="#000000" d="M 365.5,69.5 C 370.167,69.5 374.833,69.5 379.5,69.5C 379.5,70.8333 379.5,72.1667 379.5,73.5C 376.5,73.5 373.5,73.5 370.5,73.5C 370.5,74.8333 370.5,76.1667 370.5,77.5C 373.167,77.5 375.833,77.5 378.5,77.5C 378.5,78.8333 378.5,80.1667 378.5,81.5C 375.833,81.5 373.167,81.5 370.5,81.5C 370.5,83.1667 370.5,84.8333 370.5,86.5C 373.5,86.5 376.5,86.5 379.5,86.5C 379.5,87.8333 379.5,89.1667 379.5,90.5C 374.833,90.5 370.167,90.5 365.5,90.5C 365.5,83.5 365.5,76.5 365.5,69.5 Z"/></g>
<g><path style="opacity:0.799" fill="#000000" d="M 380.5,69.5 C 386.5,69.5 392.5,69.5 398.5,69.5C 398.5,70.8333 398.5,72.1667 398.5,73.5C 396.167,73.5 393.833,73.5 391.5,73.5C 391.5,79.1667 391.5,84.8333 391.5,90.5C 389.833,90.5 388.167,90.5 386.5,90.5C 386.5,84.8333 386.5,79.1667 386.5,73.5C 384.5,73.5 382.5,73.5 380.5,73.5C 380.5,72.1667 380.5,70.8333 380.5,69.5 Z"/></g>
<g><path style="opacity:0.811" fill="#000000" d="M 400.5,69.5 C 405.37,69.0316 410.036,69.6982 414.5,71.5C 417.205,75.5416 416.872,79.3749 413.5,83C 414.8,85.4373 415.8,87.9373 416.5,90.5C 414.801,90.6602 413.134,90.4935 411.5,90C 409.943,87.7045 408.276,85.5378 406.5,83.5C 405.526,85.7427 405.192,88.076 405.5,90.5C 403.833,90.5 402.167,90.5 400.5,90.5C 400.5,83.5 400.5,76.5 400.5,69.5 Z M 405.5,73.5 C 408.061,73.4469 410.061,74.4469 411.5,76.5C 410.278,78.9783 408.278,79.9783 405.5,79.5C 405.5,77.5 405.5,75.5 405.5,73.5 Z"/></g>
<g><path style="opacity:0.813" fill="#000000" d="M 423.5,69.5 C 426.85,69.335 430.183,69.5017 433.5,70C 437.241,72.183 438.907,75.5163 438.5,80C 437.907,89.4842 432.907,92.8175 423.5,90C 422.069,89.5348 420.903,88.7014 420,87.5C 418.466,83.2891 418.133,78.9558 419,74.5C 420.025,72.313 421.525,70.6464 423.5,69.5 Z M 426.5,73.5 C 432.795,73.9836 434.961,77.3169 433,83.5C 430,87.5 427,87.5 424,83.5C 422.863,79.5369 423.697,76.2036 426.5,73.5 Z"/></g>
<g><path style="opacity:0.794" fill="#000000" d="M 441.5,69.5 C 446.267,69.1908 450.934,69.6908 455.5,71C 459.855,80.4617 456.855,84.9617 446.5,84.5C 446.5,86.5 446.5,88.5 446.5,90.5C 444.833,90.5 443.167,90.5 441.5,90.5C 441.5,83.5 441.5,76.5 441.5,69.5 Z M 446.5,73.5 C 451.23,73.3028 452.897,75.3028 451.5,79.5C 449.929,80.3094 448.262,80.6427 446.5,80.5C 446.5,78.1667 446.5,75.8333 446.5,73.5 Z"/></g>
<g><path style="opacity:0.819" fill="#000000" d="M 464.5,69.5 C 477.328,68.4976 481.828,74.1643 478,86.5C 474.34,90.3674 469.84,91.534 464.5,90C 460.328,88.0409 458.328,84.7076 458.5,80C 458.39,75.1708 460.39,71.6708 464.5,69.5 Z M 467.5,73.5 C 471.906,73.4054 474.239,75.572 474.5,80C 474.05,85.13 471.383,87.13 466.5,86C 462.791,81.53 463.124,77.3633 467.5,73.5 Z"/></g>
<g><path style="opacity:0.791" fill="#000000" d="M 482.5,69.5 C 484.167,69.5 485.833,69.5 487.5,69.5C 487.5,74.8333 487.5,80.1667 487.5,85.5C 490.5,85.5 493.5,85.5 496.5,85.5C 496.5,87.1667 496.5,88.8333 496.5,90.5C 491.833,90.5 487.167,90.5 482.5,90.5C 482.5,83.5 482.5,76.5 482.5,69.5 Z"/></g>
<g><path style="opacity:0.8" fill="#000000" d="M 498.5,69.5 C 500.167,69.5 501.833,69.5 503.5,69.5C 503.5,76.5 503.5,83.5 503.5,90.5C 501.833,90.5 500.167,90.5 498.5,90.5C 498.5,83.5 498.5,76.5 498.5,69.5 Z"/></g>
<g><path style="opacity:0.804" fill="#000000" d="M 505.5,69.5 C 511.5,69.5 517.5,69.5 523.5,69.5C 523.5,70.8333 523.5,72.1667 523.5,73.5C 521.5,73.5 519.5,73.5 517.5,73.5C 517.5,79.1667 517.5,84.8333 517.5,90.5C 515.833,90.5 514.167,90.5 512.5,90.5C 512.5,84.8333 512.5,79.1667 512.5,73.5C 510.167,73.5 507.833,73.5 505.5,73.5C 505.5,72.1667 505.5,70.8333 505.5,69.5 Z"/></g>
<g><path style="opacity:0.804" fill="#000000" d="M 528.5,69.5 C 530.604,69.2011 532.604,69.5344 534.5,70.5C 536.637,76.9103 538.97,83.2436 541.5,89.5C 539.604,90.4656 537.604,90.7989 535.5,90.5C 535.579,89.0695 535.246,87.7362 534.5,86.5C 532.257,85.5258 529.924,85.1924 527.5,85.5C 527.512,89.4459 525.512,91.1126 521.5,90.5C 523.238,83.2855 525.572,76.2855 528.5,69.5 Z M 530.5,76.5 C 531.931,77.7804 532.598,79.4471 532.5,81.5C 531.325,81.719 530.325,81.3857 529.5,80.5C 530.246,79.2638 530.579,77.9305 530.5,76.5 Z"/></g>
<g><path style="opacity:0.827" fill="#000000" d="M 543.5,69.5 C 545.604,69.2011 547.604,69.5344 549.5,70.5C 551.667,74.1667 553.833,77.8333 556,81.5C 556.499,77.5138 556.666,73.5138 556.5,69.5C 557.833,69.5 559.167,69.5 560.5,69.5C 560.5,76.5 560.5,83.5 560.5,90.5C 558.801,90.6602 557.134,90.4935 555.5,90C 553.208,86.5838 551.041,83.0838 549,79.5C 548.501,83.1516 548.335,86.8183 548.5,90.5C 546.833,90.5 545.167,90.5 543.5,90.5C 543.5,83.5 543.5,76.5 543.5,69.5 Z"/></g>
<g><path style="opacity:0.794" fill="#000000" d="M 451.5,97.5 C 454.187,97.3359 456.854,97.5026 459.5,98C 460.38,99.3561 460.714,100.856 460.5,102.5C 458.738,102.643 457.071,102.309 455.5,101.5C 453.45,102.077 452.45,103.41 452.5,105.5C 460.05,105.548 462.883,109.215 461,116.5C 457.614,119.177 453.781,120.011 449.5,119C 447.893,117.951 447.227,116.451 447.5,114.5C 450.187,114.664 452.854,114.497 455.5,114C 455.957,113.586 456.291,113.086 456.5,112.5C 453.508,111.113 450.675,109.446 448,107.5C 446.581,103.082 447.748,99.7489 451.5,97.5 Z"/></g>
<g><path style="opacity:0.817" fill="#000000" d="M 338.5,98.5 C 340.167,98.5 341.833,98.5 343.5,98.5C 343.334,103.511 343.501,108.511 344,113.5C 346,114.833 348,114.833 350,113.5C 350.499,108.511 350.666,103.511 350.5,98.5C 352.167,98.5 353.833,98.5 355.5,98.5C 355.666,104.176 355.499,109.843 355,115.5C 349.712,120.818 344.378,120.818 339,115.5C 338.501,109.843 338.334,104.176 338.5,98.5 Z"/></g>
<g><path style="opacity:0.837" fill="#000000" d="M 360.5,98.5 C 362.604,98.2011 364.604,98.5344 366.5,99.5C 368.333,102.5 370.167,105.5 372,108.5C 372.498,105.183 372.665,101.85 372.5,98.5C 374.167,98.5 375.833,98.5 377.5,98.5C 377.5,105.167 377.5,111.833 377.5,118.5C 375.473,118.662 373.473,118.495 371.5,118C 369.333,114.5 367.167,111 365,107.5C 364.501,111.152 364.335,114.818 364.5,118.5C 363.167,118.5 361.833,118.5 360.5,118.5C 360.5,111.833 360.5,105.167 360.5,98.5 Z"/></g>
<g><path style="opacity:0.84" fill="#000000" d="M 381.5,98.5 C 383.167,98.5 384.833,98.5 386.5,98.5C 386.5,105.167 386.5,111.833 386.5,118.5C 384.833,118.5 383.167,118.5 381.5,118.5C 381.5,111.833 381.5,105.167 381.5,98.5 Z"/></g>
<g><path style="opacity:0.811" fill="#000000" d="M 388.5,99.5 C 390.364,98.2072 392.364,98.2072 394.5,99.5C 395.902,103.539 397.402,107.539 399,111.5C 400.333,107.5 401.667,103.5 403,99.5C 404.814,98.2404 406.647,98.2404 408.5,99.5C 406.092,105.724 404.092,112.057 402.5,118.5C 400.076,118.808 397.743,118.474 395.5,117.5C 393.531,111.243 391.198,105.243 388.5,99.5 Z"/></g>
<g><path style="opacity:0.823" fill="#000000" d="M 410.5,98.5 C 415.167,98.5 419.833,98.5 424.5,98.5C 424.5,99.8333 424.5,101.167 424.5,102.5C 421.5,102.5 418.5,102.5 415.5,102.5C 415.5,103.833 415.5,105.167 415.5,106.5C 418.167,106.5 420.833,106.5 423.5,106.5C 423.5,107.833 423.5,109.167 423.5,110.5C 420.833,110.5 418.167,110.5 415.5,110.5C 415.5,111.833 415.5,113.167 415.5,114.5C 418.5,114.5 421.5,114.5 424.5,114.5C 424.5,115.833 424.5,117.167 424.5,118.5C 419.833,118.5 415.167,118.5 410.5,118.5C 410.5,111.833 410.5,105.167 410.5,98.5 Z"/></g>
<g><path style="opacity:0.823" fill="#000000" d="M 428.5,98.5 C 432.846,98.3343 437.179,98.501 441.5,99C 445.365,103.055 445.365,107.222 441.5,111.5C 442.635,113.799 443.968,115.966 445.5,118C 443.5,118.667 441.5,118.667 439.5,118C 437.943,115.704 436.276,113.538 434.5,111.5C 433.526,113.743 433.192,116.076 433.5,118.5C 431.833,118.5 430.167,118.5 428.5,118.5C 428.5,111.833 428.5,105.167 428.5,98.5 Z M 433.5,102.5 C 435.199,102.34 436.866,102.506 438.5,103C 439.833,104.333 439.833,105.667 438.5,107C 436.866,107.494 435.199,107.66 433.5,107.5C 433.5,105.833 433.5,104.167 433.5,102.5 Z"/></g>
<g><path style="opacity:0.84" fill="#000000" d="M 464.5,98.5 C 466.167,98.5 467.833,98.5 469.5,98.5C 469.5,105.167 469.5,111.833 469.5,118.5C 467.833,118.5 466.167,118.5 464.5,118.5C 464.5,111.833 464.5,105.167 464.5,98.5 Z"/></g>
<g><path style="opacity:0.834" fill="#000000" d="M 472.5,98.5 C 480.528,98.169 488.528,98.5023 496.5,99.5C 497.667,101.167 498.833,102.833 500,104.5C 501.878,102.957 503.378,101.124 504.5,99C 506.5,98.3333 508.5,98.3333 510.5,99C 508.368,102.764 505.868,106.264 503,109.5C 502.502,112.482 502.335,115.482 502.5,118.5C 500.833,118.5 499.167,118.5 497.5,118.5C 497.665,115.482 497.498,112.482 497,109.5C 494.667,106.167 492.333,102.833 490,99.5C 489.517,100.448 489.351,101.448 489.5,102.5C 487.5,102.5 485.5,102.5 483.5,102.5C 483.5,107.833 483.5,113.167 483.5,118.5C 481.833,118.5 480.167,118.5 478.5,118.5C 478.5,113.167 478.5,107.833 478.5,102.5C 476.5,102.5 474.5,102.5 472.5,102.5C 472.5,101.167 472.5,99.8333 472.5,98.5 Z"/></g>
</svg>
