<svg width="180" height="67" viewBox="0 0 180 67" fill="none" xmlns="http://www.w3.org/2000/svg">
<path d="M19.4536 8.43115C23.6032 8.43115 27.1657 9.28786 30.1411 11.0013C33.1166 12.7147 35.3715 15.1624 36.8925 18.3173C38.427 21.4858 39.1875 25.1982 39.1875 29.4681C39.1875 32.623 38.7739 35.4923 37.9333 38.0624C37.0927 40.6461 35.8385 42.8763 34.1706 44.7665C32.4895 46.6567 30.4347 48.1117 28.0063 49.1044C25.5646 50.1107 22.776 50.6138 19.6271 50.6138C16.4782 50.6138 13.6896 50.0971 11.2212 49.0636C8.73947 48.0301 6.68469 46.5887 5.01686 44.7121C3.36236 42.8355 2.10815 40.5781 1.26756 37.9536C0.426972 35.3155 0 32.4734 0 29.4137C0 26.354 0.440316 23.4032 1.32093 20.7922C2.20155 18.1813 3.48245 15.9511 5.16363 14.1153C6.83146 12.2795 8.8729 10.8789 11.2746 9.8998C13.6763 8.9207 16.4115 8.44475 19.467 8.44475L19.4536 8.43115ZM30.9817 29.4137C30.9817 26.422 30.5147 23.8383 29.5674 21.6489C28.6201 19.4596 27.2725 17.8006 25.5112 16.6855C23.75 15.5568 21.7353 14.9992 19.467 14.9992C17.8525 14.9992 16.3448 15.312 14.9705 15.9375C13.5962 16.5631 12.4087 17.4606 11.4214 18.6573C10.434 19.8403 9.64677 21.3634 9.07304 23.2128C8.4993 25.0622 8.2191 27.1292 8.2191 29.4273C8.2191 31.7255 8.4993 33.8468 9.07304 35.7098C9.64677 37.5864 10.4607 39.1367 11.5014 40.3741C12.5421 41.6116 13.743 42.5363 15.1039 43.1482C16.4649 43.7602 17.9459 44.0729 19.5737 44.0729C21.6552 44.0729 23.5499 43.5426 25.2978 42.4819C27.0323 41.4212 28.4199 39.7894 29.4473 37.5864C30.4747 35.3835 30.9951 32.6638 30.9951 29.4273L30.9817 29.4137Z" fill="#0470B8"/>
<path d="M64.4453 46.3303C62.6441 47.7581 60.8962 48.8324 59.215 49.5396C57.5338 50.2603 55.6392 50.6138 53.5444 50.6138C51.6364 50.6138 49.9552 50.2331 48.5008 49.458C47.0598 48.6828 45.939 47.6494 45.1518 46.3303C44.3646 45.0112 43.9777 43.5834 43.9777 42.0468C43.9777 39.9662 44.6181 38.1984 45.9123 36.7297C47.2066 35.2611 48.9812 34.282 51.2361 33.7788C51.7031 33.6701 52.8772 33.4117 54.7585 33.0309C56.6265 32.6366 58.241 32.283 59.5753 31.9566C60.9095 31.6303 62.3639 31.2359 63.925 30.7736C63.8316 28.7746 63.4313 27.3059 62.7375 26.3676C62.0303 25.4293 60.5893 24.967 58.3878 24.967C56.4931 24.967 55.0654 25.239 54.1181 25.7693C53.1574 26.3132 52.3435 27.1156 51.663 28.1898C50.9826 29.2641 50.5022 29.9712 50.222 30.3248C49.9418 30.6648 49.3281 30.8416 48.4074 30.8416C47.5668 30.8416 46.8463 30.5696 46.2326 30.0256C45.6188 29.4817 45.3119 28.7746 45.3119 27.9315C45.3119 26.5988 45.7789 25.2933 46.6996 24.0423C47.6335 22.7776 49.0746 21.7441 51.0359 20.9282C52.9973 20.1123 55.4524 19.7043 58.3744 19.7043C61.6567 19.7043 64.2319 20.0987 66.0998 20.8874C67.9678 21.6761 69.3021 22.9272 70.076 24.627C70.8498 26.3404 71.2368 28.5978 71.2368 31.4127C71.2368 33.1941 71.2368 34.7035 71.2234 35.9546C71.2234 37.1921 71.1968 38.5791 71.1834 40.1022C71.1834 41.53 71.4102 43.0259 71.8772 44.5625C72.3442 46.1127 72.571 47.1054 72.571 47.5542C72.571 48.3293 72.2108 49.0364 71.4903 49.6891C70.7698 50.3283 69.9559 50.6546 69.0486 50.6546C68.288 50.6546 67.5275 50.2875 66.7803 49.5532C66.0331 48.8188 65.2459 47.7581 64.4053 46.3711L64.4453 46.3303ZM63.9517 35.3427C62.8576 35.7506 61.2698 36.1858 59.1883 36.6345C57.1069 37.0833 55.6659 37.4233 54.8653 37.6408C54.0647 37.8584 53.3042 38.2664 52.5703 38.8919C51.8365 39.5174 51.4762 40.3741 51.4762 41.4892C51.4762 42.6043 51.9032 43.6242 52.7571 44.4265C53.6111 45.2288 54.7319 45.6368 56.1195 45.6368C57.6005 45.6368 58.9482 45.3104 60.2024 44.6441C61.4432 43.9913 62.3639 43.1346 62.951 42.1011C63.6181 40.9453 63.965 39.0551 63.965 36.4306V35.3427H63.9517Z" fill="#0470B8"/>
<path d="M102.832 40.6733C102.832 42.7675 102.325 44.5625 101.324 46.0583C100.324 47.5541 98.8427 48.6828 96.8813 49.4579C94.92 50.2331 92.545 50.6138 89.743 50.6138C86.941 50.6138 84.7795 50.1923 82.8582 49.3627C80.9502 48.5332 79.5358 47.4861 78.6285 46.2351C77.7212 44.984 77.2676 43.7329 77.2676 42.4683C77.2676 41.6388 77.5611 40.9181 78.1348 40.3197C78.7219 39.7214 79.4558 39.4358 80.3497 39.4358C81.137 39.4358 81.7374 39.6262 82.151 40.0205C82.5646 40.4149 82.9649 40.9588 83.3518 41.666C84.1124 43.0258 85.033 44.0321 86.1004 44.6984C87.1678 45.3648 88.6222 45.7047 90.4502 45.7047C91.9445 45.7047 93.1721 45.3648 94.1194 44.6848C95.0801 44.0049 95.5471 43.2298 95.5471 42.3595C95.5471 41.0268 95.0534 40.0477 94.0527 39.4358C93.0653 38.8239 91.4242 38.2391 89.1559 37.6816C86.5941 37.0289 84.4993 36.3489 82.8849 35.6418C81.2704 34.9211 79.9895 33.9828 79.0155 32.8133C78.0548 31.6438 77.5745 30.2024 77.5745 28.5026C77.5745 26.9795 78.0148 25.5381 78.9087 24.1918C79.8027 22.832 81.1103 21.7577 82.8582 20.9554C84.5927 20.1531 86.7009 19.7451 89.1559 19.7451C91.0906 19.7451 92.8252 19.9491 94.3596 20.3571C95.894 20.765 97.1749 21.3089 98.2156 22.0025C99.243 22.6824 100.03 23.4439 100.564 24.287C101.098 25.1165 101.364 25.9325 101.364 26.7348C101.364 27.6051 101.084 28.3258 100.511 28.8833C99.9368 29.4409 99.1229 29.7129 98.0688 29.7129C97.3083 29.7129 96.6545 29.4953 96.1208 29.0465C95.5871 28.5978 94.9733 27.9314 94.2795 27.0475C93.7191 26.2996 93.052 25.7149 92.2914 25.2661C91.5309 24.8174 90.4902 24.5998 89.1826 24.5998C87.875 24.5998 86.7142 24.8854 85.8202 25.4701C84.9263 26.0548 84.486 26.7892 84.486 27.6595C84.486 28.4618 84.8195 29.1145 85.4733 29.6177C86.1271 30.1344 87.0078 30.556 88.1152 30.8823C89.2226 31.2223 90.7571 31.6302 92.7051 32.1062C95.0134 32.6773 96.908 33.3709 98.3757 34.1596C99.8434 34.9619 100.951 35.9002 101.711 36.9881C102.472 38.076 102.846 39.3134 102.846 40.7005L102.832 40.6733Z" fill="#0470B8"/>
<path d="M116.602 24.0423V46.004C116.602 47.527 116.242 48.6693 115.534 49.458C114.827 50.2331 113.92 50.6275 112.826 50.6275C111.732 50.6275 110.851 50.2331 110.157 49.4308C109.477 48.6285 109.13 47.4862 109.13 46.004V24.2735C109.13 22.7776 109.477 21.6354 110.157 20.8738C110.838 20.1123 111.732 19.7316 112.826 19.7316C113.92 19.7316 114.814 20.1123 115.534 20.8738C116.242 21.6354 116.602 22.6961 116.602 24.0423Z" fill="#0470B8"/>
<path d="M148.291 40.6733C148.291 42.7675 147.784 44.5625 146.783 46.0583C145.782 47.5541 144.301 48.6828 142.34 49.4579C140.379 50.2331 138.004 50.6138 135.202 50.6138C132.4 50.6138 130.238 50.1923 128.317 49.3627C126.409 48.5332 124.994 47.4861 124.087 46.2351C123.18 44.984 122.726 43.7329 122.726 42.4683C122.726 41.6388 123.02 40.9181 123.593 40.3197C124.181 39.7214 124.914 39.4358 125.808 39.4358C126.596 39.4358 127.196 39.6262 127.61 40.0205C128.023 40.4149 128.424 40.9588 128.81 41.666C129.571 43.0258 130.492 44.0321 131.559 44.6984C132.626 45.3648 134.081 45.7047 135.909 45.7047C137.403 45.7047 138.631 45.3648 139.578 44.6848C140.539 44.0049 141.006 43.2298 141.006 42.3595C141.006 41.0268 140.512 40.0477 139.511 39.4358C138.524 38.8239 136.883 38.2391 134.615 37.6816C132.053 37.0289 129.958 36.3489 128.343 35.6418C126.729 34.9211 125.448 33.9828 124.474 32.8133C123.513 31.6438 123.033 30.2024 123.033 28.5026C123.033 26.9795 123.473 25.5381 124.367 24.1918C125.261 22.832 126.569 21.7577 128.317 20.9554C130.051 20.1531 132.159 19.7451 134.615 19.7451C136.549 19.7451 138.284 19.9491 139.818 20.3571C141.353 20.765 142.633 21.3089 143.674 22.0025C144.702 22.6824 145.489 23.4439 146.023 24.287C146.556 25.1165 146.823 25.9325 146.823 26.7348C146.823 27.6051 146.543 28.3258 145.969 28.8833C145.395 29.4409 144.582 29.7129 143.527 29.7129C142.767 29.7129 142.113 29.4953 141.579 29.0465C141.046 28.5978 140.432 27.9314 139.738 27.0475C139.178 26.2996 138.511 25.7149 137.75 25.2661C136.99 24.8174 135.949 24.5998 134.641 24.5998C133.334 24.5998 132.173 24.8854 131.279 25.4701C130.385 26.0548 129.945 26.7892 129.945 27.6595C129.945 28.4618 130.278 29.1145 130.932 29.6177C131.586 30.1344 132.466 30.556 133.574 30.8823C134.681 31.2223 136.216 31.6302 138.164 32.1062C140.472 32.6773 142.367 33.3709 143.834 34.1596C145.302 34.9619 146.409 35.9002 147.17 36.9881C147.931 38.076 148.304 39.3134 148.304 40.7005L148.291 40.6733Z" fill="#0470B8"/>
<path d="M141.673 9.75012C158.872 15.1759 170.146 24.2462 170.146 34.5267C170.146 51.1441 140.699 64.6066 104.38 64.6066C94.2662 64.6066 84.6861 63.5596 76.1201 61.6966C86.7142 65.0418 99.5632 67 113.426 67C149.745 67 179.192 53.5374 179.192 36.92C179.192 24.9397 163.862 14.5912 141.673 9.75012Z" fill="#0470B8"/>
<path d="M115.001 1.26466L115.628 3.23645C115.761 3.64441 116.135 3.92998 116.562 3.92998H118.59C120.324 3.92998 121.058 6.20094 119.644 7.23443L118.003 8.4447C117.656 8.70307 117.509 9.15182 117.642 9.57338L118.27 11.5452C118.803 13.2314 116.909 14.632 115.508 13.5849L113.866 12.3747C113.52 12.1163 113.053 12.1163 112.706 12.3747L111.064 13.5849C109.664 14.632 107.769 13.2314 108.303 11.5452L108.93 9.57338C109.063 9.16542 108.93 8.70307 108.569 8.4447L106.928 7.23443C105.527 6.18734 106.248 3.92998 107.982 3.92998H110.01C110.437 3.92998 110.811 3.64441 110.944 3.23645L111.572 1.26466C112.105 -0.421555 114.454 -0.421555 114.987 1.26466H115.001Z" fill="#0470B8"/>
</svg>
