<?xml version="1.0" encoding="utf-8"?>
<!-- Generator: Adobe Illustrator 29.2.0, SVG Export Plug-In . SVG Version: 9.03 Build 55982)  -->
<svg version="1.1"
	 id="Layer_1" xmlns:rdf="http://www.w3.org/1999/02/22-rdf-syntax-ns#" xmlns:svg="http://www.w3.org/2000/svg" xmlns:dc="http://purl.org/dc/elements/1.1/" xmlns:sodipodi="http://sodipodi.sourceforge.net/DTD/sodipodi-0.dtd" xmlns:inkscape="http://www.inkscape.org/namespaces/inkscape" xmlns:cc="http://creativecommons.org/ns#"
	 xmlns="http://www.w3.org/2000/svg" xmlns:xlink="http://www.w3.org/1999/xlink" x="0px" y="0px" viewBox="0 0 800 260"
	 enable-background="new 0 0 800 260" xml:space="preserve">
<g id="svg8756" sodipodi:docname="QEF.svg">
	
		<sodipodi:namedview  bordercolor="#666666" borderopacity="1" fit-margin-bottom="0" fit-margin-left="0" fit-margin-right="0" fit-margin-top="0" gridtolerance="10" guidetolerance="10" id="namedview8758" inkscape:current-layer="g8764" inkscape:cx="199.81496" inkscape:cy="82.235293" inkscape:pageopacity="0" inkscape:pageshadow="2" inkscape:window-height="1017" inkscape:window-maximized="1" inkscape:window-width="1920" inkscape:window-x="-8" inkscape:window-y="-8" inkscape:zoom="2.5371819" objecttolerance="10" pagecolor="#ffffff" showgrid="false">
		</sodipodi:namedview>
	<g id="g8764" inkscape:groupmode="layer" inkscape:label="QCRCcatalog4">
		<g id="g19113">
			<g id="g15246">
				<path id="path15248" inkscape:connector-curvature="0" fill-rule="evenodd" clip-rule="evenodd" d="M161.8,99.5
					c0.2,0,1.9,0,2.7,0.2c1,0.2,2,0.6,3,1.1c0.6,0.3,1.2,0.7,1.8,1c0.1,0.2,0.2,0.6,0.2,0.9c0,0.7-0.6,1.3-0.9,1.3s-2.1-0.2-2.3-0.2
					s-2.4,0.2-2.6,0.2s0-0.2-0.3-0.2h-1.1c-0.6,0-2.9,1.2-3.1,1.3c-2.6,2-4.9,5.1-6.5,7.6c-0.5,0.8-1.6,2.2-1.6,2.5v1.2
					c0,0,0,0,0.3,0c0.5,0,0.2-0.4,0.7-0.7c1.1-0.6,2.6-1.5,4-1.9c0.5-0.2,1.4,0,1.6,0s1.1-0.2,1.6,0c1.8,0.7,2.9,2.9,3.1,4.6
					c0,0.3,0.4,0.8,0.4,1v1.3c0,0.2,0.4,0.7,0.5,1.1v3.9c0,0.2-0.3,0.4-0.3,0.5c-0.1,2.1-0.4,4-0.8,6.1c0,0,0,0.1,0.2,0.1h1.2
					l7.1-2.3h3.3c1.8,0,4.4,2.1,5.9,3v2.1c-1,0.8-2.1,1.1-3,1.6c0,0.1-0.2,0.4-0.4,0.6c-1.7,1.3-3.5,1.9-5.2,2.8h-1.4v-0.5
					c0-0.2,0.7-1.1,1.1-1.7c0.2-0.3,0.4-0.8,0.5-1.1c0.2-0.3,0.3-0.8,0.3-1.1v-2.3c-0.2-0.2-0.4-0.3-0.6-0.3h-3.3
					c-0.2,0-1.4,0.3-1.9,0.4c-3.4,0.7-6.5,2.6-9.5,5.1c-0.3,0.3-0.9,0-1.4,0c-0.6,0-1.4-0.1-2,0.2c-1.9,0.9-3.6,2.1-5.5,3.3
					c-3.1,1.9-6.2,4.2-9.3,6.4c-0.6,0.4-1.4,0.7-1.9,1.3c-0.8,0.8-1.9,2-2.5,3c-0.2,0.3-0.3,0.7-0.5,1c-0.4,0.4-1,1-1.5,1.2
					c-0.2,0.1-0.7,0-0.9,0c-2,0-2.6-1-4.1-3.2V149c0.3-0.4,0.3-0.9,0.6-1.3c0.6-0.8,1.1-1.7,1.8-2.3c0.4-0.4,1.3-1.3,1.7-1.6
					c0.6-0.4,1.2-1,1.7-1.5h0.7v1.6c0,0.2-0.4,0.4-0.5,0.6c-0.4,0.6-0.6,1.6-0.6,1.8s0.2,0,0.2,0.3s-0.5,0.6-0.5,0.8
					c0,0.6,1.2,0.5,1.2,0.5c0.2,0,0.6,0,0.9-0.1c1.6-0.8,3.3-1.7,4.8-2.6c0.9-0.5,1.9-0.7,2.8-1.3c0.3-0.2,0.6-0.7,0.9-1
					c0.4-0.3,1.1-0.7,1.6-0.9c0.2-0.1,0.8-0.4,1.1-0.6v-1.1c0-0.2-0.6-0.9-0.9-1.4c-0.2-0.4-0.4-0.9-0.6-1.3
					c-0.3-0.8-0.4-1.6-0.6-2.4c0,0,0-0.6-0.3-0.8v-2.6c0.3,0,0.5-0.4,0.5-0.6v-1.8c0-0.2,0.7-1.5,1-2.3c0.8-2.4,1.2-5,2-7.4
					c0.2-0.6,0.8-1.2,1.2-1.9c0.2-0.3,0.5-0.5,0.7-0.8c0.7-1.2,1.3-2.7,2.1-3.9c0.9-1.4,2-2.6,2.8-3.9c0.2-0.2,0-0.7,0.2-1
					c0.6-0.7,0.9-0.5,0.9-1.2s-0.4-0.5-0.8-0.5s-0.7,0-1,0.1s-0.7,0.5-1,0.7c-1.2,0.7-2.6,1.4-4,2.1c-1,0.5-2,1.3-3.1,1.8
					c-0.9,0.3-1.8,0.7-2.7,1c-0.6,0.2-1.7,0.4-1.9,0.4c-1.5,0-2.7-0.5-4.2-0.9c-0.1-0.2-0.3-0.3-0.5-0.5v-0.3
					c3.8-1.1,7.5-2.9,10.6-4c0,0,0.2-0.2,0.4-0.3c1.9-0.6,3.7-1.7,5.6-2.3c0.4-0.1,0.9-0.5,1.3-0.7c0.4-0.2,0.9-0.2,1.3-0.4
					c0.8-0.3,1.7-0.8,2.6-1.2c1-0.5,2.2-0.5,2.8-1.7c0.1-0.2,0.4-0.6,0.6-0.9c0.5-0.2,1.5-0.2,2-0.2 M120.1,106.1
					c0.6,0.1,0.8,0.1,1.3,0.6c0.1,0.1,0.3,0.5,0.4,0.6c0.3,0.3,0.6,0.6,0.9,0.9c0.3,0.5,0.6,1.1,0.9,1.7c0.4,0.9,0.6,1.9,1,2.9
					c0.2,0.5,0.4,1.2,0.6,1.8c0,0,0,0,0.2,0v2c-0.8,1.7-1.7,3.6-2.8,5.3c-1.1,1.7-2.5,3.6-3.8,5.2c-0.9,1.2-2.1,2.3-3.1,3.3
					c-1.2,1.2-3.2,2.6-4.6,4c-0.4,0.3-0.6,1-1,1.3c-0.5,0.5-1.1,1.1-1.7,1.6c-1.2,0.9-3.8,2.9-4,2.9h-0.5v-0.4
					c2.4-2.3,3.7-4.9,4.8-7.5c0.2-0.4,0.7-0.9,1-1.3c0.3-0.3,0.4-1,0.7-1.3c0.8-1,1.2-2.5,1.6-3.4c0.5,0,1.1-0.9,1.3-1.3
					c0.7-1.1,1.2-2.4,1.6-3.5c0.3-0.8,0.5-1.7,0.9-2.5c0.2-0.3,0.6-0.7,0.8-1.1c0.4-0.7,0.9-1.6,1.2-2.4c0.3-0.8,0.5-1.7,0.8-2.4
					c0.2-0.6,0.5-1.3,0.7-1.8c0.2-0.7,0.3-1.5,0.4-2.4c0,0,0.1,0.1,0.1,0v-2c0-0.2,0.2-0.4,0.3-0.6 M155.9,115.6
					c1,0,2.5,1.3,2.7,2.5v6.9c-0.2,0.4-0.2,0.8-0.2,1.2c-0.1,0.8-0.3,1.6-0.6,2.4c-0.2,0.6-0.9,1.6-0.9,1.8v2c0,1-0.5,3.5-1.5,3.6
					c-0.7,0-1.3,0.9-2,1.2c-1.8,0.9-3.6,1.8-5.4,2.7c0,0-0.2,0-0.4,0c-0.7,0-1.1-0.6-1.1-0.9s0-0.4,0.2-0.6c0.2,0,0.4-0.1,0.6-0.2
					c1-0.4,2-0.9,3-1.2c0.9-0.3,5.4-1.7,5.4-3.8s0-0.3,0-0.5c0-0.1-0.1,0-0.2-0.2c-0.1-0.6-0.4-1.4-0.8-1.9
					c-0.1-0.2-0.4-0.3-0.5-0.5s-0.3-0.7-0.3-0.9s0.2-0.1,0.2-0.3s-0.2-0.3-0.2-0.5c0-0.4,0.2-0.3,0.4-0.9c0.1-0.3,0.1-0.7,0.2-1.1
					c0,0,0.1,0.1,0.1,0V124c-0.3-0.2-1.3-1.3-1.7-1.3s-1,3.7-1,4v4.5c0,0.2,0.3,1.1,0.3,1.3s-0.4,1-0.9,1.3
					c-0.7,0.6-1.5,1.1-2.2,1.5c-0.3,0.2-1.5,1.3-1.7,1.3s-0.4-0.4-0.7-0.5c-0.1-0.4-0.1-0.9-0.1-1.2s0.1-0.9,0.1-2.9s0,0-0.1-0.5
					c-0.2-0.9,0.3-1.1,0.4-1.2c0.2-0.6,0.2-1.4,0.4-2c0,0,0.2-0.2,0.3-0.3c0-0.3,0.1-0.7,0.1-1v-1.4c0-0.2,0.2-0.7,0.2-1
					c0.3-1.8,0.3-3.9,1.3-5.4c0.4-0.6,1.3-1,1.9-1.5c1.1-0.9,3.1-2.4,4.7-2.4 M111.9,139h1c0.6,0,1.1,1.4,1.2,1.8
					c0.4,1,0.1,2.4,0.7,3.3v8.7c0,0.2-0.2,0.2-0.2,0.3l-0.3,13.4c0,0.2-0.2,0.3-0.2,0.5v4.2c0,0,0,0,0.1,0c0.8,0,1.7-2.9,2-3.6
					c0-0.1,0.2-0.2,0.4-0.2s0.2,0.1,0.3,0.1c0,0.4,0.2,1.1,0.2,1.3s-0.5,3.8-0.8,5.8c-0.2,1.1-0.7,3.2-0.7,3.4s0.4,0.6,0.2,1.6
					c0,0.5-0.9,2.8-1.6,2.8h-1.4c-0.2,0-0.7,0.4-0.9,0.4c-1.3,0-3.6-4.8-3.7-4.9c0-0.3,0-0.6,0-0.8c-0.2-0.2-0.5-0.3-0.5-0.6v-4.4
					c0-0.2,0.8-1.1,1-1.7c0.8-2,1.2-4.6,1.6-6.7c0.4-2.2,0.6-4.5,0.8-6.7v-2.5c0.2-0.3,0.4-0.5,0.4-0.7s0-0.1-0.2-0.2
					c0.2-0.2,0.3-0.6,0.4-0.9c0-0.3,0-0.8,0.1-1.2c0-0.4,0.4-1.2,0.4-1.5v-9.2c0-0.2-0.3-0.2-0.4-0.3L111.9,139L111.9,139z
					 M159.6,142h1.4c0.9,0,2.5,1.7,2.9,2.1c0.3,0.3,0.6,0.7,0.7,1.2c0.1,0.3,0,0.9,0.3,1.2c0,0-0.2,0-0.2,0.1v1.9
					c0,0.2-0.2,0.4-0.3,0.6c-0.5,0.5-1,0.8-1.4,1.4c-0.1,0.2,0,0.5-0.2,0.7c-0.3,0.5-0.8,1-1.2,1.6c-0.2,0.3-0.8,0.9-0.8,1.1
					c0,0.7,1.1,0.7,1.6,1c0.3,0.1,0.7,0.4,1.1,0.6c0.4,0.2,0.9,0.2,1.3,0.4c0.4,0.1,1.3,1.5,1.3,1.7v6c0,0.2-0.3,1.1-0.6,1.7
					c0,0-0.2,0.2-0.3,0.4c-0.2,0.3-0.2,0.8-0.3,1.2c-0.5,1.1-1.7,3-1.7,3.2c0,1.2,3.4,1.7,3.7,2c0.6,0.6,1.7,0.5,2.5,0.5
					c2.5,0.2,4.9,1.8,7,4c0.1,0.1,0.1,0.5,0.3,0.7c0.2,0.3,0.6,0.7,0.8,1c0.4,0.5,0.9,1.1,1.5,1.6c0.7,0.7,0.9,2.2,1.1,2.9
					c0.1,0.4,0.4,1.3,0.4,1.5v1.7c-0.3,0.1-0.5,0.2-0.7,0.6h-1.5c-0.2,0-0.9-0.6-1.3-0.8c-0.2,0-0.6-0.2-0.8-0.3
					c-1.8-1.1-3.7-2.5-5.4-3.8c-2.1-1.6-3.9-3.2-5.9-4.8c-0.3-0.2-0.8-0.3-1.2-0.6c-0.9-0.6-1.7-1.2-2.7-1.8h-1.4
					c-3,4.1-7.5,6.7-11.6,8.1c-1.6,0.6-3.9,1.2-5.6,1.4c-0.9,0.1-1.1,0-1.3,0l-0.2-0.2v-0.4c2.3-0.4,4.4-1.5,6-2.4
					c1.3-0.7,2.5-1.7,3.7-2.7c0.4-0.3,0.7-0.9,1-1.2c0.1,0,0.5-0.1,0.6-0.3c0.8-1.1,3.7-4.3,3.7-4.5v-1.1c-0.7-0.7-1.8-1.1-2.5-1.4
					c-1.7-0.7-4.9-1.7-5.2-1.7s-0.2,0-0.3,0.2c-1.8-0.1-3,1.8-4.4,2.7c-1,0.7-2.1,1.7-3,2.4H139c-0.4-0.5-0.4-0.6-0.4-1
					c0-0.9,0.7-2.1,0.9-2.9c0.2-0.1,0.4-0.3,0.6-0.4h0.3v0.9c0,0.7,0.1,1,0.6,1s0.8-0.3,1.2-0.7c0.2-0.1,0.5-0.2,0.6-0.3
					c2.6-2.2,4.6-4.9,6.4-7.1v-0.2c0,0-0.1-0.2-0.3-0.2s-3.5,1.9-3.7,1.9h-0.6v-0.6c0-0.3,1.8-1.6,2.1-1.9c1.4-1,2.7-2.1,4.2-2.9
					c1-0.6,2-0.9,2.9-1.4c1-0.6,1.5-1.9,2-2.8c0.4-0.7,0.9-1.3,1.2-1.9c0.2-0.3,0.2-0.7,0.4-1.1c0.2-0.2,0.6-0.3,0.8-0.6
					c0.4-0.7,0.8-1.3,1-2c0.6-2.4,0.8-1.8,0.8-3.5s0.1-1.8-0.5-1.9H158c0-0.1,0-0.2-0.2-0.2s-0.2,0-0.2,0.1
					c-1.3,0.5-1.5,1.8-1.7,2.8c-0.1,0.4-0.2,1.2-0.2,1.5v1.3c0,0.2-0.1,0.6-0.1,0.8s0,0.7,0,0.9c-0.2,0.6-0.8,1.4-1.5,1.9
					c-0.1,0-0.7,0-0.9,0.3h-1.3c-0.4-0.3-1-0.3-1.4-0.6c-2.7-1.5-2-2-4-2s-1.4,1.5-1.5,1.7c-0.5,1.1-0.9,2.3-1.3,3.5
					c0,0.1-0.2,0.2-0.3,0.3c-0.5,0.8-0.8,1.7-1.4,2.5c-0.4,0.5-1.2,0.6-1.5,1.1h-1.4c-0.3-0.3-0.8-0.5-1.1-0.9
					c-0.2-0.3-0.3-0.7-0.5-1v-2.3c0.7-0.5,0.8-1.1,1.1-1.9c0.1,0,0.2-0.1,0.3,0c0,0.7,0,2.5,1.1,2.5s1.2-0.5,1.8-1.2
					c0.1-0.1,0.5-0.2,0.7-0.4c0.1-0.1,0.2-0.5,0.4-0.7c0.6-0.6,1.2-1.3,1.8-1.9c0.6-0.6,1-1.3,1.6-1.9c0.2-0.2,0.6-0.3,0.8-0.5
					c2,0,2.3-0.1,2.5-0.1s1.4,0.5,1.6,0.5h1.1c2.2-2.1,3-4,4.1-6.2c0-0.2,0.5-0.3,0.7-0.4c0.7-0.4,1.6-0.7,2.4-1.2 M160.1,156.6
					c0.6,0,1.3,0.1,1.7,0.4c0.2,0.2,0.6,0.5,0.6,0.7v4.1c0,0.2-0.7,1.5-1,2.1c-0.6,1.6-1.4,3.7-2.9,5.1c-0.2,0.2-0.6,0.1-0.8,0.1
					c-0.6,0-0.9-0.3-1.4-0.4c-1.2-0.3-2.6-0.3-3.7-0.5c-0.8-0.2-1.8-0.1-2.5-0.3c-0.2,0-0.6-0.2-0.9-0.5c0,0,0,0,0-0.3
					s0.4-1.3,0.7-1.5c0.2-0.1,0.4,0,0.5-0.2c1.1-1.2,2.1-2.7,3.4-3.9c0.2-0.2,0.6-0.2,0.8-0.4s0.3-0.6,0.5-0.9
					c0.3-0.5,0.8-1,1.2-1.5c0.1-0.1,0.2-0.5,0.3-0.6c0.6-0.4,1.1-0.9,1.7-1.2c0.6-0.2,1.7-0.2,1.9-0.2"/>
			</g>
			<g id="g15254">
				<path id="path15256" inkscape:connector-curvature="0" fill-rule="evenodd" clip-rule="evenodd" fill="#00A76D" d="M289.6,193
					c0,4.8,1.2,8.6,3.5,11.5c2.4,2.8,5.3,4.2,8.8,4.2s6.4-1.4,8.7-4.2c2.3-2.8,3.5-6.7,3.5-11.5s-1.2-8.7-3.6-11.5
					c-2.4-2.9-5.3-4.3-8.7-4.3s-6.2,1.4-8.6,4.3c-2.4,2.9-3.6,6.8-3.6,11.6 M319,218.5h-2.4c-7.3,0-12.8-2-16.6-6.2l-2.5-2.7
					c-3.2-0.4-6.1-2.2-8.6-5.2c-2.5-3.1-3.7-6.9-3.7-11.4s1.6-9.4,4.8-12.6c3.2-3.2,7.1-4.8,11.8-4.8s8.7,1.6,11.8,4.8
					c3.1,3.2,4.7,7.4,4.7,12.6s-1.4,9.1-4.2,12.3c-2.8,3.2-6,4.8-9.7,4.8c1.1,2,2.9,3.8,5.7,5.3c2.7,1.5,5.7,2.2,8.9,2.2L319,218.5
					L319,218.5z"/>
			</g>
			<g id="g15262">
				<path id="path15264" inkscape:connector-curvature="0" fill-rule="evenodd" clip-rule="evenodd" fill="#00A76D" d="M327.6,185.1
					v16c0,1.1,0.2,2.1,0.5,2.7c0.6,1.3,1.8,1.9,3.4,1.9s2.3-0.4,3.4-1.1c0.6-0.4,1.2-1,1.9-1.7v-13.7c0-1.3-0.3-2.1-0.8-2.5
					s-1.5-0.6-3-0.7v-0.8h8.2v17.6c0,1.1,0.2,1.9,0.6,2.4c0.4,0.4,1.3,0.6,2.6,0.6v0.7c-0.9,0.3-1.6,0.4-2,0.6
					c-0.4,0.1-1.2,0.4-2.2,0.7c-0.5,0.1-1.4,0.5-2.9,1.1c0,0-0.1,0-0.2-0.1c0,0,0-0.2,0-0.3v-4c-1.1,1.3-2.2,2.4-3.1,3
					c-1.4,1-2.9,1.5-4.6,1.5s-2.8-0.5-4.1-1.6c-1.3-1-2-2.7-2-5.1v-13c0-1.3-0.3-2.2-0.8-2.7c-0.4-0.3-1.2-0.5-2.4-0.6v-0.7h7.6
					L327.6,185.1z"/>
			</g>
			<g id="g15270">
				<path id="path15272" inkscape:connector-curvature="0" fill-rule="evenodd" clip-rule="evenodd" fill="#00A76D" d="M351,197.2
					c1.6-1,4.6-2.4,9.3-4.1V191c0-1.7-0.2-2.9-0.5-3.6c-0.6-1.1-1.8-1.7-3.6-1.7s-1.7,0.2-2.5,0.6c-0.8,0.4-1.2,1.1-1.2,1.9
					s0,0.5,0.1,1c0,0.5,0.1,0.8,0.1,0.9c0,0.9-0.3,1.6-1,2c-0.3,0.2-0.8,0.3-1.2,0.3c-0.7,0-1.3-0.3-1.7-0.7
					c-0.4-0.5-0.6-1.1-0.6-1.7c0-1.2,0.7-2.4,2.2-3.7s3.6-1.9,6.4-1.9s5.5,1,6.6,3.2c0.6,1.1,0.9,2.8,0.9,5v10.1c0,1,0,1.6,0.2,2
					c0.2,0.6,0.7,1,1.4,1s0.7,0,1-0.2c0.3-0.1,0.7-0.4,1.3-0.8v1.3c-0.5,0.6-1.1,1.2-1.7,1.6c-0.9,0.6-1.9,1-2.9,1s-2-0.4-2.5-1.1
					c-0.5-0.7-0.8-1.6-0.8-2.6c-1.3,1.1-2.4,1.9-3.3,2.5c-1.5,0.9-3,1.4-4.4,1.4s-2.7-0.5-3.8-1.5c-1.1-1-1.6-2.3-1.6-3.9
					c0-2.4,1.2-4.4,3.7-6.1 M360.3,194.4c-1.9,0.6-3.5,1.3-4.8,2.1c-2.4,1.5-3.6,3.2-3.6,5.1s0.5,2.6,1.5,3.4
					c0.7,0.5,1.4,0.7,2.2,0.7s2.2-0.3,3.2-0.9c1-0.6,1.5-1.4,1.5-2.4v-7.9L360.3,194.4z"/>
			</g>
			<g id="g15278">
				<path id="path15280" inkscape:connector-curvature="0" fill-rule="evenodd" clip-rule="evenodd" fill="#00A76D" d="M369.4,207.6
					c1.6-0.2,2.6-0.5,3.2-0.9c0.5-0.5,0.8-1.4,0.8-2.8v-24.5c0-1.1-0.1-1.9-0.3-2.3c-0.3-0.7-1-1-2-1s-0.5,0-0.8,0s-0.6,0.1-1,0.2
					v-0.8c2.3-0.6,5-1.4,8.2-2.4c0.1,0,0.2,0,0.2,0.2c0,0,0,0.3,0,0.6v30c0,1.5,0.2,2.4,0.7,2.8c0.5,0.4,1.6,0.7,3.1,0.8v0.7h-12.2
					L369.4,207.6L369.4,207.6z"/>
			</g>
			<g id="g15286">
				<path id="path15288" inkscape:connector-curvature="0" fill-rule="evenodd" clip-rule="evenodd" fill="#00A76D" d="M383.8,207.6
					c1.8-0.2,2.9-0.5,3.4-0.9s0.7-1.7,0.7-3.6v-12c0-1.1,0-1.8-0.2-2.2c-0.3-0.7-0.8-1-1.6-1s-0.4,0-0.6,0s-0.7,0.2-1.5,0.4v-0.8
					l1.1-0.4c2.9-1,5-1.7,6.2-2.2c0.5-0.2,0.8-0.3,0.9-0.3c0,0.1,0,0.2,0,0.4v18c0,1.9,0.2,3.1,0.7,3.6s1.5,0.8,3.2,0.9v0.7h-12.2
					v-0.7L383.8,207.6z M387.8,174.1c0.5-0.5,1.1-0.8,1.9-0.8s1.3,0.3,1.9,0.8c0.5,0.5,0.8,1.1,0.8,1.9s-0.3,1.3-0.8,1.8
					s-1.1,0.8-1.9,0.8s-1.4-0.3-1.9-0.8s-0.8-1.1-0.8-1.8S387.3,174.7,387.8,174.1"/>
			</g>
			<g id="g15294">
				<path id="path15296" inkscape:connector-curvature="0" fill-rule="evenodd" clip-rule="evenodd" fill="#00A76D" d="M410.3,185.2
					v1.8h-5.2v14.4c0,1.3,0,2.2,0.3,2.9c0.4,1.2,1.2,1.7,2.4,1.7s1.1-0.1,1.6-0.4c0.5-0.3,1-0.7,1.6-1.3l0.7,0.5l-0.6,0.8
					c-0.9,1.2-1.8,2-2.8,2.5s-1.9,0.7-2.8,0.7c-2,0-3.3-0.9-4-2.6c-0.4-0.9-0.6-2.3-0.6-4V187h-2.7l-0.2-0.1c0,0,0-0.1,0-0.2
					c0-0.2,0-0.3,0-0.4c0-0.1,0.3-0.3,0.7-0.6c1.2-1,2-1.7,2.5-2.3s1.8-2.2,3.6-4.7c0.2,0,0.3,0,0.4,0c0,0,0,0.1,0,0.4v6.2
					L410.3,185.2L410.3,185.2z"/>
			</g>
			<g id="g15302">
				<path id="path15304" inkscape:connector-curvature="0" fill-rule="evenodd" clip-rule="evenodd" fill="#00A76D" d="M412.2,185.3
					h10.7v0.8c-0.8,0-1.5,0-1.9,0.2c-0.8,0.2-1.2,0.6-1.2,1.3s0,0.5,0.1,0.7c0,0.2,0.2,0.6,0.5,1.1l5.9,13l4.7-13.1
					c0-0.1,0.1-0.4,0.2-0.9s0.2-0.8,0.2-1c0-0.4-0.2-0.8-0.5-0.9c-0.3-0.2-0.7-0.3-1.2-0.4h-0.8v-0.8h6.9v0.8
					c-0.7,0-1.2,0.3-1.6,0.7c-0.3,0.4-0.6,0.9-0.9,1.6l-8,20.9c-1.4,3.6-2.7,6.2-4,7.8c-1.2,1.6-2.8,2.4-4.8,2.4s-1.8-0.2-2.7-0.7
					c-0.8-0.5-1.2-1.2-1.2-2.2s0.3-1.2,0.7-1.6c0.5-0.4,1.1-0.6,1.9-0.6s1.1,0.2,1.9,0.5c0.9,0.3,1.5,0.5,1.9,0.5c1,0,1.9-1.1,3-3.2
					c1-2.2,1.6-3.6,1.6-4.4s0-0.3,0-0.5s-0.1-0.4-0.2-0.6l-8.1-17.3c-0.6-1.2-1.1-2.1-1.5-2.4c-0.4-0.4-1.1-0.6-1.9-0.8v-0.7
					L412.2,185.3z"/>
			</g>
			<g id="g15310">
				<path id="path15312" inkscape:connector-curvature="0" fill-rule="evenodd" clip-rule="evenodd" fill="#00A76D" d="M450.9,207.4
					c1.9-0.2,3.2-0.5,3.7-1c0.6-0.5,0.9-1.7,0.9-3.6V180c0-1.8-0.3-3-0.8-3.6s-1.8-0.9-3.7-1.1v-1h27.5l0.2,7.4h-1.3
					c-0.4-2.3-1.1-3.7-2-4.4s-2.8-1-5.9-1h-7c-0.8,0-1.2,0.1-1.4,0.4c-0.2,0.2-0.3,0.7-0.3,1.4v11.4h7.9c2.2,0,3.6-0.3,4.2-1
					s1.1-2,1.4-4h1.2v11.9h-1.2c-0.4-2-0.9-3.3-1.5-3.9c-0.6-0.6-2-1-4.2-1h-7.9v12.7c0,1,0.3,1.6,1,1.8s2.6,0.3,5.8,0.3
					s6.1-0.4,7.7-1.1c1.7-0.8,3.2-2.6,4.5-5.5h1.4l-2.3,8.7h-28L450.9,207.4L450.9,207.4z"/>
			</g>
			<g id="g15318">
				<path id="path15320" inkscape:connector-curvature="0" fill-rule="evenodd" clip-rule="evenodd" fill="#00A76D" d="M498.3,204.9
					c0.8-0.8,1.2-1.5,1.2-2.2v-10.8c0-2.2-0.6-3.7-1.8-4.6c-1.2-0.9-2.3-1.4-3.4-1.4c-2.1,0-3.8,1-4.9,2.8c-1.2,1.9-1.8,4.2-1.8,6.9
					s0.6,5.1,1.9,7.2c1.3,2.1,3.1,3.2,5.6,3.2s2.4-0.4,3.2-1.2 M497.5,185.4c0.7,0.3,1.3,0.8,1.9,1.5v-8c0-1-0.1-1.7-0.4-2.1
					c-0.2-0.4-0.8-0.6-1.6-0.6s-0.4,0-0.5,0s-0.5,0-1,0v-0.8l2.1-0.5c0.8-0.2,1.5-0.4,2.3-0.6c0.7-0.2,1.4-0.4,2-0.6
					c0.3,0,0.7-0.2,1.3-0.5h0.2v2.7c0,0.9,0,1.9,0,3c0,1,0,2,0,3v20.5c0,1.1,0,1.9,0.4,2.3s1,0.7,2.1,0.7h0.6c0.2,0,0.4,0,0.5,0v0.8
					c-0.1,0-1.3,0.4-3.7,1.2l-4,1.5l-0.2-0.2v-3.1c-1,1-1.8,1.7-2.5,2.2c-1.2,0.7-2.7,1.1-4.3,1.1c-2.9,0-5.2-1.1-7-3.3
					s-2.7-4.7-2.7-7.6s1.1-6.7,3.2-9.3s4.7-3.9,7.9-3.9s2.3,0.3,3.4,0.8"/>
			</g>
			<g id="g15326">
				<path id="path15328" inkscape:connector-curvature="0" fill-rule="evenodd" clip-rule="evenodd" fill="#00A76D" d="M515.8,185.1
					v16c0,1.1,0.2,2.1,0.5,2.7c0.6,1.3,1.8,1.9,3.5,1.9s2.3-0.4,3.3-1.1c0.6-0.4,1.3-1,1.9-1.7v-13.7c0-1.3-0.3-2.1-0.8-2.5
					s-1.5-0.6-3-0.7v-0.8h8.2v17.6c0,1.1,0.2,1.9,0.6,2.4c0.4,0.4,1.3,0.6,2.6,0.6v0.7c-0.9,0.3-1.6,0.4-2,0.6
					c-0.4,0.1-1.2,0.4-2.2,0.7c-0.4,0.1-1.4,0.5-2.9,1.1c0,0-0.1,0-0.2-0.1c0,0,0-0.2,0-0.3v-4c-1.1,1.3-2.2,2.4-3.1,3
					c-1.4,1-2.9,1.5-4.5,1.5s-2.8-0.5-4.1-1.6c-1.3-1-2-2.7-2-5.1v-13c0-1.3-0.3-2.2-0.8-2.7c-0.4-0.3-1.2-0.5-2.4-0.6v-0.7h7.5
					L515.8,185.1z"/>
			</g>
			<g id="g15334">
				<path id="path15336" inkscape:connector-curvature="0" fill-rule="evenodd" clip-rule="evenodd" fill="#00A76D" d="M551.9,186.3
					c1.5,1.1,2.3,2.2,2.3,3.5s-0.2,1.1-0.6,1.6c-0.4,0.5-1,0.7-1.8,0.7s-1.1-0.2-1.6-0.6c-0.4-0.4-0.7-1-0.9-1.8l-0.3-1.2
					c-0.2-0.9-0.6-1.5-1.1-1.9c-0.6-0.3-1.3-0.5-2.2-0.5c-1.9,0-3.5,0.9-4.9,2.5c-1.3,1.7-2,3.9-2,6.6s0.7,4.8,2.2,6.8s3.5,3,5.9,3
					s3.3-0.5,4.7-1.7c0.8-0.6,1.6-1.7,2.6-3.1l0.7,0.4c-1,2-2,3.6-3,4.8c-2,2.2-4.4,3.4-7.1,3.4s-4.9-1-7-3.1c-2-2.1-3-4.9-3-8.4
					s1.1-6.4,3.3-8.9s5-3.7,8.4-3.7C548.6,184.7,550.4,185.2,551.9,186.3"/>
			</g>
			<g id="g15342">
				<path id="path15344" inkscape:connector-curvature="0" fill-rule="evenodd" clip-rule="evenodd" fill="#00A76D" d="M562.1,197.2
					c1.5-1,4.6-2.4,9.3-4.1V191c0-1.7-0.2-2.9-0.5-3.6c-0.6-1.1-1.8-1.7-3.6-1.7s-1.7,0.2-2.5,0.6c-0.8,0.4-1.2,1.1-1.2,1.9
					s0,0.5,0.1,1c0,0.5,0.1,0.8,0.1,0.9c0,0.9-0.3,1.6-0.9,2c-0.4,0.2-0.8,0.3-1.3,0.3c-0.8,0-1.3-0.3-1.7-0.7
					c-0.4-0.5-0.6-1.1-0.6-1.7c0-1.2,0.7-2.4,2.2-3.7s3.6-1.9,6.4-1.9s5.5,1,6.6,3.2c0.6,1.1,0.9,2.8,0.9,5v10.1c0,1,0,1.6,0.2,2
					c0.2,0.6,0.6,1,1.3,1s0.7,0,1-0.2c0.2-0.1,0.7-0.4,1.3-0.8v1.3c-0.5,0.6-1.1,1.2-1.7,1.6c-0.9,0.6-1.9,1-2.9,1s-2-0.4-2.5-1.1
					c-0.5-0.7-0.8-1.6-0.8-2.6c-1.3,1.1-2.4,1.9-3.3,2.5c-1.5,0.9-3,1.4-4.4,1.4s-2.7-0.5-3.8-1.5s-1.6-2.3-1.6-3.9
					c0-2.4,1.2-4.4,3.7-6.1 M571.4,194.4c-1.9,0.6-3.5,1.3-4.8,2.1c-2.4,1.5-3.7,3.2-3.7,5.1s0.5,2.6,1.5,3.4
					c0.7,0.5,1.4,0.7,2.2,0.7s2.2-0.3,3.2-0.9c1-0.6,1.5-1.4,1.5-2.4v-7.9L571.4,194.4z"/>
			</g>
			<g id="g15350">
				<path id="path15352" inkscape:connector-curvature="0" fill-rule="evenodd" clip-rule="evenodd" fill="#00A76D" d="M592.7,185.2
					v1.8h-5.1v14.4c0,1.3,0,2.2,0.3,2.9c0.4,1.2,1.2,1.7,2.4,1.7s1.1-0.1,1.6-0.4c0.5-0.3,1-0.7,1.5-1.3l0.7,0.5l-0.6,0.8
					c-0.9,1.2-1.8,2-2.8,2.5s-1.9,0.7-2.8,0.7c-2,0-3.3-0.9-4-2.6c-0.4-0.9-0.6-2.3-0.6-4V187h-2.7c-0.1,0-0.2-0.1-0.2-0.1
					s0-0.1,0-0.2c0-0.2,0-0.3,0.1-0.4c0-0.1,0.3-0.3,0.7-0.6c1.2-1,2-1.7,2.5-2.3s1.7-2.2,3.6-4.7c0.2,0,0.3,0,0.4,0
					c0,0,0,0.1,0,0.4v6.2h5.1L592.7,185.2z"/>
			</g>
			<g id="g15358">
				<path id="path15360" inkscape:connector-curvature="0" fill-rule="evenodd" clip-rule="evenodd" fill="#00A76D" d="M594.9,207.6
					c1.8-0.2,2.9-0.5,3.4-0.9s0.7-1.7,0.7-3.6v-12c0-1.1,0-1.8-0.2-2.2c-0.2-0.7-0.8-1-1.6-1s-0.4,0-0.5,0c-0.2,0-0.7,0.2-1.5,0.4
					v-0.8l1.1-0.4c2.9-1,5-1.7,6.1-2.2c0.5-0.2,0.8-0.3,0.9-0.3c0,0.1,0,0.2,0,0.4v18c0,1.9,0.2,3.1,0.7,3.6s1.5,0.8,3.2,0.9v0.7
					h-12.3v-0.7L594.9,207.6z M598.9,174.1c0.5-0.5,1.1-0.8,1.9-0.8s1.3,0.3,1.8,0.8s0.8,1.1,0.8,1.9s-0.3,1.3-0.8,1.8
					s-1.1,0.8-1.8,0.8s-1.3-0.3-1.9-0.8c-0.5-0.5-0.8-1.1-0.8-1.8S598.4,174.7,598.9,174.1"/>
			</g>
			<g id="g15366">
				<path id="path15368" inkscape:connector-curvature="0" fill-rule="evenodd" clip-rule="evenodd" fill="#00A76D" d="M616.8,187.6
					c-1.7,1.5-2.5,4.1-2.5,7.9s0.7,5.8,2,8.3c1.3,2.6,3.2,3.9,5.6,3.9s3.3-0.9,4.3-2.6c1-1.7,1.6-4,1.6-6.8s-0.7-5.6-2-8.2
					c-1.3-2.5-3.2-3.8-5.6-3.8s-2.5,0.4-3.5,1.3 M612.8,188.2c2.1-2.3,4.9-3.4,8.2-3.4s6.1,1.1,8.3,3.3s3.3,5.1,3.3,8.7
					s-1.1,6.2-3.2,8.7c-2.1,2.5-4.9,3.7-8.2,3.7s-6-1.2-8.2-3.5c-2.2-2.4-3.4-5.3-3.4-8.9s1.1-6.1,3.2-8.4"/>
			</g>
			<g id="g15374">
				<path id="path15376" inkscape:connector-curvature="0" fill-rule="evenodd" clip-rule="evenodd" fill="#00A76D" d="M635,207.6
					c1.2-0.2,2-0.5,2.5-0.9s0.7-1.4,0.7-3V191c0-1.1-0.1-1.8-0.3-2.3c-0.3-0.6-1-0.9-2-0.9s-0.3,0-0.5,0s-0.4,0-0.6,0v-0.9
					c0.7-0.2,2.3-0.7,4.9-1.5l2.4-0.8c0.1,0,0.2,0,0.2,0.1c0,0,0,0.2,0,0.4v3.7c1.6-1.4,2.8-2.4,3.6-3c1.3-0.8,2.7-1.2,4.1-1.2
					s2.2,0.3,3.1,1c1.8,1.3,2.7,3.5,2.7,6.8v11.7c0,1.2,0.3,2.1,0.7,2.6c0.5,0.5,1.3,0.8,2.5,0.8v0.7h-10.8v-0.7
					c1.2-0.2,2.1-0.5,2.6-1s0.7-1.6,0.7-3.3v-10.7c0-1.4-0.3-2.6-0.8-3.5c-0.5-1-1.5-1.4-3-1.4s-2,0.3-3,1c-0.6,0.4-1.3,1-2.2,1.9
					v14c0,1.2,0.3,2,0.8,2.4s1.4,0.6,2.6,0.7v0.7h-11L635,207.6L635,207.6z"/>
			</g>
			<g id="g15382">
				<path id="path15384" inkscape:connector-curvature="0" fill-rule="evenodd" clip-rule="evenodd" fill="#00A76D" d="M673.5,207.4
					c2-0.2,3.3-0.6,3.8-1.1s0.8-1.9,0.8-4.1V180c0-1.8-0.3-3-0.8-3.6c-0.6-0.6-1.8-0.9-3.7-1.1v-1h27.6l0.2,7.4H700
					c-0.4-2.4-1-3.8-2-4.5c-1-0.6-2.9-1-5.8-1h-7.1c-0.7,0-1.1,0.1-1.3,0.4c-0.2,0.2-0.3,0.7-0.3,1.4v11.4h7.5c2.2,0,3.6-0.3,4.2-1
					c0.6-0.7,1.1-2,1.5-4h1.2v11.9h-1.2c-0.4-2-0.9-3.3-1.5-3.9c-0.6-0.6-2-1-4.2-1h-7.5v11.2c0,1.9,0.3,3.1,0.9,3.6
					c0.6,0.5,1.9,0.9,3.8,1v0.9h-14.5v-0.9L673.5,207.4z"/>
			</g>
			<g id="g15390">
				<path id="path15392" inkscape:connector-curvature="0" fill-rule="evenodd" clip-rule="evenodd" fill="#00A76D" d="M709.7,185.1
					v16c0,1.1,0.2,2.1,0.5,2.7c0.6,1.3,1.8,1.9,3.4,1.9s2.3-0.4,3.4-1.1c0.6-0.4,1.2-1,1.9-1.7v-13.7c0-1.3-0.2-2.1-0.8-2.5
					c-0.5-0.4-1.5-0.6-3-0.7v-0.8h8.2v17.6c0,1.1,0.2,1.9,0.6,2.4c0.4,0.4,1.3,0.6,2.6,0.6v0.7c-0.9,0.3-1.6,0.4-2,0.6
					c-0.4,0.1-1.2,0.4-2.2,0.7c-0.4,0.1-1.4,0.5-2.9,1.1c0,0-0.1,0-0.1-0.1c0,0,0-0.2,0-0.3v-4c-1.2,1.3-2.2,2.4-3.2,3
					c-1.4,1-2.9,1.5-4.5,1.5s-2.8-0.5-4.2-1.6c-1.3-1-2-2.7-2-5.1v-13c0-1.3-0.3-2.2-0.9-2.7c-0.4-0.3-1.1-0.5-2.4-0.6v-0.7h7.5
					L709.7,185.1z"/>
			</g>
			<g id="g15398">
				<path id="path15400" inkscape:connector-curvature="0" fill-rule="evenodd" clip-rule="evenodd" fill="#00A76D" d="M728.5,207.6
					c1.2-0.2,2-0.5,2.5-0.9s0.7-1.4,0.7-3V191c0-1.1-0.1-1.8-0.3-2.3c-0.3-0.6-1-0.9-2-0.9s-0.3,0-0.5,0c-0.1,0-0.3,0-0.6,0v-0.9
					c0.7-0.2,2.3-0.7,4.9-1.5l2.4-0.8c0.1,0,0.2,0,0.2,0.1c0,0,0,0.2,0,0.4v3.7c1.5-1.4,2.8-2.4,3.6-3c1.3-0.8,2.7-1.2,4.1-1.2
					s2.2,0.3,3.1,1c1.8,1.3,2.7,3.5,2.7,6.8v11.7c0,1.2,0.3,2.1,0.7,2.6c0.5,0.5,1.3,0.8,2.4,0.8v0.7h-10.8v-0.7
					c1.2-0.2,2.1-0.5,2.6-1s0.7-1.6,0.7-3.3v-10.7c0-1.4-0.3-2.6-0.8-3.5c-0.5-1-1.5-1.4-3-1.4s-2,0.3-3,1c-0.6,0.4-1.3,1-2.2,1.9
					v14c0,1.2,0.3,2,0.8,2.4s1.4,0.6,2.5,0.7v0.7h-11v-0.7L728.5,207.6z"/>
			</g>
			<g id="g15406">
				<path id="path15408" inkscape:connector-curvature="0" fill-rule="evenodd" clip-rule="evenodd" fill="#00A76D" d="M769.8,204.9
					c0.8-0.8,1.2-1.5,1.2-2.2v-10.8c0-2.2-0.6-3.7-1.8-4.6c-1.2-0.9-2.3-1.4-3.4-1.4c-2.1,0-3.8,1-4.9,2.8c-1.2,1.9-1.8,4.2-1.8,6.9
					s0.6,5.1,1.9,7.2c1.3,2.1,3.2,3.2,5.6,3.2s2.4-0.4,3.2-1.2 M769.1,185.4c0.7,0.3,1.3,0.8,1.9,1.5v-8c0-1-0.1-1.7-0.4-2.1
					c-0.2-0.4-0.8-0.6-1.6-0.6s-0.4,0-0.5,0c-0.2,0-0.5,0-1,0v-0.8l2.1-0.5c0.7-0.2,1.5-0.4,2.3-0.6c0.7-0.2,1.4-0.4,2-0.6
					c0.3,0,0.7-0.2,1.3-0.5h0.1v2.7c0,0.9,0,1.9,0,3c0,1,0,2,0,3v20.5c0,1.1,0,1.9,0.3,2.3c0.3,0.4,1,0.7,2.2,0.7h0.6
					c0.2,0,0.4,0,0.6,0v0.8c-0.1,0-1.3,0.4-3.7,1.2l-4,1.5l-0.2-0.2v-3.1c-0.9,1-1.8,1.7-2.4,2.2c-1.2,0.7-2.7,1.1-4.3,1.1
					c-2.8,0-5.2-1.1-7-3.3s-2.6-4.7-2.6-7.6s1.1-6.7,3.2-9.3c2.1-2.6,4.7-3.9,7.8-3.9s2.3,0.3,3.4,0.8"/>
			</g>
			<g id="g15414">
				<path id="path15416" inkscape:connector-curvature="0" fill="#0076C0" d="M21.9,108.4h76.9c0,0-11.6,183.7,100.1,118l1.1-0.7
					c-18.9,18.5-43.5,29.7-70.4,29.7c-59.5,0-120.2-53.9-107.7-147.1"/>
			</g>
			<g id="g15422">
				<path id="path15424" inkscape:connector-curvature="0" fill="#00A651" d="M264.6,253.7v1h-60.4c0,0,9.1-81.7-78.6-48.3l-0.8,0.3
					c14.8-9.4,34.1-15.1,55.3-15.1c46.7,0,84.6,27.8,84.6,62"/>
			</g>
			<g id="g15430">
				<path id="path15432" inkscape:connector-curvature="0" fill="#0076C0" d="M52.4,104.7c9.7-55,49.5-96.1,97-96.1
					s99.2,54.7,99.2,122.1s-0.3,11.6-1,17.3h-64.9c0.8-24.3-1.8-96-49.3-102.3C85.5,39.3,58.5,91.4,52.4,104.7"/>
			</g>
			<g id="g15438">
				<path id="path15440" inkscape:connector-curvature="0" d="M318.8,127.7c0-0.1,0-0.2,0.2-0.2c0.8,0,2.2,0.5,4.3,1.3
					c2,0.9,3,1.9,3,3s-0.2,0.8-0.6,1.1s-0.8,0.5-1.3,0.5c-1,0-1.9-0.8-2.7-2.4c-0.8-1.3-1.5-2.1-2.1-2.5c-0.6-0.3-0.9-0.6-0.9-0.8
					 M312.8,130.5c-1,0-1.6-0.4-1.8-1.3c-0.2-0.9-0.6-1.5-1.1-2s-0.7-0.7-0.7-0.8s0.1-0.2,0.4-0.2s1,0.2,2.1,0.6c1,0.4,1.7,0.7,2,1
					c0.4,0.3,0.5,0.7,0.5,1.3c0,0.9-0.5,1.3-1.4,1.3 M306.3,124h10.8v-2.2h-10.8V124z M306.3,120.2h10.8V118h-10.8V120.2z
					 M317.1,114.5h-10.8v2h10.8V114.5z M311.2,141.7c1.8-1.6,3.1-2.8,3.8-3.6h-8.8C307.2,139.2,308.8,140.4,311.2,141.7
					 M320.4,131.7c-0.7,1.2-1.5,2-2.4,2.4s-2.3,0.5-4.2,0.5s-4.6-0.1-6.4-0.4c-1.8-0.3-2.7-0.7-2.9-1.3c-0.1-0.6-0.2-1.8-0.2-3.6
					v-1.1c0-0.2-0.1-0.3-0.2-0.6c-0.1-0.3-0.2-0.4-0.2-0.5c0-0.2,0.1-0.3,0.4-0.3c0.5,0,1.3,0.2,2.7,0.5c1.4,0.3,2,0.6,2,0.8
					s-0.3,0.4-1,0.8v1.8c0,0.6,0.8,1,2.5,1h3c1.6,0,2.7-0.6,3.3-1.9c0.6-1.2,0.9-1.9,1.1-1.9s0.3,0.4,0.3,1.3s0.7,1.7,2.2,2.4
					 M297.3,131.8c0-0.6,0.6-1.2,1.7-1.8s1.8-1.3,2.1-1.9c0.3-0.7,0.5-1,0.6-1c0.5,0,0.7,0.9,0.7,2.8s-0.3,1.6-0.9,2.3
					s-1.3,1.1-2.2,1.1c-1.3,0-2-0.5-2-1.4 M309.1,143.3c-1.2-1.1-2.4-2.6-3.7-4.5c-2.4,1.8-4.5,3.2-6.3,4.2c-1.9,1-2.9,1.4-3.1,1.4
					s-0.3,0-0.3-0.2s0.3-0.5,0.9-1c4-3.5,6.3-6.4,6.8-8.5c0.1-0.4,0.2-0.6,0.3-0.8h0.2c0.4,0,1.4,0.2,3,0.7s2.4,0.8,2.4,1
					s-0.3,0.4-1,0.8h7.1c1.1-0.8,1.8-1.1,2-1.1s1.2,0.4,2.7,1.3c1.4,0.8,2.2,1.4,2.2,1.7s-0.7,0.6-2,0.8c-3.2,2.5-5.1,3.9-5.5,4.2
					c4.7,1.6,8.8,2.5,12.2,2.8c0.2,0,0.6,0,1.1,0.1c0.5,0,0.8,0.2,0.8,0.3s-0.5,0.3-1.6,0.6s-2.4,1.3-4,2.9
					c-3.3-0.9-7.2-2.5-11.6-4.8c-3.9,1.9-7.3,3.2-10.3,3.9s-5,1.1-5.9,1.1s-0.7,0-0.7-0.2s0.9-0.5,2.8-1.1c4.3-1.5,8.1-3.4,11.5-5.7
					 M300.3,124h1.5v-8.9c0-1.1,0-1.9-0.3-2.4c-0.2-0.4-0.3-0.7-0.3-0.9s0.2-0.2,0.5-0.2c0.5,0,1.5,0.2,2.7,0.7l1.8,0.6h2.4
					c0-0.4,0.2-1.5,0.4-3.4h-7.8l-1,0.7l-2.3-2.5c1.9,0.2,3,0.2,3.4,0.2h17.9c1.9-1.5,2.9-2.3,3-2.3c0.2,0,1,0.5,2.3,1.4s2,1.6,2,2
					s-0.2,0.5-0.7,0.5h-11.2c0,0-0.1,0.2-0.3,0.4l-0.8,0.5c-0.8,0.9-1.6,1.8-2.3,2.5h5.3c0.9-1.1,1.5-1.6,1.9-1.6s0.8,0.3,2.3,0.9
					s2.2,1.1,2.2,1.4s-0.5,0.7-1.4,1.3v9h1.3c0.9-0.8,1.4-1.2,1.7-1.2c0.6,0,1.4,0.5,2.6,1.5s1.8,1.7,1.8,2.1s-0.8,0.6-2.5,0.6
					c-1,0-1.8,0.3-2.5,0.8s-1.1,0.7-1.2,0.7c-0.2,0-0.2,0-0.2-0.3s0.2-1.1,0.7-2.6h-22.7c-0.5,2.4-1.8,3.6-3.8,3.6s-2.1-0.5-2.1-1.6
					s0.6-1.4,1.9-2.2c1.3-0.8,2-1.6,2.1-2.3c0-0.9,0.2-1.3,0.5-1.3s0.8,0.7,1.2,2.2 M297.4,107.9c-2.3,4-4,7-5.3,9
					c1.5,0.5,2.3,0.8,2.3,1s-0.4,0.5-1.1,1v24.6l0.3,4.7c-1.4,0.5-3.2,1-5.2,1.4c0.3-2.4,0.4-4.4,0.4-5.7v-22.1
					c-3.5,4.4-5.7,6.5-6.5,6.5s-0.2-0.1-0.2-0.3s0-0.2,0-0.3c2.1-3,4.2-7,6.3-12.1c2.1-5.1,3.1-8.1,3.2-9.1c0-1,0.2-1.6,0.3-1.9h0.2
					c0.6,0,1.9,0.3,3.9,1s3,1.1,3,1.4s-0.6,0.5-1.7,0.9"/>
			</g>
			<g id="g15446">
				<path id="path15448" inkscape:connector-curvature="0" d="M406.6,150.3c-1,0-2.4-0.9-4.4-2.7s-4.6-3.4-7.8-4.8
					c-0.6-0.3-1-0.5-1-0.5c0-0.2,0.2-0.3,0.5-0.3c1,0,3,0.3,6.2,1s5.5,1.5,6.8,2.5s2,2,2,2.9s-0.2,1-0.7,1.4s-1.1,0.6-1.8,0.6
					 M397.2,114.1h9.9c1.7-1.4,2.6-2.1,2.7-2.1c0.3,0,1,0.5,2.1,1.5s1.7,1.6,1.7,1.8s-0.2,0.4-0.7,0.4h-6c-0.3,0.2-0.7,0.5-1.1,0.6
					v4.7c0,0.5,0.1,1.6,0.3,3.4c-1.5,0.5-3.2,0.8-5.2,1.1c0.2-1.9,0.3-3.1,0.3-3.5v-6.2H397c-0.4,4.2-1.9,7.2-4.5,9
					c-2.6,1.7-4.2,2.6-4.8,2.6s-0.3,0-0.3-0.3s0.1-0.3,0.3-0.4c2-1.9,3.3-3.8,3.9-5.7c0.6-1.9,0.9-4.5,0.9-7.7v-4.4
					c0-0.2,0-0.5-0.2-0.8c-0.1-0.3-0.2-0.6-0.2-0.8s0.1-0.3,0.3-0.3c0.4,0,2.1,0.6,5.2,1.9c6.1-1.6,9.4-2.7,10-3.4
					c0.4,0.2,1,0.9,2,2c0.9,1.1,1.4,1.8,1.4,2s-0.5,0.2-1.5,0.2c-2.5,0-6.6,0.2-12.3,0.7L397.2,114.1L397.2,114.1z M381.1,139.6
					h19.2v-2.4h-19.2V139.6z M381.1,135.5h19.2v-2.2h-19.2V135.5z M381.1,131.7h19.2v-2.5h-18.5l-0.6,0.5v2H381.1z M376,142.6
					c0.3-2.9,0.4-4.7,0.4-5.3v-7.7c0-0.9-0.1-1.6-0.4-2.2c-0.3-0.6-0.4-1-0.4-1.1s0-0.2,0.3-0.2c0.5,0,1.6,0.3,3.6,0.8l2.7,0.8h17.3
					c1.2-1.1,1.9-1.7,2.2-1.7s1,0.4,2.5,1.1c1.6,0.7,2.3,1.2,2.3,1.5s-0.5,0.7-1.5,1.2v6.5l0.3,5c-0.8,0.4-2.6,0.7-5.3,1.1l0.2-1.3
					H381v0.7c-1.6,0.3-3.3,0.6-5.1,0.8 M379,108.9c4.5-1.5,7-2.5,7.7-3.2c0.4-0.3,0.6-0.5,0.7-0.5c0.2,0,0.9,0.6,2,1.9
					c1.1,1.2,1.7,1.9,1.7,2c0,0.2-0.1,0.3-0.3,0.3c-0.9,0-2.8,0.2-5.9,0.5s-5.3,0.5-6.6,0.7l-0.2,3.5h7.5c1.4-1.4,2.3-2.1,2.5-2.1
					s0.9,0.5,2,1.4s1.7,1.5,1.7,1.8s-0.2,0.5-0.7,0.5h-3.6c-0.4,0.3-0.7,0.4-0.9,0.5v5.1c0,0.3,0,1.6,0.2,4
					c-1.4,0.3-3.1,0.6-5.1,0.8c0.3-3.1,0.4-6.6,0.3-10.4h-4.2l-0.3,2.3c-0.4,3.2-1.9,5.7-4.6,7.6s-4.2,2.9-4.5,2.9s-0.3,0-0.3-0.3
					s0.2-0.4,0.7-0.9c3.3-3.6,5-9.1,5-16.5s0-1.8-0.2-2.3s-0.2-0.8-0.2-1s0-0.3,0.3-0.3c0.4,0,2.3,0.6,5.6,1.9 M386.8,145.4
					l-7.4,2.4c-5.3,1.6-9.2,2.3-11.5,2.3s-0.4,0-0.4-0.2s0.2-0.3,0.5-0.4c3.1-1.1,6.3-2.5,9.7-4.3c3.4-1.8,5.3-2.9,5.7-3.3
					c0.4-0.4,0.7-0.6,0.7-0.6c0.2,0,1.1,0.6,2.7,1.8s2.5,1.9,2.5,2.2s-0.2,0.4-0.5,0.4h-2L386.8,145.4z"/>
			</g>
			<g id="g15454">
				<path id="path15456" inkscape:connector-curvature="0" d="M495,118.7h-5.5l-1.9,4.8c0.4,3.4,1.3,6.7,2.7,9.9
					C492,130.2,493.6,125.3,495,118.7 M497.4,117c1.7-1.3,2.7-2,3-2s1,0.5,2.1,1.4c1.1,1,1.7,1.5,1.7,1.8s-0.2,0.5-0.7,0.5h-6
					c1.4,0.5,2.5,0.8,3.2,1.1c0.7,0.3,1,0.6,1,1s-0.5,0.5-1.5,0.7c-2.7,7.7-5.2,13.1-7.4,16.3c1.7,2.1,3.4,3.9,5.1,5.6
					c1.7,1.7,3.2,2.8,4.4,3.4c1.2,0.6,1.8,1.1,1.8,1.3s-0.5,0.3-1.7,0.3s-2.7,0.5-4.7,1.4c-3.4-3-5.9-5.9-7.5-8.7
					c-3.3,3.1-6.3,5.4-8.9,6.9c-2.7,1.5-4.1,2.2-4.4,2.2s-0.3,0-0.3-0.2s0.3-0.3,0.9-0.9l1.8-1.6c3.3-3,6.2-6.3,8.8-10
					c-0.9-2.4-1.5-6.1-1.8-11.2c-2.4,4-3.9,6.1-4.7,6.4c-0.2,0-0.3-0.2-0.3-0.3c0-0.2,0.3-1.2,1-2.8c1.6-3.6,3-9.1,4.4-16.6l0.8-4.2
					c0.2-1.2,0.3-2.1,0.3-2.8s0-0.3,0-0.6c0-0.3,0-0.5,0-0.6s0-0.1,0-0.2c0,0,0,0,0.2,0l3.4,0.9c2.4,0.6,3.6,1.2,3.6,1.7
					s-0.7,0.5-2,0.7l-1.1,3.4c-0.8,2.4-1.3,4.2-1.6,5.5h7.2L497.4,117z M475.7,112.4c5,1.5,7.5,3.3,7.5,5.2s-0.2,0.8-0.5,1.1
					c-0.3,0.3-0.8,0.5-1.3,0.5c-1.2,0-2.2-0.4-3-1.2c-1.9-1.8-3.7-3.1-5.5-4.1c-2.1,1.3-4.5,2.3-7.4,3.2c-2.9,0.9-4.6,1.4-5.3,1.4
					s-0.1-0.1-0.1-0.3c3.5-1.6,6.7-3.4,9.5-5.5c-0.7-0.5-3.8-1.7-9.5-3.6c0.1-0.2,0.2-0.3,0.3-0.3c0.5,0,2.2,0.2,5,0.7
					s4.9,1,6.4,1.6c3.1-2.2,4.9-4.1,5.3-5.6c0,0,0.1,0,0.2,0c0.3,0,1.3,0.4,2.8,1.3s2.3,1.5,2.3,1.9s-0.9,0.7-2.6,0.7
					C479.3,109.7,477.9,110.7,475.7,112.4 M483.3,123.1h-10.5c-1.3,1.9-2.1,3.1-2.6,3.6h4c1-1,1.7-1.5,2.1-1.5s1.2,0.5,2.6,1.4
					c1.4,1,2.1,1.6,2.1,2s-0.6,0.5-2,0.8c-1.3,0.3-3,1.3-5.1,3.2c1.1,0.4,1.7,0.8,1.7,1.1s-0.5,0.5-1.4,1.1v1.2
					c0.8,0,2.2-0.3,4.4-0.7c2.1-0.4,3.5-0.6,4.2-0.6s0.4,0.1,0.4,0.3s-0.8,0.4-2.5,0.9l-6.4,2v7.7c0,2.2-2,3.5-6,3.9
					c-0.4-1.8-1.7-2.9-3.9-3.6c-0.9-0.3-1.4-0.4-1.4-0.5c0-0.2,0.2-0.4,0.5-0.4l4.2,0.2c0.7,0,1.2,0,1.5-0.2
					c0.3-0.1,0.4-0.4,0.4-0.9v-4.5c-2.6,0.7-5,1.5-7.2,2.4l-2.5-4.3c1,0,4.2-0.3,9.6-0.9v-2.5c0-1.2,0-2-0.2-2.4
					c-0.1-0.4-0.2-0.6-0.2-0.6c0-0.2,0.2-0.3,0.5-0.3s1.1,0.3,3,0.9l1.9-3.8h-5.3c-2.7,2.6-5.2,4.5-7.6,5.8s-3.8,2-4.3,2
					s-0.3-0.1-0.3-0.3s0.1-0.2,0.4-0.5c2.8-1.7,5.3-4,7.5-7.1h-1.3l-1.2,0.5l-1.6-2.4c1.9,0.3,3.6,0.3,5.1,0.2
					c0.5-0.5,1.3-1.7,2.4-3.6h-5.8l-1.6,0.8l-2.4-2.7l3.6,0.3h7.1c1.1-2.6,1.7-4,1.7-4.2s0-0.5,0-0.7s0-0.4,0-0.5v-0.1
					c0.3,0,1.2,0.5,2.9,1.4c1.7,1,2.5,1.6,2.5,2s-0.5,0.6-1.6,0.8c0,0-0.1,0.2-0.3,0.4c-0.1,0.2-0.4,0.5-0.6,1h3l2.5-1.7
					c0,0,0.1,0,0.2,0s0.2,0,0.3,0c0.3,0,1,0.5,2,1.4s1.5,1.4,1.5,1.5s0,0.2,0,0.3c0,0.1,0,0.2,0,0.2"/>
			</g>
			<g id="g15462">
				<path id="path15464" inkscape:connector-curvature="0" d="M566.1,104.6c0.2,0,0.5,0,1,0.1c0.4,0.1,0.7,0.2,0.9,0.2
					c1.2,0.2,2.7,0.7,4.5,1.5c1.7,0.8,2.6,1.9,2.6,3.3s-0.3,1.2-0.9,1.6c-0.6,0.5-1.3,0.7-2.2,0.7s-2.1-0.9-2.6-2.6
					c-0.6-1.7-1.7-3.2-3.3-4.3c-0.1,0-0.2-0.2-0.2-0.4C565.9,104.7,565.9,104.6,566.1,104.6 M563.2,138.1h16.3v-3.9h-16.3V138.1z
					 M563.2,132.6h16.3v-3.8h-15.7l-0.7,0.5v3.3H563.2z M564.4,127.1h14.8c1.2-1.2,1.8-1.7,2-1.7s1.1,0.4,2.8,1.4
					c1.7,0.9,2.5,1.4,2.5,1.4c0,0.2-0.6,0.6-1.9,1.4v17c0,1.6-0.5,2.6-1.3,2.9c-0.9,0.4-2.8,0.7-5.8,0.9c-0.3-1.9-1.1-3.1-2.4-3.6
					c-1.3-0.5-2-0.9-2-1s0.1-0.1,0.3-0.1c0.5,0,1.2,0,2.1,0c0.9,0,1.6,0,2.1,0c1.3,0,1.9-0.3,1.9-1v-4.9h-16.3v4.3l0.2,5.1
					c-3,0.5-4.8,0.8-5.5,0.9c0.3-2.4,0.4-4.1,0.4-5.2v-15.6c0-1.6-0.1-2.6-0.4-3.1c-0.3-0.5-0.4-0.8-0.4-1s0.1-0.2,0.4-0.2
					s1.5,0.4,3.5,1.1l2.9,1L564.4,127.1z M586.3,112.5c1.8-1.4,2.8-2.1,3-2.1c0.3,0,1.1,0.5,2.4,1.6c1.3,1,1.9,1.7,1.9,1.9
					s-0.2,0.3-0.7,0.3h-20.5c1.2,0.6,1.9,1.1,1.9,1.3s-0.8,0.5-2.4,0.4c-2.7,1.3-6.5,2.9-11.2,4.8c7.2-0.1,14.5-0.2,21.7-0.2
					c-1.6-1.7-2.9-2.8-4-3.4s-1.6-1.1-1.6-1.3s0,0,0.2,0c0.7,0,2.3,0.4,4.9,1.3c2.6,0.8,4.5,1.8,5.7,3c1.2,1.1,1.8,2.2,1.8,3.1
					s-0.2,1.3-0.7,1.8s-1.1,0.7-1.9,0.7s-1.1-0.2-1.5-0.6s-1.1-1.5-2.1-3.3c-15.7,1.1-25.2,2-28.4,2.7l-1.5-4.8
					c4.7-0.2,9-2.1,13-5.6h-14.5l-1,0.6l-2.1-2.5c1.6,0.2,2.8,0.2,3.5,0.2L586.3,112.5L586.3,112.5z"/>
			</g>
			<path id="path15470" inkscape:connector-curvature="0" d="M657.4,127.3H669v-3.4h-11.6V127.3z M657.4,122.3H669V119h-11.6V122.3z
				 M657.4,117.4H669v-3.2h-11.6V117.4z M660.7,140.3h-7.5l-1,0.6l-1.9-2.5c1.8,0.2,2.8,0.2,3.2,0.2h7.1v-1.8c0-1.3-0.1-2.2-0.4-2.6
				c-0.3-0.4-0.5-0.7-0.5-0.8c0-0.2,0.2-0.3,0.6-0.3s1.3,0.2,3.2,0.6c2,0.4,3.1,0.7,3.4,0.8c0.3,0.1,0.5,0.3,0.5,0.5
				s-0.6,0.7-1.9,1.4v2.2h3.3c1.3-1.3,2.1-2,2.6-2s0.7,0.4,2,1.3c1.2,0.9,1.8,1.5,1.8,1.8s-0.3,0.5-1.1,0.5h-8.6v6.4h9.9
				c1.7-1.4,2.6-2.1,2.9-2.1c0.4,0,1.1,0.5,2.2,1.5c1.1,1,1.6,1.6,1.6,1.7c0,0.4-0.4,0.6-1.1,0.6h-32.8l-1,0.6l-1.8-2.5
				c1.4,0.1,2.5,0.2,3.2,0.2h11.9v-6.4l0,0L660.7,140.3z M654.4,129h-11l-1,0.8l-1.8-2.7c1.8,0.2,2.8,0.3,3.2,0.3h8.8v-13.2h-7.5
				l-0.9,0.8l-1.8-2.7c1.7,0.2,2.8,0.2,3.3,0.2h7v-2.8c0-1.7-0.2-2.7-0.5-3.2s-0.5-0.8-0.5-1s0.2-0.3,0.6-0.3c0.7,0,2.1,0.2,4,0.7
				c2,0.5,2.9,0.9,2.9,1.2s-0.6,0.7-2,1.4v4h11.6v-2.7c0-1.7-0.2-2.8-0.5-3.3s-0.5-0.8-0.5-0.9c0-0.3,0.2-0.4,0.6-0.4
				c0.6,0,1.8,0.2,3.5,0.6s2.7,0.7,3,0.9c0.3,0.2,0.4,0.4,0.4,0.6s-0.6,0.6-1.8,1.3v3.9h4.7c1.2-1.1,1.9-1.7,2.2-1.7
				c0.4,0,1.2,0.4,2.2,1.3c1.1,0.8,1.6,1.4,1.6,1.6s-0.3,0.5-1,0.5h-9.7v13.2h6.9c1.3-1.2,2.1-1.8,2.5-1.8s1,0.4,2.1,1.3
				c1,0.9,1.6,1.4,1.6,1.7s-0.2,0.4-0.7,0.4h-17.5c4.3,3.2,10.2,5.8,17.7,7.5c0.5,0,0.7,0.2,0.7,0.4s-0.4,0.3-1.2,0.4
				c-2.3,0.4-4.1,1.4-5.5,2.7c-4.8-2.4-7.9-4.2-9.3-5.6c-1.4-1.4-2.8-3.2-4.2-5.5h-9c2.3,1.1,3.4,1.8,3.4,2.3s-0.6,0.5-1.9,0.5
				c-4.1,2.5-8.1,4.4-12.2,5.9c-4.1,1.4-6.3,2.1-6.7,2.1s-0.3,0-0.3-0.2s0-0.3,0.2-0.3c6.7-3.7,11.5-7.1,14.2-10.2"/>
			<g id="g15476">
				<path id="path15478" inkscape:connector-curvature="0" d="M741.2,136.7c0,0,0.1-0.1,0.4-0.1c0.9,0,2.6,0.6,5,1.7
					c2.4,1.1,3.7,2.4,3.7,3.9s-0.3,1.1-0.7,1.5c-0.5,0.5-1,0.7-1.7,0.7s-1.4-0.3-1.8-0.9c-0.4-0.6-1.1-1.8-1.9-3.6
					C744,139.3,743,138.2,741.2,136.7 M736,146.1c2.1,0.2,3.4,0.3,3.8,0.3h13.4V135h-11.1l-1,0.6l-1.9-2.5c1.5,0.2,2.6,0.3,3.4,0.3
					h10.6v-7h-7.9l-1.3,0.7l-2-2.6c1.9,0.2,3,0.3,3.2,0.3h17.3c1.4-1.1,2.3-1.7,2.6-1.7s1.1,0.4,2.1,1.2c1,0.8,1.5,1.4,1.5,1.7
					s-0.2,0.5-0.7,0.5h-8.6c-0.3,0.4-0.6,0.7-0.9,0.8v6.2h8.3c1.6-1.3,2.6-1.9,3-1.9s1.1,0.4,2.3,1.3c1.2,0.9,1.8,1.5,1.8,1.8
					s-0.2,0.4-0.7,0.4h-14.7v10c0.4-0.4,1.6-1.3,3.3-2.7c1.8-1.4,3.1-2.7,3.8-3.8c0.8-1.1,1.3-1.7,1.4-1.7s1,0.5,2.4,1.6
					s2.1,1.7,2.1,2s-0.6,0.5-1.8,0.5c-5.7,3-9.4,4.8-11.3,5.4v0.3h11.4c1.9-1.3,2.9-1.9,3.1-1.9c0.4,0,1.2,0.5,2.5,1.4
					s1.9,1.5,1.9,1.8s-0.3,0.5-0.8,0.5h-37.3l-1.1,0.6l-2.2-2.6L736,146.1z M772.3,127.1c-3.4-2.2-6.4-4.8-8.9-7.7
					c-2.5-2.9-4.2-5.7-5-8.5l-0.7-2.1c-4.9,7.4-10.1,12.4-15.5,15.2c-5.4,2.8-8.3,4.2-8.8,4.2s-0.3,0-0.3-0.2s0.6-0.7,1.7-1.4
					c8.9-6.7,14.7-13.6,17.6-20.9c0,0,0.2,0,0.4,0s1.6,0.3,3.9,1c2.3,0.7,3.5,1.2,3.5,1.6s-0.3,0.6-0.9,0.8c3,4,5.9,7.1,8.8,9.3
					c2.9,2.2,4.8,3.5,5.9,3.9l5.4,2.5c0.2,0,0.3,0.2,0.3,0.4s-0.5,0.3-1.5,0.3c-2.1,0-4.1,0.6-5.9,1.8"/>
			</g>
			<g id="g15484">
				<path id="path15486" inkscape:connector-curvature="0" fill-rule="evenodd" clip-rule="evenodd" d="M161.8,99.5
					c0.2,0,1.9,0,2.7,0.2c1,0.2,2,0.6,3,1.1c0.6,0.3,1.2,0.7,1.8,1c0.1,0.2,0.2,0.6,0.2,0.9c0,0.7-0.6,1.3-0.9,1.3s-2.1-0.2-2.3-0.2
					s-2.4,0.2-2.6,0.2s0-0.2-0.3-0.2h-1.1c-0.6,0-2.9,1.2-3.1,1.3c-2.6,2-4.9,5.1-6.5,7.6c-0.5,0.8-1.6,2.2-1.6,2.5v1.2
					c0,0,0,0,0.3,0c0.5,0,0.2-0.4,0.7-0.7c1.1-0.6,2.6-1.5,4-1.9c0.5-0.2,1.4,0,1.6,0s1.1-0.2,1.6,0c1.8,0.7,2.9,2.9,3.1,4.6
					c0,0.3,0.4,0.8,0.4,1v1.3c0,0.2,0.4,0.7,0.5,1.1v3.9c0,0.2-0.3,0.4-0.3,0.5c-0.1,2.1-0.4,4-0.8,6.1c0,0,0,0.1,0.2,0.1h1.2
					l7.1-2.3h3.3c1.8,0,4.4,2.1,5.9,3v2.1c-1,0.8-2.1,1.1-3,1.6c0,0.1-0.2,0.4-0.4,0.6c-1.7,1.3-3.5,1.9-5.2,2.8h-1.4v-0.5
					c0-0.2,0.7-1.1,1.1-1.7c0.2-0.3,0.4-0.8,0.5-1.1c0.2-0.3,0.3-0.8,0.3-1.1v-2.3c-0.2-0.2-0.4-0.3-0.6-0.3h-3.3
					c-0.2,0-1.4,0.3-1.9,0.4c-3.4,0.7-6.5,2.6-9.5,5.1c-0.3,0.3-0.9,0-1.4,0c-0.6,0-1.4-0.1-2,0.2c-1.9,0.9-3.6,2.1-5.5,3.3
					c-3.1,1.9-6.2,4.2-9.3,6.4c-0.6,0.4-1.4,0.7-1.9,1.3c-0.8,0.8-1.9,2-2.5,3c-0.2,0.3-0.3,0.7-0.5,1c-0.4,0.4-1,1-1.5,1.2
					c-0.2,0.1-0.7,0-0.9,0c-2,0-2.6-1-4.1-3.2V149c0.3-0.4,0.3-0.9,0.6-1.3c0.6-0.8,1.1-1.7,1.8-2.3c0.4-0.4,1.3-1.3,1.7-1.6
					c0.6-0.4,1.2-1,1.7-1.5h0.7v1.6c0,0.2-0.4,0.4-0.5,0.6c-0.4,0.6-0.6,1.6-0.6,1.8s0.2,0,0.2,0.3s-0.5,0.6-0.5,0.8
					c0,0.6,1.2,0.5,1.2,0.5c0.2,0,0.6,0,0.9-0.1c1.6-0.8,3.3-1.7,4.8-2.6c0.9-0.5,1.9-0.7,2.8-1.3c0.3-0.2,0.6-0.7,0.9-1
					c0.4-0.3,1.1-0.7,1.6-0.9c0.2-0.1,0.8-0.4,1.1-0.6v-1.1c0-0.2-0.6-0.9-0.9-1.4c-0.2-0.4-0.4-0.9-0.6-1.3
					c-0.3-0.8-0.4-1.6-0.6-2.4c0,0,0-0.6-0.3-0.8v-2.6c0.3,0,0.5-0.4,0.5-0.6v-1.8c0-0.2,0.7-1.5,1-2.3c0.8-2.4,1.2-5,2-7.4
					c0.2-0.6,0.8-1.2,1.2-1.9c0.2-0.3,0.5-0.5,0.7-0.8c0.7-1.2,1.3-2.7,2.1-3.9c0.9-1.4,2-2.6,2.8-3.9c0.2-0.2,0-0.7,0.2-1
					c0.6-0.7,0.9-0.5,0.9-1.2s-0.4-0.5-0.8-0.5s-0.7,0-1,0.1s-0.7,0.5-1,0.7c-1.2,0.7-2.6,1.4-4,2.1c-1,0.5-2,1.3-3.1,1.8
					c-0.9,0.3-1.8,0.7-2.7,1c-0.6,0.2-1.7,0.4-1.9,0.4c-1.5,0-2.7-0.5-4.2-0.9c-0.1-0.2-0.3-0.3-0.5-0.5v-0.3
					c3.8-1.1,7.5-2.9,10.6-4c0,0,0.2-0.2,0.4-0.3c1.9-0.6,3.7-1.7,5.6-2.3c0.4-0.1,0.9-0.5,1.3-0.7c0.4-0.2,0.9-0.2,1.3-0.4
					c0.8-0.3,1.7-0.8,2.6-1.2c1-0.5,2.2-0.5,2.8-1.7c0.1-0.2,0.4-0.6,0.6-0.9c0.5-0.2,1.5-0.2,2-0.2 M120.1,106.1
					c0.6,0.1,0.8,0.1,1.3,0.6c0.1,0.1,0.3,0.5,0.4,0.6c0.3,0.3,0.6,0.6,0.9,0.9c0.3,0.5,0.6,1.1,0.9,1.7c0.4,0.9,0.6,1.9,1,2.9
					c0.2,0.5,0.4,1.2,0.6,1.8c0,0,0,0,0.2,0v2c-0.8,1.7-1.7,3.6-2.8,5.3c-1.1,1.7-2.5,3.6-3.8,5.2c-0.9,1.2-2.1,2.3-3.1,3.3
					c-1.2,1.2-3.2,2.6-4.6,4c-0.4,0.3-0.6,1-1,1.3c-0.5,0.5-1.1,1.1-1.7,1.6c-1.2,0.9-3.8,2.9-4,2.9h-0.5v-0.4
					c2.4-2.3,3.7-4.9,4.8-7.5c0.2-0.4,0.7-0.9,1-1.3c0.3-0.3,0.4-1,0.7-1.3c0.8-1,1.2-2.5,1.6-3.4c0.5,0,1.1-0.9,1.3-1.3
					c0.7-1.1,1.2-2.4,1.6-3.5c0.3-0.8,0.5-1.7,0.9-2.5c0.2-0.3,0.6-0.7,0.8-1.1c0.4-0.7,0.9-1.6,1.2-2.4c0.3-0.8,0.5-1.7,0.8-2.4
					c0.2-0.6,0.5-1.3,0.7-1.8c0.2-0.7,0.3-1.5,0.4-2.4c0,0,0.1,0.1,0.1,0v-2c0-0.2,0.2-0.4,0.3-0.6 M155.9,115.6
					c1,0,2.5,1.3,2.7,2.5v6.9c-0.2,0.4-0.2,0.8-0.2,1.2c-0.1,0.8-0.3,1.6-0.6,2.4c-0.2,0.6-0.9,1.6-0.9,1.8v2c0,1-0.5,3.5-1.5,3.6
					c-0.7,0-1.3,0.9-2,1.2c-1.8,0.9-3.6,1.8-5.4,2.7c0,0-0.2,0-0.4,0c-0.7,0-1.1-0.6-1.1-0.9s0-0.4,0.2-0.6c0.2,0,0.4-0.1,0.6-0.2
					c1-0.4,2-0.9,3-1.2c0.9-0.3,5.4-1.7,5.4-3.8s0-0.3,0-0.5c0-0.1-0.1,0-0.2-0.2c-0.1-0.6-0.4-1.4-0.8-1.9
					c-0.1-0.2-0.4-0.3-0.5-0.5s-0.3-0.7-0.3-0.9s0.2-0.1,0.2-0.3s-0.2-0.3-0.2-0.5c0-0.4,0.2-0.3,0.4-0.9c0.1-0.3,0.1-0.7,0.2-1.1
					c0,0,0.1,0.1,0.1,0V124c-0.3-0.2-1.3-1.3-1.7-1.3s-1,3.7-1,4v4.5c0,0.2,0.3,1.1,0.3,1.3s-0.4,1-0.9,1.3
					c-0.7,0.6-1.5,1.1-2.2,1.5c-0.3,0.2-1.5,1.3-1.7,1.3s-0.4-0.4-0.7-0.5c-0.1-0.4-0.1-0.9-0.1-1.2s0.1-0.9,0.1-2.9s0,0-0.1-0.5
					c-0.2-0.9,0.3-1.1,0.4-1.2c0.2-0.6,0.2-1.4,0.4-2c0,0,0.2-0.2,0.3-0.3c0-0.3,0.1-0.7,0.1-1v-1.4c0-0.2,0.2-0.7,0.2-1
					c0.3-1.8,0.3-3.9,1.3-5.4c0.4-0.6,1.3-1,1.9-1.5c1.1-0.9,3.1-2.4,4.7-2.4 M111.9,139h1c0.6,0,1.1,1.4,1.2,1.8
					c0.4,1,0.1,2.4,0.7,3.3v8.7c0,0.2-0.2,0.2-0.2,0.3l-0.3,13.4c0,0.2-0.2,0.3-0.2,0.5v4.2c0,0,0,0,0.1,0c0.8,0,1.7-2.9,2-3.6
					c0-0.1,0.2-0.2,0.4-0.2s0.2,0.1,0.3,0.1c0,0.4,0.2,1.1,0.2,1.3s-0.5,3.8-0.8,5.8c-0.2,1.1-0.7,3.2-0.7,3.4s0.4,0.6,0.2,1.6
					c0,0.5-0.9,2.8-1.6,2.8h-1.4c-0.2,0-0.7,0.4-0.9,0.4c-1.3,0-3.6-4.8-3.7-4.9c0-0.3,0-0.6,0-0.8c-0.2-0.2-0.5-0.3-0.5-0.6v-4.4
					c0-0.2,0.8-1.1,1-1.7c0.8-2,1.2-4.6,1.6-6.7c0.4-2.2,0.6-4.5,0.8-6.7v-2.5c0.2-0.3,0.4-0.5,0.4-0.7s0-0.1-0.2-0.2
					c0.2-0.2,0.3-0.6,0.4-0.9c0-0.3,0-0.8,0.1-1.2c0-0.4,0.4-1.2,0.4-1.5v-9.2c0-0.2-0.3-0.2-0.4-0.3L111.9,139L111.9,139z
					 M159.6,142h1.4c0.9,0,2.5,1.7,2.9,2.1c0.3,0.3,0.6,0.7,0.7,1.2c0.1,0.3,0,0.9,0.3,1.2c0,0-0.2,0-0.2,0.1v1.9
					c0,0.2-0.2,0.4-0.3,0.6c-0.5,0.5-1,0.8-1.4,1.4c-0.1,0.2,0,0.5-0.2,0.7c-0.3,0.5-0.8,1-1.2,1.6c-0.2,0.3-0.8,0.9-0.8,1.1
					c0,0.7,1.1,0.7,1.6,1c0.3,0.1,0.7,0.4,1.1,0.6c0.4,0.2,0.9,0.2,1.3,0.4c0.4,0.1,1.3,1.5,1.3,1.7v6c0,0.2-0.3,1.1-0.6,1.7
					c0,0-0.2,0.2-0.3,0.4c-0.2,0.3-0.2,0.8-0.3,1.2c-0.5,1.1-1.7,3-1.7,3.2c0,1.2,3.4,1.7,3.7,2c0.6,0.6,1.7,0.5,2.5,0.5
					c2.5,0.2,4.9,1.8,7,4c0.1,0.1,0.1,0.5,0.3,0.7c0.2,0.3,0.6,0.7,0.8,1c0.4,0.5,0.9,1.1,1.5,1.6c0.7,0.7,0.9,2.2,1.1,2.9
					c0.1,0.4,0.4,1.3,0.4,1.5v1.7c-0.3,0.1-0.5,0.2-0.7,0.6h-1.5c-0.2,0-0.9-0.6-1.3-0.8c-0.2,0-0.6-0.2-0.8-0.3
					c-1.8-1.1-3.7-2.5-5.4-3.8c-2.1-1.6-3.9-3.2-5.9-4.8c-0.3-0.2-0.8-0.3-1.2-0.6c-0.9-0.6-1.7-1.2-2.7-1.8h-1.4
					c-3,4.1-7.5,6.7-11.6,8.1c-1.6,0.6-3.9,1.2-5.6,1.4c-0.9,0.1-1.1,0-1.3,0l-0.2-0.2v-0.4c2.3-0.4,4.4-1.5,6-2.4
					c1.3-0.7,2.5-1.7,3.7-2.7c0.4-0.3,0.7-0.9,1-1.2c0.1,0,0.5-0.1,0.6-0.3c0.8-1.1,3.7-4.3,3.7-4.5v-1.1c-0.7-0.7-1.8-1.1-2.5-1.4
					c-1.7-0.7-4.9-1.7-5.2-1.7s-0.2,0-0.3,0.2c-1.8-0.1-3,1.8-4.4,2.7c-1,0.7-2.1,1.7-3,2.4H139c-0.4-0.5-0.4-0.6-0.4-1
					c0-0.9,0.7-2.1,0.9-2.9c0.2-0.1,0.4-0.3,0.6-0.4h0.3v0.9c0,0.7,0.1,1,0.6,1s0.8-0.3,1.2-0.7c0.2-0.1,0.5-0.2,0.6-0.3
					c2.6-2.2,4.6-4.9,6.4-7.1v-0.2c0,0-0.1-0.2-0.3-0.2s-3.5,1.9-3.7,1.9h-0.6v-0.6c0-0.3,1.8-1.6,2.1-1.9c1.4-1,2.7-2.1,4.2-2.9
					c1-0.6,2-0.9,2.9-1.4c1-0.6,1.5-1.9,2-2.8c0.4-0.7,0.9-1.3,1.2-1.9c0.2-0.3,0.2-0.7,0.4-1.1c0.2-0.2,0.6-0.3,0.8-0.6
					c0.4-0.7,0.8-1.3,1-2c0.6-2.4,0.8-1.8,0.8-3.5s0.1-1.8-0.5-1.9H158c0-0.1,0-0.2-0.2-0.2s-0.2,0-0.2,0.1
					c-1.3,0.5-1.5,1.8-1.7,2.8c-0.1,0.4-0.2,1.2-0.2,1.5v1.3c0,0.2-0.1,0.6-0.1,0.8s0,0.7,0,0.9c-0.2,0.6-0.8,1.4-1.5,1.9
					c-0.1,0-0.7,0-0.9,0.3h-1.3c-0.4-0.3-1-0.3-1.4-0.6c-2.7-1.5-2-2-4-2s-1.4,1.5-1.5,1.7c-0.5,1.1-0.9,2.3-1.3,3.5
					c0,0.1-0.2,0.2-0.3,0.3c-0.5,0.8-0.8,1.7-1.4,2.5c-0.4,0.5-1.2,0.6-1.5,1.1h-1.4c-0.3-0.3-0.8-0.5-1.1-0.9
					c-0.2-0.3-0.3-0.7-0.5-1v-2.3c0.7-0.5,0.8-1.1,1.1-1.9c0.1,0,0.2-0.1,0.3,0c0,0.7,0,2.5,1.1,2.5s1.2-0.5,1.8-1.2
					c0.1-0.1,0.5-0.2,0.7-0.4c0.1-0.1,0.2-0.5,0.4-0.7c0.6-0.6,1.2-1.3,1.8-1.9c0.6-0.6,1-1.3,1.6-1.9c0.2-0.2,0.6-0.3,0.8-0.5
					c2,0,2.3-0.1,2.5-0.1s1.4,0.5,1.6,0.5h1.1c2.2-2.1,3-4,4.1-6.2c0-0.2,0.5-0.3,0.7-0.4c0.7-0.4,1.6-0.7,2.4-1.2 M160.1,156.6
					c0.6,0,1.3,0.1,1.7,0.4c0.2,0.2,0.6,0.5,0.6,0.7v4.1c0,0.2-0.7,1.5-1,2.1c-0.6,1.6-1.4,3.7-2.9,5.1c-0.2,0.2-0.6,0.1-0.8,0.1
					c-0.6,0-0.9-0.3-1.4-0.4c-1.2-0.3-2.6-0.3-3.7-0.5c-0.8-0.2-1.8-0.1-2.5-0.3c-0.2,0-0.6-0.2-0.9-0.5c0,0,0,0,0-0.3
					s0.4-1.3,0.7-1.5c0.2-0.1,0.4,0,0.5-0.2c1.1-1.2,2.1-2.7,3.4-3.9c0.2-0.2,0.6-0.2,0.8-0.4s0.3-0.6,0.5-0.9
					c0.3-0.5,0.8-1,1.2-1.5c0.1-0.1,0.2-0.5,0.3-0.6c0.6-0.4,1.1-0.9,1.7-1.2c0.6-0.2,1.7-0.2,1.9-0.2"/>
			</g>
			<g id="g15488">
				<path id="path15490" inkscape:connector-curvature="0" fill-rule="evenodd" clip-rule="evenodd" fill="#00A76D" d="M289.6,193
					c0,4.8,1.2,8.6,3.5,11.5c2.4,2.8,5.3,4.2,8.8,4.2s6.4-1.4,8.7-4.2c2.3-2.8,3.5-6.7,3.5-11.5s-1.2-8.7-3.6-11.5
					c-2.4-2.9-5.3-4.3-8.7-4.3s-6.2,1.4-8.6,4.3c-2.4,2.9-3.6,6.8-3.6,11.6 M319,218.5h-2.4c-7.3,0-12.8-2-16.6-6.2l-2.5-2.7
					c-3.2-0.4-6.1-2.2-8.6-5.2c-2.5-3.1-3.7-6.9-3.7-11.4s1.6-9.4,4.8-12.6c3.2-3.2,7.1-4.8,11.8-4.8s8.7,1.6,11.8,4.8
					c3.1,3.2,4.7,7.4,4.7,12.6s-1.4,9.1-4.2,12.3c-2.8,3.2-6,4.8-9.7,4.8c1.1,2,2.9,3.8,5.7,5.3c2.7,1.5,5.7,2.2,8.9,2.2L319,218.5
					L319,218.5z"/>
			</g>
			<g id="g15492">
				<path id="path15494" inkscape:connector-curvature="0" fill-rule="evenodd" clip-rule="evenodd" fill="#00A76D" d="M327.6,185.1
					v16c0,1.1,0.2,2.1,0.5,2.7c0.6,1.3,1.8,1.9,3.4,1.9s2.3-0.4,3.4-1.1c0.6-0.4,1.2-1,1.9-1.7v-13.7c0-1.3-0.3-2.1-0.8-2.5
					s-1.5-0.6-3-0.7v-0.8h8.2v17.6c0,1.1,0.2,1.9,0.6,2.4c0.4,0.4,1.3,0.6,2.6,0.6v0.7c-0.9,0.3-1.6,0.4-2,0.6
					c-0.4,0.1-1.2,0.4-2.2,0.7c-0.5,0.1-1.4,0.5-2.9,1.1c0,0-0.1,0-0.2-0.1c0,0,0-0.2,0-0.3v-4c-1.1,1.3-2.2,2.4-3.1,3
					c-1.4,1-2.9,1.5-4.6,1.5s-2.8-0.5-4.1-1.6c-1.3-1-2-2.7-2-5.1v-13c0-1.3-0.3-2.2-0.8-2.7c-0.4-0.3-1.2-0.5-2.4-0.6v-0.7h7.6
					L327.6,185.1z"/>
			</g>
			<g id="g15496">
				<path id="path15498" inkscape:connector-curvature="0" fill-rule="evenodd" clip-rule="evenodd" fill="#00A76D" d="M351,197.2
					c1.6-1,4.6-2.4,9.3-4.1V191c0-1.7-0.2-2.9-0.5-3.6c-0.6-1.1-1.8-1.7-3.6-1.7s-1.7,0.2-2.5,0.6c-0.8,0.4-1.2,1.1-1.2,1.9
					s0,0.5,0.1,1c0,0.5,0.1,0.8,0.1,0.9c0,0.9-0.3,1.6-1,2c-0.3,0.2-0.8,0.3-1.2,0.3c-0.7,0-1.3-0.3-1.7-0.7
					c-0.4-0.5-0.6-1.1-0.6-1.7c0-1.2,0.7-2.4,2.2-3.7s3.6-1.9,6.4-1.9s5.5,1,6.6,3.2c0.6,1.1,0.9,2.8,0.9,5v10.1c0,1,0,1.6,0.2,2
					c0.2,0.6,0.7,1,1.4,1s0.7,0,1-0.2c0.3-0.1,0.7-0.4,1.3-0.8v1.3c-0.5,0.6-1.1,1.2-1.7,1.6c-0.9,0.6-1.9,1-2.9,1s-2-0.4-2.5-1.1
					c-0.5-0.7-0.8-1.6-0.8-2.6c-1.3,1.1-2.4,1.9-3.3,2.5c-1.5,0.9-3,1.4-4.4,1.4s-2.7-0.5-3.8-1.5c-1.1-1-1.6-2.3-1.6-3.9
					c0-2.4,1.2-4.4,3.7-6.1 M360.3,194.4c-1.9,0.6-3.5,1.3-4.8,2.1c-2.4,1.5-3.6,3.2-3.6,5.1s0.5,2.6,1.5,3.4
					c0.7,0.5,1.4,0.7,2.2,0.7s2.2-0.3,3.2-0.9c1-0.6,1.5-1.4,1.5-2.4v-7.9L360.3,194.4z"/>
			</g>
			<g id="g15500">
				<path id="path15502" inkscape:connector-curvature="0" fill-rule="evenodd" clip-rule="evenodd" fill="#00A76D" d="M369.4,207.6
					c1.6-0.2,2.6-0.5,3.2-0.9c0.5-0.5,0.8-1.4,0.8-2.8v-24.5c0-1.1-0.1-1.9-0.3-2.3c-0.3-0.7-1-1-2-1s-0.5,0-0.8,0s-0.6,0.1-1,0.2
					v-0.8c2.3-0.6,5-1.4,8.2-2.4c0.1,0,0.2,0,0.2,0.2c0,0,0,0.3,0,0.6v30c0,1.5,0.2,2.4,0.7,2.8c0.5,0.4,1.6,0.7,3.1,0.8v0.7h-12.2
					L369.4,207.6L369.4,207.6z"/>
			</g>
			<g id="g15504">
				<path id="path15506" inkscape:connector-curvature="0" fill-rule="evenodd" clip-rule="evenodd" fill="#00A76D" d="M383.8,207.6
					c1.8-0.2,2.9-0.5,3.4-0.9s0.7-1.7,0.7-3.6v-12c0-1.1,0-1.8-0.2-2.2c-0.3-0.7-0.8-1-1.6-1s-0.4,0-0.6,0s-0.7,0.2-1.5,0.4v-0.8
					l1.1-0.4c2.9-1,5-1.7,6.2-2.2c0.5-0.2,0.8-0.3,0.9-0.3c0,0.1,0,0.2,0,0.4v18c0,1.9,0.2,3.1,0.7,3.6s1.5,0.8,3.2,0.9v0.7h-12.2
					v-0.7L383.8,207.6z M387.8,174.1c0.5-0.5,1.1-0.8,1.9-0.8s1.3,0.3,1.9,0.8c0.5,0.5,0.8,1.1,0.8,1.9s-0.3,1.3-0.8,1.8
					s-1.1,0.8-1.9,0.8s-1.4-0.3-1.9-0.8s-0.8-1.1-0.8-1.8S387.3,174.7,387.8,174.1"/>
			</g>
			<g id="g15508">
				<path id="path15510" inkscape:connector-curvature="0" fill-rule="evenodd" clip-rule="evenodd" fill="#00A76D" d="M410.3,185.2
					v1.8h-5.2v14.4c0,1.3,0,2.2,0.3,2.9c0.4,1.2,1.2,1.7,2.4,1.7s1.1-0.1,1.6-0.4c0.5-0.3,1-0.7,1.6-1.3l0.7,0.5l-0.6,0.8
					c-0.9,1.2-1.8,2-2.8,2.5s-1.9,0.7-2.8,0.7c-2,0-3.3-0.9-4-2.6c-0.4-0.9-0.6-2.3-0.6-4V187h-2.7l-0.2-0.1c0,0,0-0.1,0-0.2
					c0-0.2,0-0.3,0-0.4c0-0.1,0.3-0.3,0.7-0.6c1.2-1,2-1.7,2.5-2.3s1.8-2.2,3.6-4.7c0.2,0,0.3,0,0.4,0c0,0,0,0.1,0,0.4v6.2
					L410.3,185.2L410.3,185.2z"/>
			</g>
			<g id="g15512">
				<path id="path15514" inkscape:connector-curvature="0" fill-rule="evenodd" clip-rule="evenodd" fill="#00A76D" d="M412.2,185.3
					h10.7v0.8c-0.8,0-1.5,0-1.9,0.2c-0.8,0.2-1.2,0.6-1.2,1.3s0,0.5,0.1,0.7c0,0.2,0.2,0.6,0.5,1.1l5.9,13l4.7-13.1
					c0-0.1,0.1-0.4,0.2-0.9s0.2-0.8,0.2-1c0-0.4-0.2-0.8-0.5-0.9c-0.3-0.2-0.7-0.3-1.2-0.4h-0.8v-0.8h6.9v0.8
					c-0.7,0-1.2,0.3-1.6,0.7c-0.3,0.4-0.6,0.9-0.9,1.6l-8,20.9c-1.4,3.6-2.7,6.2-4,7.8c-1.2,1.6-2.8,2.4-4.8,2.4s-1.8-0.2-2.7-0.7
					c-0.8-0.5-1.2-1.2-1.2-2.2s0.3-1.2,0.7-1.6c0.5-0.4,1.1-0.6,1.9-0.6s1.1,0.2,1.9,0.5c0.9,0.3,1.5,0.5,1.9,0.5c1,0,1.9-1.1,3-3.2
					c1-2.2,1.6-3.6,1.6-4.4s0-0.3,0-0.5s-0.1-0.4-0.2-0.6l-8.1-17.3c-0.6-1.2-1.1-2.1-1.5-2.4c-0.4-0.4-1.1-0.6-1.9-0.8v-0.7
					L412.2,185.3z"/>
			</g>
			<g id="g15516">
				<path id="path15518" inkscape:connector-curvature="0" fill-rule="evenodd" clip-rule="evenodd" fill="#00A76D" d="M450.9,207.4
					c1.9-0.2,3.2-0.5,3.7-1c0.6-0.5,0.9-1.7,0.9-3.6V180c0-1.8-0.3-3-0.8-3.6s-1.8-0.9-3.7-1.1v-1h27.5l0.2,7.4h-1.3
					c-0.4-2.3-1.1-3.7-2-4.4s-2.8-1-5.9-1h-7c-0.8,0-1.2,0.1-1.4,0.4c-0.2,0.2-0.3,0.7-0.3,1.4v11.4h7.9c2.2,0,3.6-0.3,4.2-1
					s1.1-2,1.4-4h1.2v11.9h-1.2c-0.4-2-0.9-3.3-1.5-3.9c-0.6-0.6-2-1-4.2-1h-7.9v12.7c0,1,0.3,1.6,1,1.8s2.6,0.3,5.8,0.3
					s6.1-0.4,7.7-1.1c1.7-0.8,3.2-2.6,4.5-5.5h1.4l-2.3,8.7h-28L450.9,207.4L450.9,207.4z"/>
			</g>
			<g id="g15520">
				<path id="path15522" inkscape:connector-curvature="0" fill-rule="evenodd" clip-rule="evenodd" fill="#00A76D" d="M498.3,204.9
					c0.8-0.8,1.2-1.5,1.2-2.2v-10.8c0-2.2-0.6-3.7-1.8-4.6c-1.2-0.9-2.3-1.4-3.4-1.4c-2.1,0-3.8,1-4.9,2.8c-1.2,1.9-1.8,4.2-1.8,6.9
					s0.6,5.1,1.9,7.2c1.3,2.1,3.1,3.2,5.6,3.2s2.4-0.4,3.2-1.2 M497.5,185.4c0.7,0.3,1.3,0.8,1.9,1.5v-8c0-1-0.1-1.7-0.4-2.1
					c-0.2-0.4-0.8-0.6-1.6-0.6s-0.4,0-0.5,0s-0.5,0-1,0v-0.8l2.1-0.5c0.8-0.2,1.5-0.4,2.3-0.6c0.7-0.2,1.4-0.4,2-0.6
					c0.3,0,0.7-0.2,1.3-0.5h0.2v2.7c0,0.9,0,1.9,0,3c0,1,0,2,0,3v20.5c0,1.1,0,1.9,0.4,2.3s1,0.7,2.1,0.7h0.6c0.2,0,0.4,0,0.5,0v0.8
					c-0.1,0-1.3,0.4-3.7,1.2l-4,1.5l-0.2-0.2v-3.1c-1,1-1.8,1.7-2.5,2.2c-1.2,0.7-2.7,1.1-4.3,1.1c-2.9,0-5.2-1.1-7-3.3
					s-2.7-4.7-2.7-7.6s1.1-6.7,3.2-9.3s4.7-3.9,7.9-3.9s2.3,0.3,3.4,0.8"/>
			</g>
			<g id="g15524">
				<path id="path15526" inkscape:connector-curvature="0" fill-rule="evenodd" clip-rule="evenodd" fill="#00A76D" d="M515.8,185.1
					v16c0,1.1,0.2,2.1,0.5,2.7c0.6,1.3,1.8,1.9,3.5,1.9s2.3-0.4,3.3-1.1c0.6-0.4,1.3-1,1.9-1.7v-13.7c0-1.3-0.3-2.1-0.8-2.5
					s-1.5-0.6-3-0.7v-0.8h8.2v17.6c0,1.1,0.2,1.9,0.6,2.4c0.4,0.4,1.3,0.6,2.6,0.6v0.7c-0.9,0.3-1.6,0.4-2,0.6
					c-0.4,0.1-1.2,0.4-2.2,0.7c-0.4,0.1-1.4,0.5-2.9,1.1c0,0-0.1,0-0.2-0.1c0,0,0-0.2,0-0.3v-4c-1.1,1.3-2.2,2.4-3.1,3
					c-1.4,1-2.9,1.5-4.5,1.5s-2.8-0.5-4.1-1.6c-1.3-1-2-2.7-2-5.1v-13c0-1.3-0.3-2.2-0.8-2.7c-0.4-0.3-1.2-0.5-2.4-0.6v-0.7h7.5
					L515.8,185.1z"/>
			</g>
			<g id="g15528">
				<path id="path15530" inkscape:connector-curvature="0" fill-rule="evenodd" clip-rule="evenodd" fill="#00A76D" d="M551.9,186.3
					c1.5,1.1,2.3,2.2,2.3,3.5s-0.2,1.1-0.6,1.6c-0.4,0.5-1,0.7-1.8,0.7s-1.1-0.2-1.6-0.6c-0.4-0.4-0.7-1-0.9-1.8l-0.3-1.2
					c-0.2-0.9-0.6-1.5-1.1-1.9c-0.6-0.3-1.3-0.5-2.2-0.5c-1.9,0-3.5,0.9-4.9,2.5c-1.3,1.7-2,3.9-2,6.6s0.7,4.8,2.2,6.8s3.5,3,5.9,3
					s3.3-0.5,4.7-1.7c0.8-0.6,1.6-1.7,2.6-3.1l0.7,0.4c-1,2-2,3.6-3,4.8c-2,2.2-4.4,3.4-7.1,3.4s-4.9-1-7-3.1c-2-2.1-3-4.9-3-8.4
					s1.1-6.4,3.3-8.9s5-3.7,8.4-3.7C548.6,184.7,550.4,185.2,551.9,186.3"/>
			</g>
			<g id="g15532">
				<path id="path15534" inkscape:connector-curvature="0" fill-rule="evenodd" clip-rule="evenodd" fill="#00A76D" d="M562.1,197.2
					c1.5-1,4.6-2.4,9.3-4.1V191c0-1.7-0.2-2.9-0.5-3.6c-0.6-1.1-1.8-1.7-3.6-1.7s-1.7,0.2-2.5,0.6c-0.8,0.4-1.2,1.1-1.2,1.9
					s0,0.5,0.1,1c0,0.5,0.1,0.8,0.1,0.9c0,0.9-0.3,1.6-0.9,2c-0.4,0.2-0.8,0.3-1.3,0.3c-0.8,0-1.3-0.3-1.7-0.7
					c-0.4-0.5-0.6-1.1-0.6-1.7c0-1.2,0.7-2.4,2.2-3.7s3.6-1.9,6.4-1.9s5.5,1,6.6,3.2c0.6,1.1,0.9,2.8,0.9,5v10.1c0,1,0,1.6,0.2,2
					c0.2,0.6,0.6,1,1.3,1s0.7,0,1-0.2c0.2-0.1,0.7-0.4,1.3-0.8v1.3c-0.5,0.6-1.1,1.2-1.7,1.6c-0.9,0.6-1.9,1-2.9,1s-2-0.4-2.5-1.1
					c-0.5-0.7-0.8-1.6-0.8-2.6c-1.3,1.1-2.4,1.9-3.3,2.5c-1.5,0.9-3,1.4-4.4,1.4s-2.7-0.5-3.8-1.5s-1.6-2.3-1.6-3.9
					c0-2.4,1.2-4.4,3.7-6.1 M571.4,194.4c-1.9,0.6-3.5,1.3-4.8,2.1c-2.4,1.5-3.7,3.2-3.7,5.1s0.5,2.6,1.5,3.4
					c0.7,0.5,1.4,0.7,2.2,0.7s2.2-0.3,3.2-0.9c1-0.6,1.5-1.4,1.5-2.4v-7.9L571.4,194.4z"/>
			</g>
			<g id="g15536">
				<path id="path15538" inkscape:connector-curvature="0" fill-rule="evenodd" clip-rule="evenodd" fill="#00A76D" d="M592.7,185.2
					v1.8h-5.1v14.4c0,1.3,0,2.2,0.3,2.9c0.4,1.2,1.2,1.7,2.4,1.7s1.1-0.1,1.6-0.4c0.5-0.3,1-0.7,1.5-1.3l0.7,0.5l-0.6,0.8
					c-0.9,1.2-1.8,2-2.8,2.5s-1.9,0.7-2.8,0.7c-2,0-3.3-0.9-4-2.6c-0.4-0.9-0.6-2.3-0.6-4V187h-2.7c-0.1,0-0.2-0.1-0.2-0.1
					s0-0.1,0-0.2c0-0.2,0-0.3,0.1-0.4c0-0.1,0.3-0.3,0.7-0.6c1.2-1,2-1.7,2.5-2.3s1.7-2.2,3.6-4.7c0.2,0,0.3,0,0.4,0
					c0,0,0,0.1,0,0.4v6.2h5.1L592.7,185.2z"/>
			</g>
			<g id="g15540">
				<path id="path15542" inkscape:connector-curvature="0" fill-rule="evenodd" clip-rule="evenodd" fill="#00A76D" d="M594.9,207.6
					c1.8-0.2,2.9-0.5,3.4-0.9s0.7-1.7,0.7-3.6v-12c0-1.1,0-1.8-0.2-2.2c-0.2-0.7-0.8-1-1.6-1s-0.4,0-0.5,0c-0.2,0-0.7,0.2-1.5,0.4
					v-0.8l1.1-0.4c2.9-1,5-1.7,6.1-2.2c0.5-0.2,0.8-0.3,0.9-0.3c0,0.1,0,0.2,0,0.4v18c0,1.9,0.2,3.1,0.7,3.6s1.5,0.8,3.2,0.9v0.7
					h-12.3v-0.7L594.9,207.6z M598.9,174.1c0.5-0.5,1.1-0.8,1.9-0.8s1.3,0.3,1.8,0.8s0.8,1.1,0.8,1.9s-0.3,1.3-0.8,1.8
					s-1.1,0.8-1.8,0.8s-1.3-0.3-1.9-0.8c-0.5-0.5-0.8-1.1-0.8-1.8S598.4,174.7,598.9,174.1"/>
			</g>
			<g id="g15544">
				<path id="path15546" inkscape:connector-curvature="0" fill-rule="evenodd" clip-rule="evenodd" fill="#00A76D" d="M616.8,187.6
					c-1.7,1.5-2.5,4.1-2.5,7.9s0.7,5.8,2,8.3c1.3,2.6,3.2,3.9,5.6,3.9s3.3-0.9,4.3-2.6c1-1.7,1.6-4,1.6-6.8s-0.7-5.6-2-8.2
					c-1.3-2.5-3.2-3.8-5.6-3.8s-2.5,0.4-3.5,1.3 M612.8,188.2c2.1-2.3,4.9-3.4,8.2-3.4s6.1,1.1,8.3,3.3s3.3,5.1,3.3,8.7
					s-1.1,6.2-3.2,8.7c-2.1,2.5-4.9,3.7-8.2,3.7s-6-1.2-8.2-3.5c-2.2-2.4-3.4-5.3-3.4-8.9s1.1-6.1,3.2-8.4"/>
			</g>
			<g id="g15548">
				<path id="path15550" inkscape:connector-curvature="0" fill-rule="evenodd" clip-rule="evenodd" fill="#00A76D" d="M635,207.6
					c1.2-0.2,2-0.5,2.5-0.9s0.7-1.4,0.7-3V191c0-1.1-0.1-1.8-0.3-2.3c-0.3-0.6-1-0.9-2-0.9s-0.3,0-0.5,0s-0.4,0-0.6,0v-0.9
					c0.7-0.2,2.3-0.7,4.9-1.5l2.4-0.8c0.1,0,0.2,0,0.2,0.1c0,0,0,0.2,0,0.4v3.7c1.6-1.4,2.8-2.4,3.6-3c1.3-0.8,2.7-1.2,4.1-1.2
					s2.2,0.3,3.1,1c1.8,1.3,2.7,3.5,2.7,6.8v11.7c0,1.2,0.3,2.1,0.7,2.6c0.5,0.5,1.3,0.8,2.5,0.8v0.7h-10.8v-0.7
					c1.2-0.2,2.1-0.5,2.6-1s0.7-1.6,0.7-3.3v-10.7c0-1.4-0.3-2.6-0.8-3.5c-0.5-1-1.5-1.4-3-1.4s-2,0.3-3,1c-0.6,0.4-1.3,1-2.2,1.9
					v14c0,1.2,0.3,2,0.8,2.4s1.4,0.6,2.6,0.7v0.7h-11L635,207.6L635,207.6z"/>
			</g>
			<g id="g15552">
				<path id="path15554" inkscape:connector-curvature="0" fill-rule="evenodd" clip-rule="evenodd" fill="#00A76D" d="M673.5,207.4
					c2-0.2,3.3-0.6,3.8-1.1s0.8-1.9,0.8-4.1V180c0-1.8-0.3-3-0.8-3.6c-0.6-0.6-1.8-0.9-3.7-1.1v-1h27.6l0.2,7.4H700
					c-0.4-2.4-1-3.8-2-4.5c-1-0.6-2.9-1-5.8-1h-7.1c-0.7,0-1.1,0.1-1.3,0.4c-0.2,0.2-0.3,0.7-0.3,1.4v11.4h7.5c2.2,0,3.6-0.3,4.2-1
					c0.6-0.7,1.1-2,1.5-4h1.2v11.9h-1.2c-0.4-2-0.9-3.3-1.5-3.9c-0.6-0.6-2-1-4.2-1h-7.5v11.2c0,1.9,0.3,3.1,0.9,3.6
					c0.6,0.5,1.9,0.9,3.8,1v0.9h-14.5v-0.9L673.5,207.4z"/>
			</g>
			<g id="g15556">
				<path id="path15558" inkscape:connector-curvature="0" fill-rule="evenodd" clip-rule="evenodd" fill="#00A76D" d="M709.7,185.1
					v16c0,1.1,0.2,2.1,0.5,2.7c0.6,1.3,1.8,1.9,3.4,1.9s2.3-0.4,3.4-1.1c0.6-0.4,1.2-1,1.9-1.7v-13.7c0-1.3-0.2-2.1-0.8-2.5
					c-0.5-0.4-1.5-0.6-3-0.7v-0.8h8.2v17.6c0,1.1,0.2,1.9,0.6,2.4c0.4,0.4,1.3,0.6,2.6,0.6v0.7c-0.9,0.3-1.6,0.4-2,0.6
					c-0.4,0.1-1.2,0.4-2.2,0.7c-0.4,0.1-1.4,0.5-2.9,1.1c0,0-0.1,0-0.1-0.1c0,0,0-0.2,0-0.3v-4c-1.2,1.3-2.2,2.4-3.2,3
					c-1.4,1-2.9,1.5-4.5,1.5s-2.8-0.5-4.2-1.6c-1.3-1-2-2.7-2-5.1v-13c0-1.3-0.3-2.2-0.9-2.7c-0.4-0.3-1.1-0.5-2.4-0.6v-0.7h7.5
					L709.7,185.1z"/>
			</g>
			<g id="g15560">
				<path id="path15562" inkscape:connector-curvature="0" fill-rule="evenodd" clip-rule="evenodd" fill="#00A76D" d="M728.5,207.6
					c1.2-0.2,2-0.5,2.5-0.9s0.7-1.4,0.7-3V191c0-1.1-0.1-1.8-0.3-2.3c-0.3-0.6-1-0.9-2-0.9s-0.3,0-0.5,0c-0.1,0-0.3,0-0.6,0v-0.9
					c0.7-0.2,2.3-0.7,4.9-1.5l2.4-0.8c0.1,0,0.2,0,0.2,0.1c0,0,0,0.2,0,0.4v3.7c1.5-1.4,2.8-2.4,3.6-3c1.3-0.8,2.7-1.2,4.1-1.2
					s2.2,0.3,3.1,1c1.8,1.3,2.7,3.5,2.7,6.8v11.7c0,1.2,0.3,2.1,0.7,2.6c0.5,0.5,1.3,0.8,2.4,0.8v0.7h-10.8v-0.7
					c1.2-0.2,2.1-0.5,2.6-1s0.7-1.6,0.7-3.3v-10.7c0-1.4-0.3-2.6-0.8-3.5c-0.5-1-1.5-1.4-3-1.4s-2,0.3-3,1c-0.6,0.4-1.3,1-2.2,1.9
					v14c0,1.2,0.3,2,0.8,2.4s1.4,0.6,2.5,0.7v0.7h-11v-0.7L728.5,207.6z"/>
			</g>
			<g id="g15564">
				<path id="path15566" inkscape:connector-curvature="0" fill-rule="evenodd" clip-rule="evenodd" fill="#00A76D" d="M769.8,204.9
					c0.8-0.8,1.2-1.5,1.2-2.2v-10.8c0-2.2-0.6-3.7-1.8-4.6c-1.2-0.9-2.3-1.4-3.4-1.4c-2.1,0-3.8,1-4.9,2.8c-1.2,1.9-1.8,4.2-1.8,6.9
					s0.6,5.1,1.9,7.2c1.3,2.1,3.2,3.2,5.6,3.2s2.4-0.4,3.2-1.2 M769.1,185.4c0.7,0.3,1.3,0.8,1.9,1.5v-8c0-1-0.1-1.7-0.4-2.1
					c-0.2-0.4-0.8-0.6-1.6-0.6s-0.4,0-0.5,0c-0.2,0-0.5,0-1,0v-0.8l2.1-0.5c0.7-0.2,1.5-0.4,2.3-0.6c0.7-0.2,1.4-0.4,2-0.6
					c0.3,0,0.7-0.2,1.3-0.5h0.1v2.7c0,0.9,0,1.9,0,3c0,1,0,2,0,3v20.5c0,1.1,0,1.9,0.3,2.3c0.3,0.4,1,0.7,2.2,0.7h0.6
					c0.2,0,0.4,0,0.6,0v0.8c-0.1,0-1.3,0.4-3.7,1.2l-4,1.5l-0.2-0.2v-3.1c-0.9,1-1.8,1.7-2.4,2.2c-1.2,0.7-2.7,1.1-4.3,1.1
					c-2.8,0-5.2-1.1-7-3.3s-2.6-4.7-2.6-7.6s1.1-6.7,3.2-9.3c2.1-2.6,4.7-3.9,7.8-3.9s2.3,0.3,3.4,0.8"/>
			</g>
			<g id="g15568">
				<path id="path15570" inkscape:connector-curvature="0" fill="#0076C0" d="M21.9,108.4h76.9c0,0-11.6,183.7,100.1,118l1.1-0.7
					c-18.9,18.5-43.5,29.7-70.4,29.7c-59.5,0-120.2-53.9-107.7-147.1"/>
			</g>
			<g id="g15572">
				<path id="path15574" inkscape:connector-curvature="0" fill="#00A651" d="M264.6,253.7v1h-60.4c0,0,9.1-81.7-78.6-48.3l-0.8,0.3
					c14.8-9.4,34.1-15.1,55.3-15.1c46.7,0,84.6,27.8,84.6,62"/>
			</g>
			<g id="g15576">
				<path id="path15578" inkscape:connector-curvature="0" fill="#0076C0" d="M52.4,104.7c9.7-55,49.5-96.1,97-96.1
					s99.2,54.7,99.2,122.1s-0.3,11.6-1,17.3h-64.9c0.8-24.3-1.8-96-49.3-102.3C85.5,39.3,58.5,91.4,52.4,104.7"/>
			</g>
			<g id="g15580">
				<path id="path15582" inkscape:connector-curvature="0" d="M318.8,127.7c0-0.1,0-0.2,0.2-0.2c0.8,0,2.2,0.5,4.3,1.3
					c2,0.9,3,1.9,3,3s-0.2,0.8-0.6,1.1s-0.8,0.5-1.3,0.5c-1,0-1.9-0.8-2.7-2.4c-0.8-1.3-1.5-2.1-2.1-2.5c-0.6-0.3-0.9-0.6-0.9-0.8
					 M312.8,130.5c-1,0-1.6-0.4-1.8-1.3c-0.2-0.9-0.6-1.5-1.1-2s-0.7-0.7-0.7-0.8s0.1-0.2,0.4-0.2s1,0.2,2.1,0.6c1,0.4,1.7,0.7,2,1
					c0.4,0.3,0.5,0.7,0.5,1.3c0,0.9-0.5,1.3-1.4,1.3 M306.3,124h10.8v-2.2h-10.8V124z M306.3,120.2h10.8V118h-10.8V120.2z
					 M317.1,114.5h-10.8v2h10.8V114.5z M311.2,141.7c1.8-1.6,3.1-2.8,3.8-3.6h-8.8C307.2,139.2,308.8,140.4,311.2,141.7
					 M320.4,131.7c-0.7,1.2-1.5,2-2.4,2.4s-2.3,0.5-4.2,0.5s-4.6-0.1-6.4-0.4c-1.8-0.3-2.7-0.7-2.9-1.3c-0.1-0.6-0.2-1.8-0.2-3.6
					v-1.1c0-0.2-0.1-0.3-0.2-0.6c-0.1-0.3-0.2-0.4-0.2-0.5c0-0.2,0.1-0.3,0.4-0.3c0.5,0,1.3,0.2,2.7,0.5c1.4,0.3,2,0.6,2,0.8
					s-0.3,0.4-1,0.8v1.8c0,0.6,0.8,1,2.5,1h3c1.6,0,2.7-0.6,3.3-1.9c0.6-1.2,0.9-1.9,1.1-1.9s0.3,0.4,0.3,1.3s0.7,1.7,2.2,2.4
					 M297.3,131.8c0-0.6,0.6-1.2,1.7-1.8s1.8-1.3,2.1-1.9c0.3-0.7,0.5-1,0.6-1c0.5,0,0.7,0.9,0.7,2.8s-0.3,1.6-0.9,2.3
					s-1.3,1.1-2.2,1.1c-1.3,0-2-0.5-2-1.4 M309.1,143.3c-1.2-1.1-2.4-2.6-3.7-4.5c-2.4,1.8-4.5,3.2-6.3,4.2c-1.9,1-2.9,1.4-3.1,1.4
					s-0.3,0-0.3-0.2s0.3-0.5,0.9-1c4-3.5,6.3-6.4,6.8-8.5c0.1-0.4,0.2-0.6,0.3-0.8h0.2c0.4,0,1.4,0.2,3,0.7s2.4,0.8,2.4,1
					s-0.3,0.4-1,0.8h7.1c1.1-0.8,1.8-1.1,2-1.1s1.2,0.4,2.7,1.3c1.4,0.8,2.2,1.4,2.2,1.7s-0.7,0.6-2,0.8c-3.2,2.5-5.1,3.9-5.5,4.2
					c4.7,1.6,8.8,2.5,12.2,2.8c0.2,0,0.6,0,1.1,0.1c0.5,0,0.8,0.2,0.8,0.3s-0.5,0.3-1.6,0.6s-2.4,1.3-4,2.9
					c-3.3-0.9-7.2-2.5-11.6-4.8c-3.9,1.9-7.3,3.2-10.3,3.9s-5,1.1-5.9,1.1s-0.7,0-0.7-0.2s0.9-0.5,2.8-1.1c4.3-1.5,8.1-3.4,11.5-5.7
					 M300.3,124h1.5v-8.9c0-1.1,0-1.9-0.3-2.4c-0.2-0.4-0.3-0.7-0.3-0.9s0.2-0.2,0.5-0.2c0.5,0,1.5,0.2,2.7,0.7l1.8,0.6h2.4
					c0-0.4,0.2-1.5,0.4-3.4h-7.8l-1,0.7l-2.3-2.5c1.9,0.2,3,0.2,3.4,0.2h17.9c1.9-1.5,2.9-2.3,3-2.3c0.2,0,1,0.5,2.3,1.4s2,1.6,2,2
					s-0.2,0.5-0.7,0.5h-11.2c0,0-0.1,0.2-0.3,0.4l-0.8,0.5c-0.8,0.9-1.6,1.8-2.3,2.5h5.3c0.9-1.1,1.5-1.6,1.9-1.6s0.8,0.3,2.3,0.9
					s2.2,1.1,2.2,1.4s-0.5,0.7-1.4,1.3v9h1.3c0.9-0.8,1.4-1.2,1.7-1.2c0.6,0,1.4,0.5,2.6,1.5s1.8,1.7,1.8,2.1s-0.8,0.6-2.5,0.6
					c-1,0-1.8,0.3-2.5,0.8s-1.1,0.7-1.2,0.7c-0.2,0-0.2,0-0.2-0.3s0.2-1.1,0.7-2.6h-22.7c-0.5,2.4-1.8,3.6-3.8,3.6s-2.1-0.5-2.1-1.6
					s0.6-1.4,1.9-2.2c1.3-0.8,2-1.6,2.1-2.3c0-0.9,0.2-1.3,0.5-1.3s0.8,0.7,1.2,2.2 M297.4,107.9c-2.3,4-4,7-5.3,9
					c1.5,0.5,2.3,0.8,2.3,1s-0.4,0.5-1.1,1v24.6l0.3,4.7c-1.4,0.5-3.2,1-5.2,1.4c0.3-2.4,0.4-4.4,0.4-5.7v-22.1
					c-3.5,4.4-5.7,6.5-6.5,6.5s-0.2-0.1-0.2-0.3s0-0.2,0-0.3c2.1-3,4.2-7,6.3-12.1c2.1-5.1,3.1-8.1,3.2-9.1c0-1,0.2-1.6,0.3-1.9h0.2
					c0.6,0,1.9,0.3,3.9,1s3,1.1,3,1.4s-0.6,0.5-1.7,0.9"/>
			</g>
			<g id="g15584">
				<path id="path15586" inkscape:connector-curvature="0" d="M406.6,150.3c-1,0-2.4-0.9-4.4-2.7s-4.6-3.4-7.8-4.8
					c-0.6-0.3-1-0.5-1-0.5c0-0.2,0.2-0.3,0.5-0.3c1,0,3,0.3,6.2,1s5.5,1.5,6.8,2.5s2,2,2,2.9s-0.2,1-0.7,1.4s-1.1,0.6-1.8,0.6
					 M397.2,114.1h9.9c1.7-1.4,2.6-2.1,2.7-2.1c0.3,0,1,0.5,2.1,1.5s1.7,1.6,1.7,1.8s-0.2,0.4-0.7,0.4h-6c-0.3,0.2-0.7,0.5-1.1,0.6
					v4.7c0,0.5,0.1,1.6,0.3,3.4c-1.5,0.5-3.2,0.8-5.2,1.1c0.2-1.9,0.3-3.1,0.3-3.5v-6.2H397c-0.4,4.2-1.9,7.2-4.5,9
					c-2.6,1.7-4.2,2.6-4.8,2.6s-0.3,0-0.3-0.3s0.1-0.3,0.3-0.4c2-1.9,3.3-3.8,3.9-5.7c0.6-1.9,0.9-4.5,0.9-7.7v-4.4
					c0-0.2,0-0.5-0.2-0.8c-0.1-0.3-0.2-0.6-0.2-0.8s0.1-0.3,0.3-0.3c0.4,0,2.1,0.6,5.2,1.9c6.1-1.6,9.4-2.7,10-3.4
					c0.4,0.2,1,0.9,2,2c0.9,1.1,1.4,1.8,1.4,2s-0.5,0.2-1.5,0.2c-2.5,0-6.6,0.2-12.3,0.7L397.2,114.1L397.2,114.1z M381.1,139.6
					h19.2v-2.4h-19.2V139.6z M381.1,135.5h19.2v-2.2h-19.2V135.5z M381.1,131.7h19.2v-2.5h-18.5l-0.6,0.5v2H381.1z M376,142.6
					c0.3-2.9,0.4-4.7,0.4-5.3v-7.7c0-0.9-0.1-1.6-0.4-2.2c-0.3-0.6-0.4-1-0.4-1.1s0-0.2,0.3-0.2c0.5,0,1.6,0.3,3.6,0.8l2.7,0.8h17.3
					c1.2-1.1,1.9-1.7,2.2-1.7s1,0.4,2.5,1.1c1.6,0.7,2.3,1.2,2.3,1.5s-0.5,0.7-1.5,1.2v6.5l0.3,5c-0.8,0.4-2.6,0.7-5.3,1.1l0.2-1.3
					H381v0.7c-1.6,0.3-3.3,0.6-5.1,0.8 M379,108.9c4.5-1.5,7-2.5,7.7-3.2c0.4-0.3,0.6-0.5,0.7-0.5c0.2,0,0.9,0.6,2,1.9
					c1.1,1.2,1.7,1.9,1.7,2c0,0.2-0.1,0.3-0.3,0.3c-0.9,0-2.8,0.2-5.9,0.5s-5.3,0.5-6.6,0.7l-0.2,3.5h7.5c1.4-1.4,2.3-2.1,2.5-2.1
					s0.9,0.5,2,1.4s1.7,1.5,1.7,1.8s-0.2,0.5-0.7,0.5h-3.6c-0.4,0.3-0.7,0.4-0.9,0.5v5.1c0,0.3,0,1.6,0.2,4
					c-1.4,0.3-3.1,0.6-5.1,0.8c0.3-3.1,0.4-6.6,0.3-10.4h-4.2l-0.3,2.3c-0.4,3.2-1.9,5.7-4.6,7.6s-4.2,2.9-4.5,2.9s-0.3,0-0.3-0.3
					s0.2-0.4,0.7-0.9c3.3-3.6,5-9.1,5-16.5s0-1.8-0.2-2.3s-0.2-0.8-0.2-1s0-0.3,0.3-0.3c0.4,0,2.3,0.6,5.6,1.9 M386.8,145.4
					l-7.4,2.4c-5.3,1.6-9.2,2.3-11.5,2.3s-0.4,0-0.4-0.2s0.2-0.3,0.5-0.4c3.1-1.1,6.3-2.5,9.7-4.3c3.4-1.8,5.3-2.9,5.7-3.3
					c0.4-0.4,0.7-0.6,0.7-0.6c0.2,0,1.1,0.6,2.7,1.8s2.5,1.9,2.5,2.2s-0.2,0.4-0.5,0.4h-2L386.8,145.4z"/>
			</g>
			<g id="g15588">
				<path id="path15590" inkscape:connector-curvature="0" d="M495,118.7h-5.5l-1.9,4.8c0.4,3.4,1.3,6.7,2.7,9.9
					C492,130.2,493.6,125.3,495,118.7 M497.4,117c1.7-1.3,2.7-2,3-2s1,0.5,2.1,1.4c1.1,1,1.7,1.5,1.7,1.8s-0.2,0.5-0.7,0.5h-6
					c1.4,0.5,2.5,0.8,3.2,1.1c0.7,0.3,1,0.6,1,1s-0.5,0.5-1.5,0.7c-2.7,7.7-5.2,13.1-7.4,16.3c1.7,2.1,3.4,3.9,5.1,5.6
					c1.7,1.7,3.2,2.8,4.4,3.4c1.2,0.6,1.8,1.1,1.8,1.3s-0.5,0.3-1.7,0.3s-2.7,0.5-4.7,1.4c-3.4-3-5.9-5.9-7.5-8.7
					c-3.3,3.1-6.3,5.4-8.9,6.9c-2.7,1.5-4.1,2.2-4.4,2.2s-0.3,0-0.3-0.2s0.3-0.3,0.9-0.9l1.8-1.6c3.3-3,6.2-6.3,8.8-10
					c-0.9-2.4-1.5-6.1-1.8-11.2c-2.4,4-3.9,6.1-4.7,6.4c-0.2,0-0.3-0.2-0.3-0.3c0-0.2,0.3-1.2,1-2.8c1.6-3.6,3-9.1,4.4-16.6l0.8-4.2
					c0.2-1.2,0.3-2.1,0.3-2.8s0-0.3,0-0.6c0-0.3,0-0.5,0-0.6s0-0.1,0-0.2c0,0,0,0,0.2,0l3.4,0.9c2.4,0.6,3.6,1.2,3.6,1.7
					s-0.7,0.5-2,0.7l-1.1,3.4c-0.8,2.4-1.3,4.2-1.6,5.5h7.2L497.4,117z M475.7,112.4c5,1.5,7.5,3.3,7.5,5.2s-0.2,0.8-0.5,1.1
					c-0.3,0.3-0.8,0.5-1.3,0.5c-1.2,0-2.2-0.4-3-1.2c-1.9-1.8-3.7-3.1-5.5-4.1c-2.1,1.3-4.5,2.3-7.4,3.2c-2.9,0.9-4.6,1.4-5.3,1.4
					s-0.1-0.1-0.1-0.3c3.5-1.6,6.7-3.4,9.5-5.5c-0.7-0.5-3.8-1.7-9.5-3.6c0.1-0.2,0.2-0.3,0.3-0.3c0.5,0,2.2,0.2,5,0.7
					s4.9,1,6.4,1.6c3.1-2.2,4.9-4.1,5.3-5.6c0,0,0.1,0,0.2,0c0.3,0,1.3,0.4,2.8,1.3s2.3,1.5,2.3,1.9s-0.9,0.7-2.6,0.7
					C479.3,109.7,477.9,110.7,475.7,112.4 M483.3,123.1h-10.5c-1.3,1.9-2.1,3.1-2.6,3.6h4c1-1,1.7-1.5,2.1-1.5s1.2,0.5,2.6,1.4
					c1.4,1,2.1,1.6,2.1,2s-0.6,0.5-2,0.8c-1.3,0.3-3,1.3-5.1,3.2c1.1,0.4,1.7,0.8,1.7,1.1s-0.5,0.5-1.4,1.1v1.2
					c0.8,0,2.2-0.3,4.4-0.7c2.1-0.4,3.5-0.6,4.2-0.6s0.4,0.1,0.4,0.3s-0.8,0.4-2.5,0.9l-6.4,2v7.7c0,2.2-2,3.5-6,3.9
					c-0.4-1.8-1.7-2.9-3.9-3.6c-0.9-0.3-1.4-0.4-1.4-0.5c0-0.2,0.2-0.4,0.5-0.4l4.2,0.2c0.7,0,1.2,0,1.5-0.2
					c0.3-0.1,0.4-0.4,0.4-0.9v-4.5c-2.6,0.7-5,1.5-7.2,2.4l-2.5-4.3c1,0,4.2-0.3,9.6-0.9v-2.5c0-1.2,0-2-0.2-2.4
					c-0.1-0.4-0.2-0.6-0.2-0.6c0-0.2,0.2-0.3,0.5-0.3s1.1,0.3,3,0.9l1.9-3.8h-5.3c-2.7,2.6-5.2,4.5-7.6,5.8s-3.8,2-4.3,2
					s-0.3-0.1-0.3-0.3s0.1-0.2,0.4-0.5c2.8-1.7,5.3-4,7.5-7.1h-1.3l-1.2,0.5l-1.6-2.4c1.9,0.3,3.6,0.3,5.1,0.2
					c0.5-0.5,1.3-1.7,2.4-3.6h-5.8l-1.6,0.8l-2.4-2.7l3.6,0.3h7.1c1.1-2.6,1.7-4,1.7-4.2s0-0.5,0-0.7s0-0.4,0-0.5v-0.1
					c0.3,0,1.2,0.5,2.9,1.4c1.7,1,2.5,1.6,2.5,2s-0.5,0.6-1.6,0.8c0,0-0.1,0.2-0.3,0.4c-0.1,0.2-0.4,0.5-0.6,1h3l2.5-1.7
					c0,0,0.1,0,0.2,0s0.2,0,0.3,0c0.3,0,1,0.5,2,1.4s1.5,1.4,1.5,1.5s0,0.2,0,0.3c0,0.1,0,0.2,0,0.2"/>
			</g>
			<g id="g15592">
				<path id="path15594" inkscape:connector-curvature="0" d="M566.1,104.6c0.2,0,0.5,0,1,0.1c0.4,0.1,0.7,0.2,0.9,0.2
					c1.2,0.2,2.7,0.7,4.5,1.5c1.7,0.8,2.6,1.9,2.6,3.3s-0.3,1.2-0.9,1.6c-0.6,0.5-1.3,0.7-2.2,0.7s-2.1-0.9-2.6-2.6
					c-0.6-1.7-1.7-3.2-3.3-4.3c-0.1,0-0.2-0.2-0.2-0.4C565.9,104.7,565.9,104.6,566.1,104.6 M563.2,138.1h16.3v-3.9h-16.3V138.1z
					 M563.2,132.6h16.3v-3.8h-15.7l-0.7,0.5v3.3H563.2z M564.4,127.1h14.8c1.2-1.2,1.8-1.7,2-1.7s1.1,0.4,2.8,1.4
					c1.7,0.9,2.5,1.4,2.5,1.4c0,0.2-0.6,0.6-1.9,1.4v17c0,1.6-0.5,2.6-1.3,2.9c-0.9,0.4-2.8,0.7-5.8,0.9c-0.3-1.9-1.1-3.1-2.4-3.6
					c-1.3-0.5-2-0.9-2-1s0.1-0.1,0.3-0.1c0.5,0,1.2,0,2.1,0c0.9,0,1.6,0,2.1,0c1.3,0,1.9-0.3,1.9-1v-4.9h-16.3v4.3l0.2,5.1
					c-3,0.5-4.8,0.8-5.5,0.9c0.3-2.4,0.4-4.1,0.4-5.2v-15.6c0-1.6-0.1-2.6-0.4-3.1c-0.3-0.5-0.4-0.8-0.4-1s0.1-0.2,0.4-0.2
					s1.5,0.4,3.5,1.1l2.9,1L564.4,127.1z M586.3,112.5c1.8-1.4,2.8-2.1,3-2.1c0.3,0,1.1,0.5,2.4,1.6c1.3,1,1.9,1.7,1.9,1.9
					s-0.2,0.3-0.7,0.3h-20.5c1.2,0.6,1.9,1.1,1.9,1.3s-0.8,0.5-2.4,0.4c-2.7,1.3-6.5,2.9-11.2,4.8c7.2-0.1,14.5-0.2,21.7-0.2
					c-1.6-1.7-2.9-2.8-4-3.4s-1.6-1.1-1.6-1.3s0,0,0.2,0c0.7,0,2.3,0.4,4.9,1.3c2.6,0.8,4.5,1.8,5.7,3c1.2,1.1,1.8,2.2,1.8,3.1
					s-0.2,1.3-0.7,1.8s-1.1,0.7-1.9,0.7s-1.1-0.2-1.5-0.6s-1.1-1.5-2.1-3.3c-15.7,1.1-25.2,2-28.4,2.7l-1.5-4.8
					c4.7-0.2,9-2.1,13-5.6h-14.5l-1,0.6l-2.1-2.5c1.6,0.2,2.8,0.2,3.5,0.2L586.3,112.5L586.3,112.5z"/>
			</g>
			<path id="path15596" inkscape:connector-curvature="0" d="M657.4,127.3H669v-3.4h-11.6V127.3z M657.4,122.3H669V119h-11.6V122.3z
				 M657.4,117.4H669v-3.2h-11.6V117.4z M660.7,140.3h-7.5l-1,0.6l-1.9-2.5c1.8,0.2,2.8,0.2,3.2,0.2h7.1v-1.8c0-1.3-0.1-2.2-0.4-2.6
				c-0.3-0.4-0.5-0.7-0.5-0.8c0-0.2,0.2-0.3,0.6-0.3s1.3,0.2,3.2,0.6c2,0.4,3.1,0.7,3.4,0.8c0.3,0.1,0.5,0.3,0.5,0.5
				s-0.6,0.7-1.9,1.4v2.2h3.3c1.3-1.3,2.1-2,2.6-2s0.7,0.4,2,1.3c1.2,0.9,1.8,1.5,1.8,1.8s-0.3,0.5-1.1,0.5h-8.6v6.4h9.9
				c1.7-1.4,2.6-2.1,2.9-2.1c0.4,0,1.1,0.5,2.2,1.5c1.1,1,1.6,1.6,1.6,1.7c0,0.4-0.4,0.6-1.1,0.6h-32.8l-1,0.6l-1.8-2.5
				c1.4,0.1,2.5,0.2,3.2,0.2h11.9v-6.4l0,0L660.7,140.3z M654.4,129h-11l-1,0.8l-1.8-2.7c1.8,0.2,2.8,0.3,3.2,0.3h8.8v-13.2h-7.5
				l-0.9,0.8l-1.8-2.7c1.7,0.2,2.8,0.2,3.3,0.2h7v-2.8c0-1.7-0.2-2.7-0.5-3.2s-0.5-0.8-0.5-1s0.2-0.3,0.6-0.3c0.7,0,2.1,0.2,4,0.7
				c2,0.5,2.9,0.9,2.9,1.2s-0.6,0.7-2,1.4v4h11.6v-2.7c0-1.7-0.2-2.8-0.5-3.3s-0.5-0.8-0.5-0.9c0-0.3,0.2-0.4,0.6-0.4
				c0.6,0,1.8,0.2,3.5,0.6s2.7,0.7,3,0.9c0.3,0.2,0.4,0.4,0.4,0.6s-0.6,0.6-1.8,1.3v3.9h4.7c1.2-1.1,1.9-1.7,2.2-1.7
				c0.4,0,1.2,0.4,2.2,1.3c1.1,0.8,1.6,1.4,1.6,1.6s-0.3,0.5-1,0.5h-9.7v13.2h6.9c1.3-1.2,2.1-1.8,2.5-1.8s1,0.4,2.1,1.3
				c1,0.9,1.6,1.4,1.6,1.7s-0.2,0.4-0.7,0.4h-17.5c4.3,3.2,10.2,5.8,17.7,7.5c0.5,0,0.7,0.2,0.7,0.4s-0.4,0.3-1.2,0.4
				c-2.3,0.4-4.1,1.4-5.5,2.7c-4.8-2.4-7.9-4.2-9.3-5.6c-1.4-1.4-2.8-3.2-4.2-5.5h-9c2.3,1.1,3.4,1.8,3.4,2.3s-0.6,0.5-1.9,0.5
				c-4.1,2.5-8.1,4.4-12.2,5.9c-4.1,1.4-6.3,2.1-6.7,2.1s-0.3,0-0.3-0.2s0-0.3,0.2-0.3c6.7-3.7,11.5-7.1,14.2-10.2"/>
			<g id="g15598">
				<path id="path15600" inkscape:connector-curvature="0" d="M741.2,136.7c0,0,0.1-0.1,0.4-0.1c0.9,0,2.6,0.6,5,1.7
					c2.4,1.1,3.7,2.4,3.7,3.9s-0.3,1.1-0.7,1.5c-0.5,0.5-1,0.7-1.7,0.7s-1.4-0.3-1.8-0.9c-0.4-0.6-1.1-1.8-1.9-3.6
					C744,139.3,743,138.2,741.2,136.7 M736,146.1c2.1,0.2,3.4,0.3,3.8,0.3h13.4V135h-11.1l-1,0.6l-1.9-2.5c1.5,0.2,2.6,0.3,3.4,0.3
					h10.6v-7h-7.9l-1.3,0.7l-2-2.6c1.9,0.2,3,0.3,3.2,0.3h17.3c1.4-1.1,2.3-1.7,2.6-1.7s1.1,0.4,2.1,1.2c1,0.8,1.5,1.4,1.5,1.7
					s-0.2,0.5-0.7,0.5h-8.6c-0.3,0.4-0.6,0.7-0.9,0.8v6.2h8.3c1.6-1.3,2.6-1.9,3-1.9s1.1,0.4,2.3,1.3c1.2,0.9,1.8,1.5,1.8,1.8
					s-0.2,0.4-0.7,0.4h-14.7v10c0.4-0.4,1.6-1.3,3.3-2.7c1.8-1.4,3.1-2.7,3.8-3.8c0.8-1.1,1.3-1.7,1.4-1.7s1,0.5,2.4,1.6
					s2.1,1.7,2.1,2s-0.6,0.5-1.8,0.5c-5.7,3-9.4,4.8-11.3,5.4v0.3h11.4c1.9-1.3,2.9-1.9,3.1-1.9c0.4,0,1.2,0.5,2.5,1.4
					s1.9,1.5,1.9,1.8s-0.3,0.5-0.8,0.5h-37.3l-1.1,0.6l-2.2-2.6L736,146.1z M772.3,127.1c-3.4-2.2-6.4-4.8-8.9-7.7
					c-2.5-2.9-4.2-5.7-5-8.5l-0.7-2.1c-4.9,7.4-10.1,12.4-15.5,15.2c-5.4,2.8-8.3,4.2-8.8,4.2s-0.3,0-0.3-0.2s0.6-0.7,1.7-1.4
					c8.9-6.7,14.7-13.6,17.6-20.9c0,0,0.2,0,0.4,0s1.6,0.3,3.9,1c2.3,0.7,3.5,1.2,3.5,1.6s-0.3,0.6-0.9,0.8c3,4,5.9,7.1,8.8,9.3
					c2.9,2.2,4.8,3.5,5.9,3.9l5.4,2.5c0.2,0,0.3,0.2,0.3,0.4s-0.5,0.3-1.5,0.3c-2.1,0-4.1,0.6-5.9,1.8"/>
			</g>
		</g>
	</g>
</g>
<g>
	<path d="M447.7,49.7c2.3,1.6,4.3,2.7,6.3,3.4l-1.4,3.4c-2.6-1-5.3-2.5-7.9-4.5c-2.7,1.5-5.7,2.3-9,2.3c-3.3,0-6.4-0.8-9.1-2.4
		c-2.7-1.6-4.8-3.9-6.3-6.8c-1.5-2.9-2.2-6.2-2.2-9.8c0-3.6,0.7-6.9,2.2-9.9c1.5-3,3.6-5.3,6.3-6.8c2.7-1.6,5.8-2.3,9.1-2.3
		c3.4,0,6.5,0.8,9.2,2.4s4.8,3.9,6.2,6.8c1.4,2.9,2.1,6.2,2.1,9.8c0,3-0.5,5.8-1.4,8.2C450.9,45.8,449.6,47.9,447.7,49.7z M437,43.5
		c2.8,0.8,5.1,2,7,3.5c2.9-2.6,4.3-6.5,4.3-11.8c0-3-0.5-5.6-1.5-7.8c-1-2.2-2.5-4-4.4-5.2c-2-1.2-4.1-1.8-6.6-1.8
		c-3.6,0-6.7,1.2-9,3.7c-2.4,2.5-3.6,6.2-3.6,11.1c0,4.8,1.2,8.5,3.6,11s5.4,3.8,9.1,3.8c1.7,0,3.4-0.3,4.9-1
		c-1.5-1-3.1-1.7-4.8-2.1L437,43.5z"/>
	<path d="M459.9,53.6V16.8h26.6v4.3h-21.8v11.3h20.4v4.3h-20.4v12.5h22.6v4.3H459.9z"/>
	<path d="M494.4,53.6V16.8h24.9v4.3h-20v11.4h17.3v4.3h-17.3v16.7H494.4z"/>
	<path d="M561.8,49.3v4.3h-24.3c0-1.1,0.1-2.1,0.5-3.1c0.6-1.7,1.6-3.3,3-4.9c1.4-1.6,3.3-3.5,5.9-5.6c4-3.3,6.7-5.9,8.1-7.8
		c1.4-1.9,2.1-3.7,2.1-5.4c0-1.8-0.6-3.3-1.9-4.5c-1.3-1.2-3-1.8-5-1.8c-2.2,0-3.9,0.7-5.2,2s-2,3.1-2,5.4l-4.6-0.5
		c0.3-3.5,1.5-6.1,3.6-7.9c2.1-1.8,4.9-2.7,8.4-2.7c3.5,0,6.3,1,8.4,2.9s3.1,4.4,3.1,7.3c0,1.5-0.3,2.9-0.9,4.3
		c-0.6,1.4-1.6,2.9-3,4.5c-1.4,1.6-3.7,3.7-7,6.5c-2.7,2.3-4.5,3.8-5.2,4.6s-1.4,1.6-1.9,2.4H561.8z"/>
	<path d="M566.7,35.5c0-4.4,0.4-7.9,1.3-10.5c0.9-2.7,2.2-4.7,4-6.1c1.8-1.4,4-2.2,6.7-2.2c2,0,3.7,0.4,5.2,1.2
		c1.5,0.8,2.7,1.9,3.7,3.4c1,1.5,1.7,3.3,2.3,5.5s0.8,5.1,0.8,8.7c0,4.3-0.4,7.8-1.3,10.5c-0.9,2.7-2.2,4.7-4,6.2
		c-1.8,1.4-4,2.2-6.7,2.2c-3.6,0-6.3-1.3-8.4-3.8C567.9,47.4,566.7,42.4,566.7,35.5z M571.3,35.5c0,6,0.7,10.1,2.1,12.1
		c1.4,2,3.2,3,5.2,3s3.8-1,5.2-3c1.4-2,2.1-6,2.1-12.1c0-6.1-0.7-10.1-2.1-12.1c-1.4-2-3.2-3-5.3-3c-2.1,0-3.7,0.9-5,2.6
		C572.1,25.3,571.3,29.4,571.3,35.5z"/>
	<path d="M619,49.3v4.3h-24.3c0-1.1,0.1-2.1,0.5-3.1c0.6-1.7,1.6-3.3,3-4.9c1.4-1.6,3.3-3.5,5.9-5.6c4-3.3,6.7-5.9,8.1-7.8
		c1.4-1.9,2.1-3.7,2.1-5.4c0-1.8-0.6-3.3-1.9-4.5c-1.3-1.2-3-1.8-5-1.8c-2.2,0-3.9,0.7-5.2,2s-2,3.1-2,5.4l-4.6-0.5
		c0.3-3.5,1.5-6.1,3.6-7.9c2.1-1.8,4.9-2.7,8.4-2.7c3.5,0,6.3,1,8.4,2.9s3.1,4.4,3.1,7.3c0,1.5-0.3,2.9-0.9,4.3
		c-0.6,1.4-1.6,2.9-3,4.5c-1.4,1.6-3.7,3.7-7,6.5c-2.7,2.3-4.5,3.8-5.2,4.6s-1.4,1.6-1.9,2.4H619z"/>
	<path d="M640.9,53.6h-4.5V24.8c-1.1,1-2.5,2.1-4.3,3.1c-1.8,1-3.4,1.8-4.8,2.3v-4.4c2.5-1.2,4.7-2.6,6.6-4.3c1.9-1.7,3.2-3.3,4-4.9
		h2.9V53.6z"/>
	<path d="M650.4,54.3l10.7-38.1h3.6L654,54.3H650.4z"/>
	<path d="M683.8,53.6h-4.5V24.8c-1.1,1-2.5,2.1-4.3,3.1c-1.8,1-3.4,1.8-4.8,2.3v-4.4c2.5-1.2,4.7-2.6,6.6-4.3c1.9-1.7,3.2-3.3,4-4.9
		h2.9V53.6z"/>
	<path d="M695.4,35.5c0-4.4,0.4-7.9,1.3-10.5c0.9-2.7,2.2-4.7,4-6.1c1.8-1.4,4-2.2,6.7-2.2c2,0,3.7,0.4,5.2,1.2
		c1.5,0.8,2.7,1.9,3.7,3.4c1,1.5,1.7,3.3,2.3,5.5s0.8,5.1,0.8,8.7c0,4.3-0.4,7.8-1.3,10.5c-0.9,2.7-2.2,4.7-4,6.2
		c-1.8,1.4-4,2.2-6.7,2.2c-3.6,0-6.3-1.3-8.4-3.8C696.6,47.4,695.4,42.4,695.4,35.5z M700.1,35.5c0,6,0.7,10.1,2.1,12.1
		c1.4,2,3.2,3,5.2,3s3.8-1,5.2-3c1.4-2,2.1-6,2.1-12.1c0-6.1-0.7-10.1-2.1-12.1c-1.4-2-3.2-3-5.3-3c-2.1,0-3.7,0.9-5,2.6
		C700.9,25.3,700.1,29.4,700.1,35.5z"/>
	<path d="M747.5,25.8l-4.5,0.4c-0.4-1.8-1-3.1-1.7-3.9c-1.2-1.3-2.7-1.9-4.5-1.9c-1.4,0-2.7,0.4-3.8,1.2c-1.4,1-2.5,2.6-3.4,4.5
		c-0.8,2-1.2,4.8-1.3,8.5c1.1-1.7,2.4-2.9,4-3.7c1.6-0.8,3.2-1.2,5-1.2c3,0,5.6,1.1,7.7,3.3c2.1,2.2,3.2,5.1,3.2,8.6
		c0,2.3-0.5,4.5-1.5,6.4c-1,2-2.4,3.5-4.1,4.6c-1.7,1.1-3.7,1.6-5.9,1.6c-3.8,0-6.8-1.4-9.2-4.2c-2.4-2.8-3.6-7.3-3.6-13.7
		c0-7.1,1.3-12.3,3.9-15.5c2.3-2.8,5.4-4.2,9.3-4.2c2.9,0,5.3,0.8,7.1,2.4C746,20.7,747.1,23,747.5,25.8z M729,41.7
		c0,1.6,0.3,3,1,4.5c0.7,1.4,1.6,2.5,2.8,3.3c1.2,0.7,2.4,1.1,3.7,1.1c1.9,0,3.6-0.8,4.9-2.3c1.4-1.5,2.1-3.6,2.1-6.3
		c0-2.5-0.7-4.6-2-6c-1.4-1.5-3.1-2.2-5.1-2.2c-2,0-3.8,0.7-5.2,2.2C729.8,37.4,729,39.3,729,41.7z"/>
	<path d="M752.7,44l4.7-0.4c0.4,2.3,1.2,4,2.5,5.2c1.3,1.2,2.8,1.7,4.6,1.7c2.2,0,4-0.8,5.5-2.5c1.5-1.6,2.3-3.8,2.3-6.5
		c0-2.6-0.7-4.6-2.2-6.1c-1.4-1.5-3.3-2.2-5.7-2.2c-1.5,0-2.8,0.3-3.9,1s-2.1,1.5-2.8,2.6l-4.2-0.6l3.6-18.9h18.3v4.3h-14.7l-2,9.9
		c2.2-1.5,4.5-2.3,7-2.3c3.2,0,5.9,1.1,8.1,3.3c2.2,2.2,3.3,5.1,3.3,8.6c0,3.3-1,6.2-2.9,8.6c-2.4,3-5.6,4.5-9.7,4.5
		c-3.4,0-6.1-0.9-8.2-2.8C754.2,49.6,753,47.1,752.7,44z"/>
</g>
</svg>
